ScienceGothic-RegularS.ufo
<glyph name="dollar" format="2">
  <advance width="1593"/>
  <unicode hex="0024"/>
  <outline>
    <contour>
      <point x="562" y="-164" type="line"/>
      <point x="776" y="-164" type="line"/>
      <point x="808" y="16" type="line"/>
      <point x="1002" y="16" type="line" smooth="yes"/>
      <point x="1082.25" y="16"/>
      <point x="1213.91" y="39"/>
      <point x="1313.84" y="102"/>
      <point x="1380.62" y="213.5"/>
      <point x="1396" y="302" type="qcurve" smooth="yes"/>
      <point x="1440" y="556" type="line" smooth="yes"/>
      <point x="1455" y="642.25"/>
      <point x="1423.62" y="749.438"/>
      <point x="1343.38" y="809.062"/>
      <point x="1220.5" y="830"/>
      <point x="1144" y="830" type="qcurve" smooth="yes"/>
      <point x="950" y="830" type="line"/>
      <point x="1004" y="1140" type="line"/>
      <point x="1270" y="1140" type="line"/>
      <point x="1270" y="1140"/>
      <point x="1270" y="1140"/>
      <point x="1270" y="1140" type="qcurve"/>
      <point x="1244" y="990" type="line"/>
      <point x="1505" y="1040" type="line"/>
      <point x="1517" y="1110" type="line" smooth="yes"/>
      <point x="1532" y="1195.5"/>
      <point x="1500.62" y="1302.5"/>
      <point x="1420.38" y="1362.5"/>
      <point x="1297.5" y="1384"/>
      <point x="1221" y="1384" type="qcurve" smooth="yes"/>
      <point x="1047" y="1384" type="line"/>
      <point x="1078" y="1564" type="line"/>
      <point x="864" y="1564" type="line"/>
      <point x="833" y="1384" type="line"/>
      <point x="615" y="1384" type="line" smooth="yes"/>
      <point x="539.25" y="1384"/>
      <point x="409.688" y="1362.5"/>
      <point x="308.812" y="1302.5"/>
      <point x="240" y="1195.5"/>
      <point x="225" y="1110" type="qcurve" smooth="yes"/>
      <point x="184" y="874" type="line" smooth="yes"/>
      <point x="168.25" y="785.5"/>
      <point x="195.625" y="673.375"/>
      <point x="272.875" y="609.625"/>
      <point x="395.5" y="586"/>
      <point x="475" y="586" type="qcurve" smooth="yes"/>
      <point x="693" y="586" type="line"/>
      <point x="636" y="260" type="line"/>
      <point x="298" y="260" type="line"/>
      <point x="298" y="260"/>
      <point x="298" y="260"/>
      <point x="298" y="260" type="qcurve"/>
      <point x="326" y="416" type="line"/>
      <point x="65" y="364" type="line"/>
      <point x="54" y="302" type="line" smooth="yes"/>
      <point x="38.625" y="213.5"/>
      <point x="66.4062" y="102"/>
      <point x="143.844" y="39"/>
      <point x="266.5" y="16"/>
      <point x="346" y="16" type="qcurve" smooth="yes"/>
      <point x="594" y="16" type="line"/>
    </contour>
    <contour>
      <point x="736" y="830" type="line"/>
      <point x="428" y="830" type="line"/>
      <point x="428" y="830"/>
      <point x="428" y="830"/>
      <point x="428" y="830" type="qcurve"/>
      <point x="482" y="1140" type="line"/>
      <point x="482" y="1140"/>
      <point x="482" y="1140"/>
      <point x="482" y="1140" type="qcurve"/>
      <point x="790" y="1140" type="line"/>
    </contour>
    <contour>
      <point x="850" y="260" type="line"/>
      <point x="907" y="586" type="line"/>
      <point x="1193" y="586" type="line"/>
      <point x="1193" y="586"/>
      <point x="1193" y="586"/>
      <point x="1193" y="586" type="qcurve"/>
      <point x="1136" y="260" type="line"/>
      <point x="1136" y="260"/>
      <point x="1136" y="260"/>
      <point x="1136" y="260" type="qcurve"/>
    </contour>
  </outline>
</glyph>
<glyph name="parenleft" format="2">
  <advance width="638"/>
  <unicode hex="0028"/>
  <outline>
    <contour>
      <point x="462" y="-256" type="line"/>
      <point x="412.5" y="-181.75"/>
      <point x="348.594" y="4.9375"/>
      <point x="320.656" y="222.062"/>
      <point x="329.125" y="465.75"/>
      <point x="352" y="597" type="qcurve" smooth="yes"/>
      <point x="374.875" y="728.25"/>
      <point x="451.281" y="971.312"/>
      <point x="554.969" y="1187.69"/>
      <point x="684.25" y="1373.75"/>
      <point x="760" y="1448" type="qcurve"/>
      <point x="572" y="1448" type="line"/>
      <point x="490.25" y="1376"/>
      <point x="344.688" y="1194.72"/>
      <point x="225.812" y="980.031"/>
      <point x="138" y="733.875"/>
      <point x="114" y="597" type="qcurve" smooth="yes"/>
      <point x="65.7056" y="321.571"/>
      <point x="159.301" y="-118.663"/>
      <point x="274" y="-256" type="qcurve"/>
    </contour>
  </outline>
</glyph>
<glyph name="period" format="2">
  <advance width="676"/>
  <unicode hex="002E"/>
  <outline>
    <contour>
      <point x="80" y="111" type="line" smooth="yes"/>
      <point x="64.908" y="22.7118"/>
      <point x="90.7118" y="-8"/>
      <point x="179" y="-8" type="qcurve" smooth="yes"/>
      <point x="255" y="-8" type="line" smooth="yes"/>
      <point x="342.75" y="-8"/>
      <point x="380" y="23.25"/>
      <point x="395" y="111" type="qcurve" smooth="yes"/>
      <point x="409" y="190" type="line" smooth="yes"/>
      <point x="424.092" y="276.779"/>
      <point x="398.288" y="307"/>
      <point x="310" y="307" type="qcurve" smooth="yes"/>
      <point x="234" y="307" type="line" smooth="yes"/>
      <point x="146.25" y="307"/>
      <point x="109" y="276.25"/>
      <point x="94" y="190" type="qcurve" smooth="yes"/>
    </contour>
  </outline>
</glyph>
<glyph name="one" format="2">
  <advance width="857"/>
  <unicode hex="0031"/>
  <outline>
    <contour>
      <point x="233" y="0" type="line"/>
      <point x="497" y="0" type="line"/>
      <point x="744" y="1414" type="line"/>
      <point x="190" y="1300" type="line"/>
      <point x="160" y="1130" type="line"/>
      <point x="433" y="1144" type="line"/>
    </contour>
  </outline>
  <guideline angle="90" color="0.4,0.4,0.4,1" name="halfwidth" x="428.5" y="0"/>
</glyph>
<glyph name="three" format="2">
  <advance width="1684"/>
  <unicode hex="0033"/>
  <outline>
    <contour>
      <point x="148" y="380" type="line"/>
      <point x="125" y="246" type="line" smooth="yes"/>
      <point x="98.75" y="93.75"/>
      <point x="263" y="-14"/>
      <point x="398" y="-14" type="qcurve" smooth="yes"/>
      <point x="1024" y="-14" type="line" smooth="yes"/>
      <point x="1103.5" y="-14"/>
      <point x="1232.94" y="8.90625"/>
      <point x="1331.56" y="75.8438"/>
      <point x="1398.75" y="197.375"/>
      <point x="1416" y="296" type="qcurve" smooth="yes"/>
      <point x="1440" y="438" type="line" smooth="yes"/>
      <point x="1466.41" y="586.656"/>
      <point x="1350.7" y="710.19"/>
      <point x="1236" y="720" type="qcurve"/>
      <point x="1353.72" y="739.62"/>
      <point x="1483.59" y="843.325"/>
      <point x="1510" y="995" type="qcurve" smooth="yes"/>
      <point x="1529" y="1106" type="line" smooth="yes"/>
      <point x="1544.38" y="1193.75"/>
      <point x="1513.75" y="1311.94"/>
      <point x="1435.75" y="1383.56"/>
      <point x="1317.38" y="1414"/>
      <point x="1245" y="1414" type="qcurve" smooth="yes"/>
      <point x="659" y="1414" type="line" smooth="yes"/>
      <point x="588.125" y="1414"/>
      <point x="468.562" y="1400.34"/>
      <point x="375.938" y="1349.91"/>
      <point x="312.625" y="1251.12"/>
      <point x="298" y="1166" type="qcurve" smooth="yes"/>
      <point x="269" y="1002" type="line"/>
      <point x="525" y="954" type="line"/>
      <point x="562" y="1170" type="line"/>
      <point x="562" y="1170"/>
      <point x="562" y="1170"/>
      <point x="562" y="1170" type="qcurve"/>
      <point x="1168" y="1170" type="line" smooth="yes"/>
      <point x="1216.29" y="1170"/>
      <point x="1268.32" y="1121.12"/>
      <point x="1257" y="1060" type="qcurve" smooth="yes"/>
      <point x="1233" y="924" type="line" smooth="yes"/>
      <point x="1222.44" y="860.614"/>
      <point x="1162.8" y="822"/>
      <point x="1113" y="822" type="qcurve" smooth="yes"/>
      <point x="721" y="822" type="line"/>
      <point x="682" y="598" type="line"/>
      <point x="1102" y="598" type="line" smooth="yes"/>
      <point x="1147.28" y="598"/>
      <point x="1196.81" y="553.35"/>
      <point x="1187" y="496" type="qcurve" smooth="yes"/>
      <point x="1160" y="346" type="line" smooth="yes"/>
      <point x="1147.93" y="274.313"/>
      <point x="1081.84" y="230"/>
      <point x="1026" y="230" type="qcurve" smooth="yes"/>
      <point x="386" y="230" type="line"/>
      <point x="386" y="230"/>
      <point x="386" y="230"/>
      <point x="386" y="230" type="qcurve"/>
      <point x="421" y="428" type="line"/>
    </contour>
  </outline>
</glyph>
<glyph name="less" format="2">
  <advance width="1438"/>
  <unicode hex="003C"/>
  <outline>
    <contour>
      <point x="1189" y="0" type="line"/>
      <point x="1226" y="209" type="line"/>
      <point x="407" y="573" type="line"/>
      <point x="1353" y="936" type="line"/>
      <point x="1393" y="1168" type="line"/>
      <point x="130" y="683" type="line"/>
      <point x="96" y="485" type="line"/>
    </contour>
  </outline>
</glyph>
<glyph name="equal" format="2">
  <advance width="1438"/>
  <unicode hex="003D"/>
  <outline>
    <contour>
      <point x="131" y="693" type="line"/>
      <point x="1309" y="693" type="line"/>
      <point x="1345" y="901" type="line"/>
      <point x="167" y="901" type="line"/>
    </contour>
    <contour>
      <point x="60" y="273" type="line"/>
      <point x="1238" y="273" type="line"/>
      <point x="1274" y="481" type="line"/>
      <point x="96" y="481" type="line"/>
    </contour>
  </outline>
</glyph>
<glyph name="greater" format="2">
  <advance width="1438"/>
  <unicode hex="003E"/>
  <outline>
    <contour>
      <point x="216" y="1168" type="line"/>
      <point x="179" y="963" type="line"/>
      <point x="998" y="599" type="line"/>
      <point x="52" y="236" type="line"/>
      <point x="12" y="0" type="line"/>
      <point x="1275" y="485" type="line"/>
      <point x="1309" y="683" type="line"/>
    </contour>
  </outline>
</glyph>
<glyph name="question" format="2">
  <advance width="1271"/>
  <unicode hex="003F"/>
  <outline>
    <contour>
      <point x="431" y="462" type="line"/>
      <point x="655" y="462" type="line"/>
      <point x="672" y="562" type="line" smooth="yes"/>
      <point x="678.037" y="596.712"/>
      <point x="708.049" y="636.908"/>
      <point x="782" y="652" type="qcurve" smooth="yes"/>
      <point x="879" y="672" type="line" smooth="yes"/>
      <point x="1009.55" y="699.166"/>
      <point x="1131.64" y="802.393"/>
      <point x="1149" y="902" type="qcurve" smooth="yes"/>
      <point x="1196" y="1166" type="line" smooth="yes"/>
      <point x="1219.39" y="1300.32"/>
      <point x="1093.05" y="1414"/>
      <point x="921" y="1414" type="qcurve" smooth="yes"/>
      <point x="547" y="1414" type="line" smooth="yes"/>
      <point x="376.46" y="1414"/>
      <point x="208.638" y="1298.81"/>
      <point x="186" y="1166" type="qcurve" smooth="yes"/>
      <point x="162" y="1032" type="line"/>
      <point x="380" y="986" type="line"/>
      <point x="416" y="1190" type="line"/>
      <point x="416" y="1190"/>
      <point x="416" y="1190"/>
      <point x="416" y="1190" type="qcurve"/>
      <point x="976" y="1190" type="line"/>
      <point x="976" y="1190"/>
      <point x="976" y="1190"/>
      <point x="976" y="1190" type="qcurve"/>
      <point x="945" y="1007" type="line" smooth="yes"/>
      <point x="933.681" y="940.595"/>
      <point x="876.595" y="878.583"/>
      <point x="820" y="865" type="qcurve" smooth="yes"/>
      <point x="646" y="824" type="line" smooth="yes"/>
      <point x="562.239" y="804.38"/>
      <point x="474.828" y="713.951"/>
      <point x="462" y="640" type="qcurve" smooth="yes"/>
    </contour>
    <contour>
      <point x="322" y="111" type="line" smooth="yes"/>
      <point x="306.908" y="22.7118"/>
      <point x="332.712" y="-8"/>
      <point x="421" y="-8" type="qcurve" smooth="yes"/>
      <point x="497" y="-8" type="line" smooth="yes"/>
      <point x="584.75" y="-8"/>
      <point x="622" y="23.25"/>
      <point x="637" y="111" type="qcurve" smooth="yes"/>
      <point x="651" y="190" type="line" smooth="yes"/>
      <point x="666.092" y="276.779"/>
      <point x="640.288" y="307"/>
      <point x="552" y="307" type="qcurve" smooth="yes"/>
      <point x="476" y="307" type="line" smooth="yes"/>
      <point x="388.25" y="307"/>
      <point x="351" y="276.25"/>
      <point x="336" y="190" type="qcurve" smooth="yes"/>
    </contour>
  </outline>
</glyph>
<glyph name="F" format="2">
  <advance width="1467"/>
  <unicode hex="0046"/>
  <outline>
    <contour>
      <point x="83" y="0" type="line"/>
      <point x="347" y="0" type="line"/>
      <point x="450" y="590" type="line"/>
      <point x="972" y="590" type="line"/>
      <point x="1015" y="834" type="line"/>
      <point x="493" y="834" type="line"/>
      <point x="549" y="1156" type="line"/>
      <point x="1485" y="1156" type="line"/>
      <point x="1527" y="1400" type="line"/>
      <point x="327" y="1400" type="line"/>
    </contour>
  </outline>
</glyph>
<glyph name="O" format="2">
  <advance width="1795"/>
  <unicode hex="004F"/>
  <anchor x="1045" y="1564" name="top"/>
  <anchor x="746" y="-164" name="bottom"/>
  <anchor x="1704" y="1140" name="horn"/>
  <anchor x="870" y="0" name="ogonek"/>
  <outline>
    <contour>
      <point x="252" y="1140" type="qcurve" smooth="yes"/>
      <point x="100" y="272" type="line" smooth="yes"/>
      <point x="69.816" y="95.4236"/>
      <point x="231.516" y="-14"/>
      <point x="393" y="-14" type="qcurve" smooth="yes"/>
      <point x="1159" y="-14" type="line" smooth="yes"/>
      <point x="1320.48" y="-14"/>
      <point x="1521.06" y="93.9144"/>
      <point x="1552" y="272" type="qcurve" smooth="yes"/>
      <point x="1704" y="1140" type="line" smooth="yes"/>
      <point x="1734" y="1311"/>
      <point x="1559.5" y="1414"/>
      <point x="1408" y="1414" type="qcurve" smooth="yes"/>
      <point x="642" y="1414" type="line" smooth="yes"/>
      <point x="490.5" y="1414"/>
      <point x="282" y="1311"/>
    </contour>
    <contour>
      <point x="521" y="1170" type="line"/>
      <point x="521" y="1170"/>
      <point x="521" y="1170"/>
      <point x="521" y="1170" type="qcurve"/>
      <point x="1445" y="1170" type="line"/>
      <point x="1445" y="1170"/>
      <point x="1445" y="1170"/>
      <point x="1445" y="1170" type="qcurve"/>
      <point x="1281" y="230" type="line"/>
      <point x="1281" y="230"/>
      <point x="1281" y="230"/>
      <point x="1281" y="230" type="qcurve"/>
      <point x="357" y="230" type="line"/>
      <point x="357" y="230"/>
      <point x="357" y="230"/>
      <point x="357" y="230" type="qcurve"/>
    </contour>
  </outline>
</glyph>
<glyph name="W" format="2">
  <advance width="1975"/>
  <unicode hex="0057"/>
  <anchor x="987.5" y="-150" name="bottom"/>
  <anchor x="1140" y="1550" name="top"/>
  <outline>
    <contour>
      <point x="355" y="0" type="line"/>
      <point x="558" y="0" type="line"/>
      <point x="1020" y="901" type="line"/>
      <point x="1180" y="0" type="line"/>
      <point x="1377" y="0" type="line"/>
      <point x="2101" y="1400" type="line"/>
      <point x="1839" y="1400" type="line"/>
      <point x="1371" y="476" type="line"/>
      <point x="1207" y="1400" type="line"/>
      <point x="1025" y="1400" type="line"/>
      <point x="556" y="476" type="line"/>
      <point x="422" y="1400" type="line"/>
      <point x="127" y="1400" type="line"/>
    </contour>
  </outline>
</glyph>
<glyph name="underscore" format="2">
  <advance width="630"/>
  <unicode hex="005F"/>
  <outline>
    <contour>
      <point x="-189" y="-300" type="line"/>
      <point x="481" y="-300" type="line"/>
      <point x="510" y="-130" type="line"/>
      <point x="-160" y="-130" type="line"/>
    </contour>
  </outline>
</glyph>
<glyph name="l" format="2">
  <advance width="611"/>
  <unicode hex="006C"/>
  <anchor x="464" y="1598" name="top"/>
  <anchor x="161" y="-150" name="bottom"/>
  <anchor x="564" y="1448" name="right"/>
  <anchor x="613" y="700" name="eldot"/>
  <outline>
    <contour>
      <point x="63" y="0" type="line"/>
      <point x="311" y="0" type="line"/>
      <point x="564" y="1448" type="line"/>
      <point x="316" y="1448" type="line"/>
    </contour>
  </outline>
</glyph>
<glyph name="exclamdown" format="2">
  <advance width="734"/>
  <unicode hex="00A1"/>
  <outline>
    <contour>
      <point x="558" y="881" type="line" smooth="yes"/>
      <point x="573.092" y="969.288"/>
      <point x="547.288" y="1000"/>
      <point x="459" y="1000" type="qcurve" smooth="yes"/>
      <point x="383" y="1000" type="line" smooth="yes"/>
      <point x="295.25" y="1000"/>
      <point x="258" y="968.75"/>
      <point x="243" y="881" type="qcurve" smooth="yes"/>
      <point x="229" y="802" type="line" smooth="yes"/>
      <point x="213.908" y="715.221"/>
      <point x="239.712" y="685"/>
      <point x="328" y="685" type="qcurve" smooth="yes"/>
      <point x="404" y="685" type="line" smooth="yes"/>
      <point x="491.75" y="685"/>
      <point x="529" y="715.75"/>
      <point x="544" y="802" type="qcurve" smooth="yes"/>
    </contour>
    <contour>
      <point x="429" y="530" type="line"/>
      <point x="248" y="530" type="line"/>
      <point x="-11" y="-408" type="line"/>
      <point x="362" y="-408" type="line"/>
    </contour>
  </outline>
</glyph>
<glyph name="ordfeminine" format="2">
  <advance width="964"/>
  <unicode hex="00AA"/>
  <outline>
    <contour>
      <point x="293" y="776" type="qcurve" smooth="yes"/>
      <point x="482" y="776" type="line" smooth="yes"/>
      <point x="543.123" y="776"/>
      <point x="647.834" y="820.632"/>
      <point x="675" y="881" type="qcurve"/>
      <point x="658" y="783" type="line"/>
      <point x="858" y="783" type="line"/>
      <point x="950" y="1309" type="line" smooth="yes"/>
      <point x="965.092" y="1395.78"/>
      <point x="880.46" y="1448"/>
      <point x="805" y="1448" type="qcurve" smooth="yes"/>
      <point x="421" y="1448" type="line" smooth="yes"/>
      <point x="346.295" y="1448"/>
      <point x="244.337" y="1395.52"/>
      <point x="230" y="1311" type="qcurve" smooth="yes"/>
      <point x="225" y="1282" type="line"/>
      <point x="418" y="1245" type="line"/>
      <point x="428" y="1298" type="line"/>
      <point x="428" y="1298"/>
      <point x="428" y="1298"/>
      <point x="428" y="1298" type="qcurve"/>
      <point x="748" y="1298" type="line"/>
      <point x="748" y="1298"/>
      <point x="748" y="1298"/>
      <point x="748" y="1298" type="qcurve"/>
      <point x="726" y="1176" type="line"/>
      <point x="382" y="1176" type="line" smooth="yes"/>
      <point x="308.049" y="1176"/>
      <point x="186.092" y="1126.52"/>
      <point x="171" y="1042" type="qcurve" smooth="yes"/>
      <point x="149" y="917" type="line" smooth="yes"/>
      <point x="133.908" y="830.976"/>
      <point x="215.276" y="776"/>
    </contour>
    <contour>
      <point x="350" y="919" type="qcurve"/>
      <point x="370" y="1038" type="line"/>
      <point x="370" y="1038"/>
      <point x="370" y="1038"/>
      <point x="370" y="1038" type="qcurve"/>
      <point x="702" y="1038" type="line"/>
      <point x="682" y="919" type="line"/>
      <point x="350" y="919" type="line"/>
      <point x="350" y="919"/>
      <point x="350" y="919"/>
    </contour>
  </outline>
</glyph>
<glyph name="logicalnot" format="2">
  <advance width="1438"/>
  <unicode hex="00AC"/>
  <outline>
    <contour>
      <point x="1237" y="273" type="line"/>
      <point x="1346" y="901" type="line"/>
      <point x="168" y="901" type="line"/>
      <point x="132" y="693" type="line"/>
      <point x="1086" y="693" type="line"/>
      <point x="1013" y="273" type="line"/>
    </contour>
  </outline>
</glyph>
<glyph name="uni00B5" format="2">
  <advance width="1394"/>
  <unicode hex="00B5"/>
  <outline>
    <contour>
      <point x="-13" y="-428" type="line"/>
      <point x="205" y="-383" type="line"/>
      <point x="291" y="110" type="line"/>
      <point x="302.319" y="54.9142"/>
      <point x="411.638" y="0"/>
      <point x="512" y="0" type="qcurve" smooth="yes"/>
      <point x="584" y="0" type="line" smooth="yes"/>
      <point x="674.552" y="0"/>
      <point x="830.497" y="57.9388"/>
      <point x="872" y="150" type="qcurve"/>
      <point x="846" y="0" type="line"/>
      <point x="1094" y="0" type="line"/>
      <point x="1269" y="1000" type="line"/>
      <point x="1021" y="1000" type="line"/>
      <point x="885" y="224" type="line"/>
      <point x="885" y="224"/>
      <point x="885" y="224"/>
      <point x="885" y="224" type="qcurve"/>
      <point x="349" y="224" type="line"/>
      <point x="349" y="224"/>
      <point x="349" y="224"/>
      <point x="349" y="224" type="qcurve"/>
      <point x="485" y="1000" type="line"/>
      <point x="237" y="1000" type="line"/>
    </contour>
  </outline>
</glyph>
<glyph name="paragraph" format="2">
  <advance width="1168"/>
  <unicode hex="00B6"/>
  <outline>
    <contour>
      <point x="848" y="0" type="line"/>
      <point x="1092" y="1400" type="line"/>
      <point x="550" y="1400" type="line" smooth="yes"/>
      <point x="398.5" y="1400"/>
      <point x="188.25" y="1297"/>
      <point x="159" y="1126" type="qcurve" smooth="yes"/>
      <point x="100" y="788" type="line" smooth="yes"/>
      <point x="88.375" y="722.75"/>
      <point x="113.906" y="625.188"/>
      <point x="188.344" y="560.312"/>
      <point x="311.75" y="528"/>
      <point x="398" y="528" type="qcurve" smooth="yes"/>
      <point x="676" y="528" type="line"/>
      <point x="584" y="0" type="line"/>
      <point x="664" y="0" type="line"/>
      <point x="889" y="1288" type="line"/>
      <point x="993" y="1288" type="line"/>
      <point x="768" y="0" type="line"/>
    </contour>
  </outline>
  <guideline angle="90" color="0.4,0.4,0.4,1" name="halfwidth" x="584" y="0"/>
</glyph>
<glyph name="periodcentered" format="2">
  <advance width="655"/>
  <unicode hex="00B7"/>
  <outline>
    <contour>
      <point x="159" y="566" type="line" smooth="yes"/>
      <point x="143.153" y="477.712"/>
      <point x="168.712" y="447"/>
      <point x="257" y="447" type="qcurve" smooth="yes"/>
      <point x="313" y="447" type="line" smooth="yes"/>
      <point x="400.75" y="447"/>
      <point x="438.25" y="478.25"/>
      <point x="454" y="566" type="qcurve" smooth="yes"/>
      <point x="464" y="625" type="line" smooth="yes"/>
      <point x="479.092" y="711.779"/>
      <point x="453.288" y="742"/>
      <point x="365" y="742" type="qcurve" smooth="yes"/>
      <point x="309" y="742" type="line" smooth="yes"/>
      <point x="221.25" y="742"/>
      <point x="184" y="711.25"/>
      <point x="169" y="625" type="qcurve" smooth="yes"/>
    </contour>
  </outline>
</glyph>
<glyph name="ordmasculine" format="2">
  <advance width="987"/>
  <unicode hex="00BA"/>
  <outline>
    <contour>
      <point x="158" y="924" type="line" smooth="yes"/>
      <point x="144.417" y="844.012"/>
      <point x="213.675" y="776"/>
      <point x="308" y="776" type="qcurve" smooth="yes"/>
      <point x="715" y="776" type="line" smooth="yes"/>
      <point x="810.08" y="776"/>
      <point x="901.417" y="844.012"/>
      <point x="915" y="924" type="qcurve" smooth="yes"/>
      <point x="982" y="1308" type="line" smooth="yes"/>
      <point x="995.583" y="1381.95"/>
      <point x="924.816" y="1448"/>
      <point x="832" y="1448" type="qcurve" smooth="yes"/>
      <point x="425" y="1448" type="line" smooth="yes"/>
      <point x="331.43" y="1448"/>
      <point x="238.583" y="1381.95"/>
      <point x="225" y="1308" type="qcurve" smooth="yes"/>
    </contour>
    <contour>
      <point x="362" y="945" type="qcurve"/>
      <point x="420" y="1279" type="line"/>
      <point x="420" y="1279"/>
      <point x="420" y="1279"/>
      <point x="420" y="1279" type="qcurve"/>
      <point x="777" y="1279" type="line"/>
      <point x="777" y="1279"/>
      <point x="777" y="1279"/>
      <point x="777" y="1279" type="qcurve"/>
      <point x="719" y="945" type="line"/>
      <point x="719" y="945"/>
      <point x="719" y="945"/>
      <point x="719" y="945" type="qcurve"/>
      <point x="362" y="945" type="line"/>
      <point x="362" y="945"/>
      <point x="362" y="945"/>
    </contour>
  </outline>
</glyph>
<glyph name="onequarter" format="2">
  <advance width="1818"/>
  <unicode hex="00BC"/>
  <outline>
    <contour>
      <point x="220" y="614" type="line"/>
      <point x="420" y="614" type="line"/>
      <point x="558" y="1407" type="line"/>
      <point x="179" y="1330" type="line"/>
      <point x="158" y="1208" type="line"/>
      <point x="324" y="1211" type="line"/>
    </contour>
    <contour>
      <point x="1180" y="1400" type="line"/>
      <point x="8" y="0" type="line"/>
      <point x="231" y="0" type="line"/>
      <point x="1403" y="1400" type="line"/>
    </contour>
    <contour>
      <point x="709" y="159" type="line"/>
      <point x="1257" y="159" type="line"/>
      <point x="1229" y="0" type="line"/>
      <point x="1429" y="0" type="line"/>
      <point x="1457" y="159" type="line"/>
      <point x="1622" y="159" type="line"/>
      <point x="1653" y="337" type="line"/>
      <point x="1488" y="337" type="line"/>
      <point x="1567" y="791" type="line"/>
      <point x="1381" y="791" type="line"/>
      <point x="739" y="331" type="line"/>
    </contour>
    <contour>
      <point x="1019" y="337" type="line"/>
      <point x="1325" y="557" type="line"/>
      <point x="1288" y="337" type="line"/>
    </contour>
  </outline>
  <guideline angle="90" color="0.4,0.4,0.4,1" name="halfwidth" x="909" y="0"/>
</glyph>
<glyph name="onehalf" format="2">
  <advance width="1858"/>
  <unicode hex="00BD"/>
  <outline>
    <contour>
      <point x="220" y="614" type="line"/>
      <point x="420" y="614" type="line"/>
      <point x="558" y="1407" type="line"/>
      <point x="179" y="1330" type="line"/>
      <point x="158" y="1208" type="line"/>
      <point x="324" y="1211" type="line"/>
    </contour>
    <contour>
      <point x="1180" y="1400" type="line"/>
      <point x="8" y="0" type="line"/>
      <point x="231" y="0" type="line"/>
      <point x="1403" y="1400" type="line"/>
    </contour>
    <contour>
      <point x="823" y="0" type="line"/>
      <point x="1393" y="0" type="line" smooth="yes"/>
      <point x="1490.34" y="0"/>
      <point x="1620.13" y="59.0922"/>
      <point x="1639" y="167" type="qcurve" smooth="yes"/>
      <point x="1653" y="247" type="line"/>
      <point x="1456" y="278" type="line"/>
      <point x="1438" y="178" type="line"/>
      <point x="1438" y="178"/>
      <point x="1438" y="178"/>
      <point x="1438" y="178" type="qcurve"/>
      <point x="1057" y="178" type="line"/>
      <point x="1058" y="186" type="line"/>
      <point x="1060.26" y="198.074"/>
      <point x="1087.83" y="214.19"/>
      <point x="1115" y="224" type="qcurve" smooth="yes"/>
      <point x="1556" y="381" type="line" smooth="yes"/>
      <point x="1591.47" y="393.828"/>
      <point x="1660.7" y="469.706"/>
      <point x="1669" y="518" type="qcurve" smooth="yes"/>
      <point x="1695" y="665" type="line" smooth="yes"/>
      <point x="1706.32" y="729.896"/>
      <point x="1623.08" y="795"/>
      <point x="1528" y="795" type="qcurve" smooth="yes"/>
      <point x="1163" y="795" type="line" smooth="yes"/>
      <point x="1068.67" y="795"/>
      <point x="959.319" y="719.65"/>
      <point x="948" y="654" type="qcurve" smooth="yes"/>
      <point x="923" y="508" type="line"/>
      <point x="1119" y="468" type="line"/>
      <point x="1145" y="617" type="line"/>
      <point x="1145" y="617"/>
      <point x="1145" y="617"/>
      <point x="1145" y="617" type="qcurve"/>
      <point x="1484" y="617" type="line"/>
      <point x="1484" y="617"/>
      <point x="1484" y="617"/>
      <point x="1484" y="617" type="qcurve"/>
      <point x="1473" y="555" type="line" smooth="yes"/>
      <point x="1470.74" y="542.926"/>
      <point x="1468.81" y="531.773"/>
      <point x="1459" y="528" type="qcurve"/>
      <point x="983" y="358" type="line" smooth="yes"/>
      <point x="936.969" y="341.399"/>
      <point x="868.301" y="260.049"/>
      <point x="860" y="211" type="qcurve" smooth="yes"/>
    </contour>
  </outline>
  <guideline angle="90" color="0.4,0.4,0.4,1" name="halfwidth" x="929" y="0"/>
</glyph>
<glyph name="Agrave" format="2">
  <advance width="1654"/>
  <unicode hex="00C0"/>
  <anchor x="979" y="1550" name="top"/>
  <anchor x="682" y="-150" name="bottom"/>
  <anchor x="1222" y="0" name="ogonek_in"/>
  <anchor x="1115" y="1485" name="topright"/>
  <outline>
    <contour>
      <point x="-120" y="0" type="line"/>
      <point x="175" y="0" type="line"/>
      <point x="399" y="326" type="line"/>
      <point x="1117" y="326" type="line"/>
      <point x="1227" y="0" type="line"/>
      <point x="1534" y="0" type="line"/>
      <point x="1050" y="1400" type="line"/>
      <point x="842" y="1400" type="line"/>
    </contour>
    <contour>
      <point x="564" y="566" type="line"/>
      <point x="880" y="1025" type="line"/>
      <point x="1036" y="566" type="line"/>
    </contour>
    <contour>
      <point x="907" y="1485" type="line"/>
      <point x="1135" y="1485" type="line"/>
      <point x="904" y="1800" type="line"/>
      <point x="630" y="1800" type="line"/>
    </contour>
  </outline>
</glyph>
<glyph name="Ccedilla" format="2">
  <advance width="1608"/>
  <unicode hex="00C7"/>
  <anchor x="979" y="1564" name="top"/>
  <anchor x="677" y="-164" name="bottom"/>
  <outline>
    <contour>
      <point x="252" y="1140" type="qcurve" smooth="yes"/>
      <point x="100" y="272" type="line" smooth="yes"/>
      <point x="73.589" y="116.552"/>
      <point x="205.859" y="-14"/>
      <point x="393" y="-14" type="qcurve" smooth="yes"/>
      <point x="1019" y="-14" type="line" smooth="yes"/>
      <point x="1206.14" y="-14"/>
      <point x="1385.59" y="116.552"/>
      <point x="1412" y="272" type="qcurve" smooth="yes"/>
      <point x="1448" y="478" type="line"/>
      <point x="1194" y="530" type="line"/>
      <point x="1141" y="230" type="line"/>
      <point x="1141" y="230"/>
      <point x="1141" y="230"/>
      <point x="1141" y="230" type="qcurve"/>
      <point x="357" y="230" type="line"/>
      <point x="357" y="230"/>
      <point x="357" y="230"/>
      <point x="357" y="230" type="qcurve"/>
      <point x="521" y="1170" type="line"/>
      <point x="521" y="1170"/>
      <point x="521" y="1170"/>
      <point x="521" y="1170" type="qcurve"/>
      <point x="1297" y="1170" type="line"/>
      <point x="1297" y="1170"/>
      <point x="1297" y="1170"/>
      <point x="1297" y="1170" type="qcurve"/>
      <point x="1249" y="896" type="line"/>
      <point x="1522" y="944" type="line"/>
      <point x="1556" y="1140" type="line" smooth="yes"/>
      <point x="1581.5" y="1287"/>
      <point x="1444.5" y="1414"/>
      <point x="1260" y="1414" type="qcurve" smooth="yes"/>
      <point x="642" y="1414" type="line" smooth="yes"/>
      <point x="459" y="1414"/>
      <point x="277.5" y="1287"/>
    </contour>
    <contour>
      <point x="616" y="-452" type="qcurve" smooth="yes"/>
      <point x="663.625" y="-452"/>
      <point x="744.875" y="-433.719"/>
      <point x="807.125" y="-396.031"/>
      <point x="847.875" y="-338.375"/>
      <point x="855" y="-299" type="qcurve" smooth="yes"/>
      <point x="862.5" y="-256.25"/>
      <point x="846.938" y="-187.406"/>
      <point x="803.062" y="-138.844"/>
      <point x="732" y="-112.375"/>
      <point x="684" y="-112" type="qcurve"/>
      <point x="746" y="-14" type="line"/>
      <point x="660" y="-14" type="line"/>
      <point x="520" y="-234" type="line"/>
      <point x="545.656" y="-226.454"/>
      <point x="590.362" y="-219"/>
      <point x="613" y="-219" type="qcurve" smooth="yes"/>
      <point x="648.466" y="-219"/>
      <point x="683.037" y="-247.816"/>
      <point x="677" y="-278" type="qcurve"/>
      <point x="672.472" y="-307.429"/>
      <point x="627.466" y="-340"/>
      <point x="592" y="-340" type="qcurve" smooth="yes"/>
      <point x="570.117" y="-340"/>
      <point x="527.564" y="-328.546"/>
      <point x="517" y="-321" type="qcurve"/>
      <point x="456" y="-402" type="line"/>
      <point x="485.429" y="-426.147"/>
      <point x="563.178" y="-452"/>
    </contour>
  </outline>
</glyph>
<glyph name="Ecircumflex" format="2">
  <advance width="1568"/>
  <unicode hex="00CA"/>
  <anchor x="1039" y="1880" name="top"/>
  <anchor x="683" y="-150" name="bottom"/>
  <anchor x="1261" y="0" name="ogonek"/>
  <anchor x="1399" y="1585" name="topright"/>
  <outline>
    <contour>
      <point x="83" y="0" type="line"/>
      <point x="1341" y="0" type="line"/>
      <point x="1384" y="244" type="line"/>
      <point x="390" y="244" type="line"/>
      <point x="451" y="596" type="line"/>
      <point x="1039" y="596" type="line"/>
      <point x="1082" y="840" type="line"/>
      <point x="494" y="840" type="line"/>
      <point x="549" y="1156" type="line"/>
      <point x="1523" y="1156" type="line"/>
      <point x="1565" y="1400" type="line"/>
      <point x="327" y="1400" type="line"/>
    </contour>
    <contour>
      <point x="558" y="1485" type="line"/>
      <point x="826" y="1485" type="line"/>
      <point x="1011" y="1677" type="line"/>
      <point x="1147" y="1485" type="line"/>
      <point x="1381" y="1485" type="line"/>
      <point x="1134" y="1800" type="line"/>
      <point x="917" y="1800" type="line"/>
    </contour>
  </outline>
  <guideline angle="90" x="-227" y="0"/>
</glyph>
<glyph name="Iacute" format="2">
  <advance width="664"/>
  <unicode hex="00CD"/>
  <anchor x="483" y="1550" name="top"/>
  <anchor x="186" y="-150" name="bottom"/>
  <anchor x="276" y="0" name="ogonek"/>
  <anchor x="325" y="1485" name="topright"/>
  <outline>
    <contour>
      <point x="83" y="0" type="line"/>
      <point x="347" y="0" type="line"/>
      <point x="591" y="1400" type="line"/>
      <point x="327" y="1400" type="line"/>
    </contour>
    <contour>
      <point x="251" y="1485" type="line"/>
      <point x="533" y="1485" type="line"/>
      <point x="921" y="1800" type="line"/>
      <point x="593" y="1800" type="line"/>
    </contour>
  </outline>
</glyph>
<glyph name="Ntilde" format="2">
  <advance width="1830"/>
  <unicode hex="00D1"/>
  <anchor x="1121" y="1860" name="top"/>
  <anchor x="769" y="-150" name="bottom"/>
  <outline>
    <contour>
      <point x="83" y="0" type="line"/>
      <point x="327" y="0" type="line"/>
      <point x="498" y="980" type="line"/>
      <point x="1309" y="0" type="line"/>
      <point x="1513" y="0" type="line"/>
      <point x="1757" y="1400" type="line"/>
      <point x="1513" y="1400" type="line"/>
      <point x="1342" y="421" type="line"/>
      <point x="531" y="1400" type="line"/>
      <point x="327" y="1400" type="line"/>
    </contour>
    <contour>
      <point x="658" y="1550" type="qcurve"/>
      <point x="821" y="1521" type="line"/>
      <point x="840.62" y="1573.82"/>
      <point x="899.325" y="1599"/>
      <point x="928" y="1599" type="qcurve" smooth="yes"/>
      <point x="958.75" y="1599"/>
      <point x="1022.16" y="1574.31"/>
      <point x="1092.09" y="1544.69"/>
      <point x="1170.88" y="1520"/>
      <point x="1217" y="1520" type="qcurve" smooth="yes"/>
      <point x="1254.88" y="1520"/>
      <point x="1336.53" y="1540.75"/>
      <point x="1414.72" y="1594.75"/>
      <point x="1484.75" y="1688.25"/>
      <point x="1511" y="1761" type="qcurve"/>
      <point x="1349" y="1790" type="line"/>
      <point x="1328.63" y="1737.18"/>
      <point x="1270.67" y="1711"/>
      <point x="1242" y="1711" type="qcurve" smooth="yes"/>
      <point x="1211.25" y="1711"/>
      <point x="1147.84" y="1735.69"/>
      <point x="1077.91" y="1765.31"/>
      <point x="999.125" y="1790"/>
      <point x="953" y="1790" type="qcurve" smooth="yes"/>
      <point x="915.125" y="1790"/>
      <point x="832.875" y="1769"/>
      <point x="754.125" y="1715"/>
      <point x="683.875" y="1622"/>
    </contour>
  </outline>
</glyph>
<glyph name="multiply" format="2">
  <advance width="1438"/>
  <unicode hex="00D7"/>
  <outline>
    <contour>
      <point x="269" y="82" type="line"/>
      <point x="690" y="449" type="line"/>
      <point x="987" y="82" type="line"/>
      <point x="1145" y="217" type="line"/>
      <point x="848" y="576" type="line"/>
      <point x="1271" y="935" type="line"/>
      <point x="1138" y="1095" type="line"/>
      <point x="719" y="732" type="line"/>
      <point x="420" y="1095" type="line"/>
      <point x="262" y="960" type="line"/>
      <point x="557" y="601" type="line"/>
      <point x="136" y="242" type="line"/>
    </contour>
  </outline>
  <guideline angle="40.4152" color="1,0,0,1" x="270" y="82"/>
  <guideline angle="309.544" color="1,0,0,1" x="273" y="948"/>
</glyph>
<glyph name="edieresis" format="2">
  <advance width="1375"/>
  <unicode hex="00EB"/>
  <anchor x="823" y="1460" name="top"/>
  <anchor x="542" y="-150" name="bottom"/>
  <anchor x="784" y="-10" name="ogonek"/>
  <outline>
    <contour>
      <point x="78" y="250" type="line" smooth="yes"/>
      <point x="53.0982" y="108.135"/>
      <point x="179.08" y="-10"/>
      <point x="330" y="-10" type="qcurve" smooth="yes"/>
      <point x="786" y="-10" type="line" smooth="yes"/>
      <point x="958.049" y="-10"/>
      <point x="1125.1" y="109.644"/>
      <point x="1150" y="250" type="qcurve"/>
      <point x="1151" y="260" type="line"/>
      <point x="911" y="304" type="line"/>
      <point x="892" y="194" type="line"/>
      <point x="892" y="194"/>
      <point x="892" y="194"/>
      <point x="892" y="194" type="qcurve"/>
      <point x="316" y="194" type="line"/>
      <point x="316" y="194"/>
      <point x="316" y="194"/>
      <point x="316" y="194" type="qcurve"/>
      <point x="352" y="402" type="line"/>
      <point x="1176" y="402" type="line"/>
      <point x="1243" y="786" type="line" smooth="yes"/>
      <point x="1261.87" y="894.662"/>
      <point x="1147.34" y="1010"/>
      <point x="1010" y="1010" type="qcurve" smooth="yes"/>
      <point x="480" y="1010" type="line" smooth="yes"/>
      <point x="342.663" y="1010"/>
      <point x="190.865" y="897.153"/>
      <point x="172" y="790" type="qcurve" smooth="yes"/>
    </contour>
    <contour>
      <point x="388" y="606" type="line"/>
      <point x="423" y="806" type="line"/>
      <point x="423" y="806"/>
      <point x="423" y="806"/>
      <point x="423" y="806" type="qcurve"/>
      <point x="999" y="806" type="line"/>
      <point x="999" y="806"/>
      <point x="999" y="806"/>
      <point x="999" y="806" type="qcurve"/>
      <point x="964" y="606" type="line"/>
    </contour>
    <contour>
      <point x="538" y="1146" type="qcurve" smooth="yes"/>
      <point x="598" y="1146" type="line" smooth="yes"/>
      <point x="664.405" y="1146"/>
      <point x="691.926" y="1169.6"/>
      <point x="704" y="1236" type="qcurve" smooth="yes"/>
      <point x="715" y="1298" type="line" smooth="yes"/>
      <point x="726.319" y="1362.9"/>
      <point x="706.405" y="1386"/>
      <point x="640" y="1386" type="qcurve" smooth="yes"/>
      <point x="580" y="1386" type="line" smooth="yes"/>
      <point x="513.595" y="1386"/>
      <point x="486.319" y="1362.9"/>
      <point x="475" y="1298" type="qcurve" smooth="yes"/>
      <point x="464" y="1236" type="line" smooth="yes"/>
      <point x="451.926" y="1169.6"/>
      <point x="471.595" y="1146"/>
    </contour>
    <contour>
      <point x="938" y="1146" type="qcurve" smooth="yes"/>
      <point x="998" y="1146" type="line" smooth="yes"/>
      <point x="1064.4" y="1146"/>
      <point x="1091.93" y="1169.6"/>
      <point x="1104" y="1236" type="qcurve" smooth="yes"/>
      <point x="1115" y="1298" type="line" smooth="yes"/>
      <point x="1126.32" y="1362.9"/>
      <point x="1106.4" y="1386"/>
      <point x="1040" y="1386" type="qcurve" smooth="yes"/>
      <point x="980" y="1386" type="line" smooth="yes"/>
      <point x="913.595" y="1386"/>
      <point x="886.319" y="1362.9"/>
      <point x="875" y="1298" type="qcurve" smooth="yes"/>
      <point x="864" y="1236" type="line" smooth="yes"/>
      <point x="851.926" y="1169.6"/>
      <point x="871.595" y="1146"/>
    </contour>
  </outline>
  <guideline angle="0" color="1,0,0,1" x="0" y="-1010"/>
</glyph>
<glyph name="icircumflex" format="2">
  <advance width="610"/>
  <unicode hex="00EE"/>
  <anchor x="160" y="-150" name="bottom"/>
  <anchor x="457" y="1548" name="top"/>
  <anchor x="258" y="0" name="ogonek"/>
  <anchor x="792" y="1267" name="topright"/>
  <outline>
    <contour>
      <point x="62" y="0" type="line"/>
      <point x="310" y="0" type="line"/>
      <point x="485" y="1000" type="line"/>
      <point x="237" y="1000" type="line"/>
    </contour>
    <contour>
      <point x="-7" y="1085" type="line"/>
      <point x="230" y="1085" type="line"/>
      <point x="426" y="1305" type="line"/>
      <point x="551" y="1085" type="line"/>
      <point x="760" y="1085" type="line"/>
      <point x="522" y="1448" type="line"/>
      <point x="361" y="1448" type="line"/>
    </contour>
  </outline>
</glyph>
<glyph name="eth" format="2">
  <advance width="1399"/>
  <unicode hex="00F0"/>
  <outline>
    <contour>
      <point x="288" y="-10" type="qcurve" smooth="yes"/>
      <point x="868" y="-10" type="line" smooth="yes"/>
      <point x="1008.36" y="-10"/>
      <point x="1142.38" y="87.7916"/>
      <point x="1162" y="204" type="qcurve" smooth="yes"/>
      <point x="1227" y="581" type="line" smooth="yes"/>
      <point x="1266.99" y="813.417"/>
      <point x="1202.53" y="1132.11"/>
      <point x="1115" y="1237" type="qcurve"/>
      <point x="1350" y="1298" type="line"/>
      <point x="1338" y="1424" type="line"/>
      <point x="1005" y="1338" type="line"/>
      <point x="943.877" y="1380.26"/>
      <point x="800.497" y="1439.13"/>
      <point x="719" y="1458" type="qcurve"/>
      <point x="467" y="1384" type="line"/>
      <point x="543.215" y="1362.12"/>
      <point x="675.16" y="1303.98"/>
      <point x="731" y="1267" type="qcurve"/>
      <point x="491" y="1205" type="line"/>
      <point x="503" y="1079" type="line"/>
      <point x="848" y="1168" type="line"/>
      <point x="879.693" y="1133.29"/>
      <point x="929.89" y="1054.52"/>
      <point x="948" y="1010" type="qcurve"/>
      <point x="466" y="1010" type="line" smooth="yes"/>
      <point x="328.663" y="1010"/>
      <point x="193.865" y="914.662"/>
      <point x="175" y="806" type="qcurve" smooth="yes"/>
      <point x="70" y="204" type="line" smooth="yes"/>
      <point x="49.6258" y="87.7916"/>
      <point x="149.154" y="-10"/>
    </contour>
    <contour>
      <point x="995" y="786" type="line"/>
      <point x="996.509" y="738.46"/>
      <point x="988.81" y="636.84"/>
      <point x="979" y="581" type="qcurve" smooth="yes"/>
      <point x="915" y="214" type="line"/>
      <point x="915" y="214"/>
      <point x="915" y="214"/>
      <point x="915" y="214" type="qcurve"/>
      <point x="319" y="214" type="line"/>
      <point x="319" y="214"/>
      <point x="319" y="214"/>
      <point x="319" y="214" type="qcurve"/>
      <point x="419" y="786" type="line"/>
      <point x="419" y="786"/>
      <point x="419" y="786"/>
      <point x="419" y="786" type="qcurve"/>
    </contour>
  </outline>
</glyph>
<glyph name="ntilde" format="2">
  <advance width="1377"/>
  <unicode hex="00F1"/>
  <anchor x="833" y="1475" name="top"/>
  <anchor x="549" y="-150" name="bottom"/>
  <outline>
    <contour>
      <point x="60" y="0" type="line"/>
      <point x="308" y="0" type="line"/>
      <point x="445" y="786" type="line"/>
      <point x="981" y="786" type="line"/>
      <point x="981" y="786"/>
      <point x="981" y="786"/>
      <point x="981" y="786" type="qcurve"/>
      <point x="844" y="0" type="line"/>
      <point x="1092" y="0" type="line"/>
      <point x="1225" y="760" type="line" smooth="yes"/>
      <point x="1248.25" y="893.5"/>
      <point x="1119.5" y="1010"/>
      <point x="950" y="1010" type="qcurve" smooth="yes"/>
      <point x="766" y="1010" type="line" smooth="yes"/>
      <point x="648.282" y="1010"/>
      <point x="505.239" y="957.313"/>
      <point x="466" y="906" type="qcurve"/>
      <point x="483" y="1000" type="line"/>
      <point x="235" y="1000" type="line"/>
    </contour>
    <contour>
      <point x="379" y="1169" type="qcurve"/>
      <point x="544" y="1141" type="line"/>
      <point x="563.62" y="1193.82"/>
      <point x="623.325" y="1230"/>
      <point x="652" y="1230" type="qcurve" smooth="yes"/>
      <point x="682.75" y="1230"/>
      <point x="743.031" y="1201.88"/>
      <point x="809.219" y="1168.12"/>
      <point x="884.875" y="1140"/>
      <point x="931" y="1140" type="qcurve" smooth="yes"/>
      <point x="999.25" y="1140"/>
      <point x="1163.5" y="1236.5"/>
      <point x="1216" y="1382" type="qcurve"/>
      <point x="1051" y="1410" type="line"/>
      <point x="1031.38" y="1357.18"/>
      <point x="971.675" y="1321"/>
      <point x="943" y="1321" type="qcurve" smooth="yes"/>
      <point x="912.25" y="1321"/>
      <point x="851.969" y="1348.81"/>
      <point x="785.781" y="1382.19"/>
      <point x="710.125" y="1410"/>
      <point x="664" y="1410" type="qcurve" smooth="yes"/>
      <point x="595.75" y="1410"/>
      <point x="430.75" y="1313"/>
    </contour>
  </outline>
  <guideline angle="0" x="0" y="988"/>
  <guideline angle="0" x="0" y="870"/>
</glyph>
<glyph name="Aogonek" format="2">
  <advance width="1654"/>
  <unicode hex="0104"/>
  <anchor x="979" y="1550" name="top"/>
  <anchor x="682" y="-150" name="bottom"/>
  <anchor x="1222" y="0" name="ogonek_in"/>
  <outline>
    <contour>
      <point x="-120" y="0" type="line"/>
      <point x="175" y="0" type="line"/>
      <point x="399" y="326" type="line"/>
      <point x="1117" y="326" type="line"/>
      <point x="1227" y="0" type="line"/>
      <point x="1534" y="0" type="line"/>
      <point x="1050" y="1400" type="line"/>
      <point x="842" y="1400" type="line"/>
    </contour>
    <contour>
      <point x="564" y="566" type="line"/>
      <point x="880" y="1025" type="line"/>
      <point x="1036" y="566" type="line"/>
    </contour>
    <contour>
      <point x="1220.34" y="-439" type="qcurve" smooth="yes"/>
      <point x="1270.67" y="-439"/>
      <point x="1343.23" y="-418.62"/>
      <point x="1387" y="-399" type="qcurve"/>
      <point x="1458" y="-209" type="line"/>
      <point x="1427.06" y="-224.092"/>
      <point x="1365.68" y="-239"/>
      <point x="1337.03" y="-239" type="qcurve" smooth="yes"/>
      <point x="1282.68" y="-239"/>
      <point x="1226.48" y="-188.788"/>
      <point x="1234.11" y="-145.085" type="qcurve" smooth="yes"/>
      <point x="1243.08" y="-93.708"/>
      <point x="1345.56" y="-12.0736"/>
      <point x="1418" y="0" type="qcurve"/>
      <point x="1222" y="0" type="line"/>
      <point x="1125.41" y="-36.9754"/>
      <point x="1000.05" y="-175.329"/>
      <point x="990.966" y="-253.217" type="qcurve" smooth="yes"/>
      <point x="980.427" y="-343.605"/>
      <point x="1111.45" y="-439"/>
    </contour>
  </outline>
</glyph>
<glyph name="aogonek" format="2">
  <advance width="1346"/>
  <unicode hex="0105"/>
  <anchor x="752" y="1150" name="top"/>
  <anchor x="515" y="-150" name="bottom"/>
  <anchor x="1009" y="0" name="ogonek"/>
  <outline>
    <contour>
      <point x="267" y="-10" type="qcurve" smooth="yes"/>
      <point x="551" y="-10" type="line" smooth="yes"/>
      <point x="641.552" y="-10"/>
      <point x="799.497" y="57.9388"/>
      <point x="841" y="150" type="qcurve"/>
      <point x="815" y="0" type="line"/>
      <point x="1063" y="0" type="line"/>
      <point x="1205" y="814" type="line" smooth="yes"/>
      <point x="1226.88" y="937.754"/>
      <point x="1103.17" y="1010"/>
      <point x="993" y="1010" type="qcurve" smooth="yes"/>
      <point x="459" y="1010" type="line" smooth="yes"/>
      <point x="348.828" y="1010"/>
      <point x="200.883" y="937.754"/>
      <point x="179" y="814" type="qcurve" smooth="yes"/>
      <point x="170" y="764" type="line"/>
      <point x="410" y="718" type="line"/>
      <point x="426" y="806" type="line"/>
      <point x="426" y="806"/>
      <point x="426" y="806"/>
      <point x="426" y="806" type="qcurve"/>
      <point x="956" y="806" type="line"/>
      <point x="956" y="806"/>
      <point x="956" y="806"/>
      <point x="956" y="806" type="qcurve"/>
      <point x="919" y="598" type="line"/>
      <point x="413" y="598" type="line" smooth="yes"/>
      <point x="303.5" y="598"/>
      <point x="115" y="527"/>
      <point x="94" y="404" type="qcurve" smooth="yes"/>
      <point x="57" y="194" type="line" smooth="yes"/>
      <point x="35.1166" y="67.2272"/>
      <point x="150.792" y="-10"/>
    </contour>
    <contour>
      <point x="305" y="194" type="qcurve"/>
      <point x="340" y="394" type="line"/>
      <point x="340" y="394"/>
      <point x="340" y="394"/>
      <point x="340" y="394" type="qcurve"/>
      <point x="884" y="394" type="line"/>
      <point x="849" y="194" type="line"/>
      <point x="305" y="194" type="line"/>
      <point x="305" y="194"/>
      <point x="305" y="194"/>
    </contour>
    <contour>
      <point x="820" y="-428" type="qcurve" smooth="yes"/>
      <point x="865.276" y="-428"/>
      <point x="936.233" y="-407.62"/>
      <point x="980" y="-388" type="qcurve"/>
      <point x="1049" y="-209" type="line"/>
      <point x="1018.82" y="-224.092"/>
      <point x="957.599" y="-239"/>
      <point x="928.69" y="-239" type="qcurve" smooth="yes"/>
      <point x="873.084" y="-239"/>
      <point x="817.59" y="-187.813"/>
      <point x="825.553" y="-144.189" type="qcurve" smooth="yes"/>
      <point x="834.945" y="-92.7336"/>
      <point x="937.313" y="-12.0736"/>
      <point x="1009" y="0" type="qcurve"/>
      <point x="813" y="0" type="line"/>
      <point x="726.976" y="-33.957"/>
      <point x="608.939" y="-159.764"/>
      <point x="596.451" y="-229.762" type="qcurve" smooth="yes"/>
      <point x="580.264" y="-320.494"/>
      <point x="712.847" y="-428"/>
    </contour>
  </outline>
  <guideline angle="260.1" color="1,0,0,1" x="816" y="-0"/>
</glyph>
<glyph name="Ccaron" format="2">
  <advance width="1608"/>
  <unicode hex="010C"/>
  <anchor x="1037" y="1894" name="top"/>
  <anchor x="677" y="-164" name="bottom"/>
  <anchor x="590" y="1714" name="topright"/>
  <outline>
    <contour>
      <point x="252" y="1140" type="qcurve" smooth="yes"/>
      <point x="100" y="272" type="line" smooth="yes"/>
      <point x="73.589" y="116.552"/>
      <point x="205.859" y="-14"/>
      <point x="393" y="-14" type="qcurve" smooth="yes"/>
      <point x="1019" y="-14" type="line" smooth="yes"/>
      <point x="1206.14" y="-14"/>
      <point x="1385.59" y="116.552"/>
      <point x="1412" y="272" type="qcurve" smooth="yes"/>
      <point x="1448" y="478" type="line"/>
      <point x="1194" y="530" type="line"/>
      <point x="1141" y="230" type="line"/>
      <point x="1141" y="230"/>
      <point x="1141" y="230"/>
      <point x="1141" y="230" type="qcurve"/>
      <point x="357" y="230" type="line"/>
      <point x="357" y="230"/>
      <point x="357" y="230"/>
      <point x="357" y="230" type="qcurve"/>
      <point x="521" y="1170" type="line"/>
      <point x="521" y="1170"/>
      <point x="521" y="1170"/>
      <point x="521" y="1170" type="qcurve"/>
      <point x="1297" y="1170" type="line"/>
      <point x="1297" y="1170"/>
      <point x="1297" y="1170"/>
      <point x="1297" y="1170" type="qcurve"/>
      <point x="1249" y="896" type="line"/>
      <point x="1522" y="944" type="line"/>
      <point x="1556" y="1140" type="line" smooth="yes"/>
      <point x="1581.5" y="1287"/>
      <point x="1444.5" y="1414"/>
      <point x="1260" y="1414" type="qcurve" smooth="yes"/>
      <point x="642" y="1414" type="line" smooth="yes"/>
      <point x="459" y="1414"/>
      <point x="277.5" y="1287"/>
    </contour>
    <contour>
      <point x="1431" y="1814" type="line"/>
      <point x="1163" y="1814" type="line"/>
      <point x="978" y="1622" type="line"/>
      <point x="842" y="1814" type="line"/>
      <point x="608" y="1814" type="line"/>
      <point x="855" y="1499" type="line"/>
      <point x="1072" y="1499" type="line"/>
    </contour>
  </outline>
</glyph>
<glyph name="gbreve" format="2">
  <advance width="1400"/>
  <unicode hex="011F"/>
  <anchor x="830" y="1510" name="top"/>
  <anchor x="700" y="-578" name="bottom"/>
  <outline>
    <contour>
      <point x="319" y="214" type="qcurve"/>
      <point x="419" y="786" type="line"/>
      <point x="419" y="786"/>
      <point x="419" y="786"/>
      <point x="419" y="786" type="qcurve"/>
      <point x="1005" y="786" type="line"/>
      <point x="905" y="214" type="line"/>
      <point x="319" y="214" type="line"/>
      <point x="319" y="214"/>
      <point x="319" y="214"/>
    </contour>
    <contour>
      <point x="25" y="-428" type="line"/>
      <point x="727" y="-428" type="line" smooth="yes"/>
      <point x="811.75" y="-428"/>
      <point x="933.594" y="-413.875"/>
      <point x="1018.16" y="-362.125"/>
      <point x="1070.62" y="-261"/>
      <point x="1086" y="-174" type="qcurve" smooth="yes"/>
      <point x="1291" y="1000" type="line"/>
      <point x="1043" y="1000" type="line"/>
      <point x="1025" y="900" type="line"/>
      <point x="1013.68" y="955.84"/>
      <point x="903.607" y="1010"/>
      <point x="804" y="1010" type="qcurve" smooth="yes"/>
      <point x="466" y="1010" type="line" smooth="yes"/>
      <point x="328.663" y="1010"/>
      <point x="193.865" y="914.662"/>
      <point x="175" y="806" type="qcurve" smooth="yes"/>
      <point x="70" y="204" type="line" smooth="yes"/>
      <point x="49.6258" y="87.7916"/>
      <point x="149.154" y="-10"/>
      <point x="288" y="-10" type="qcurve" smooth="yes"/>
      <point x="626" y="-10" type="line" smooth="yes"/>
      <point x="725.607" y="-10"/>
      <point x="854.816" y="44.1596"/>
      <point x="885" y="100" type="qcurve"/>
      <point x="832" y="-204" type="line"/>
      <point x="832" y="-204"/>
      <point x="832" y="-204"/>
      <point x="832" y="-204" type="qcurve"/>
      <point x="18" y="-204" type="line"/>
    </contour>
    <contour>
      <point x="775" y="1103" type="qcurve" smooth="yes"/>
      <point x="860.125" y="1103"/>
      <point x="971.188" y="1130.31"/>
      <point x="1042.81" y="1199.69"/>
      <point x="1084.88" y="1318.5"/>
      <point x="1101" y="1410" type="qcurve"/>
      <point x="946" y="1410" type="line"/>
      <point x="937.75" y="1363.5"/>
      <point x="916.062" y="1304.38"/>
      <point x="880.438" y="1270.62"/>
      <point x="826.5" y="1258"/>
      <point x="786" y="1258" type="qcurve" smooth="yes"/>
      <point x="744.375" y="1258"/>
      <point x="694.031" y="1270.62"/>
      <point x="670.219" y="1304.38"/>
      <point x="669.75" y="1363.5"/>
      <point x="678" y="1410" type="qcurve"/>
      <point x="523" y="1410" type="line"/>
      <point x="506.875" y="1318.5"/>
      <point x="517.469" y="1199.69"/>
      <point x="577.281" y="1130.31"/>
      <point x="689.5" y="1103"/>
    </contour>
  </outline>
  <guideline angle="0" x="0" y="988"/>
  <guideline angle="0" x="0" y="42"/>
</glyph>
<glyph name="Imacron" format="2">
  <advance width="664"/>
  <unicode hex="012A"/>
  <anchor x="532" y="1830" name="top"/>
  <anchor x="186" y="-150" name="bottom"/>
  <anchor x="276" y="0" name="ogonek"/>
  <outline>
    <contour>
      <point x="83" y="0" type="line"/>
      <point x="347" y="0" type="line"/>
      <point x="591" y="1400" type="line"/>
      <point x="327" y="1400" type="line"/>
    </contour>
    <contour>
      <point x="150" y="1560" type="line"/>
      <point x="820" y="1560" type="line"/>
      <point x="849" y="1730" type="line"/>
      <point x="179" y="1730" type="line"/>
    </contour>
  </outline>
</glyph>
<glyph name="imacron" format="2">
  <advance width="610"/>
  <unicode hex="012B"/>
  <anchor x="160" y="-150" name="bottom"/>
  <anchor x="439" y="1445" name="top"/>
  <anchor x="258" y="0" name="ogonek"/>
  <outline>
    <contour>
      <point x="62" y="0" type="line"/>
      <point x="310" y="0" type="line"/>
      <point x="485" y="1000" type="line"/>
      <point x="237" y="1000" type="line"/>
    </contour>
    <contour>
      <point x="58" y="1185" type="line"/>
      <point x="728" y="1185" type="line"/>
      <point x="756" y="1345" type="line"/>
      <point x="86" y="1345" type="line"/>
    </contour>
  </outline>
</glyph>
<glyph name="uni0137" format="2">
  <advance width="1377"/>
  <unicode hex="0137"/>
  <anchor x="461" y="1598" name="top"/>
  <anchor x="498" y="-150" name="bottom"/>
  <anchor x="86" y="724" name="left"/>
  <outline>
    <contour>
      <point x="63" y="0" type="line"/>
      <point x="311" y="0" type="line"/>
      <point x="401" y="516" type="line"/>
      <point x="376" y="516" type="line"/>
      <point x="913" y="0" type="line"/>
      <point x="1252" y="0" type="line"/>
      <point x="670" y="557" type="line"/>
      <point x="676" y="523" type="line"/>
      <point x="1308" y="1000" type="line"/>
      <point x="979" y="1000" type="line"/>
      <point x="382" y="545" type="line"/>
      <point x="406" y="545" type="line"/>
      <point x="564" y="1448" type="line"/>
      <point x="316" y="1448" type="line"/>
    </contour>
    <contour>
      <point x="380" y="-605" type="line"/>
      <point x="569" y="-358" type="line" smooth="yes"/>
      <point x="578.81" y="-345.172"/>
      <point x="591.718" y="-303.184"/>
      <point x="597" y="-273" type="qcurve" smooth="yes"/>
      <point x="606" y="-219" type="line" smooth="yes"/>
      <point x="618.828" y="-150.331"/>
      <point x="598.914" y="-126"/>
      <point x="531" y="-126" type="qcurve" smooth="yes"/>
      <point x="472" y="-126" type="line" smooth="yes"/>
      <point x="404.841" y="-126"/>
      <point x="376.828" y="-150.331"/>
      <point x="364" y="-219" type="qcurve"/>
      <point x="355" y="-273" type="line" smooth="yes"/>
      <point x="342.926" y="-342.423"/>
      <point x="361.841" y="-367"/>
      <point x="429" y="-367" type="qcurve" smooth="yes"/>
      <point x="451" y="-367" type="line"/>
      <point x="314" y="-580" type="line"/>
    </contour>
  </outline>
</glyph>
<glyph name="kgreenlandic" format="2">
  <advance width="1376"/>
  <unicode hex="0138"/>
  <anchor x="862" y="1150" name="top"/>
  <outline>
    <contour>
      <point x="62" y="0" type="line"/>
      <point x="310" y="0" type="line"/>
      <point x="393" y="476" type="line"/>
      <point x="872" y="0" type="line"/>
      <point x="1251" y="0" type="line"/>
      <point x="705" y="538" type="line"/>
      <point x="1307" y="1000" type="line"/>
      <point x="987" y="1000" type="line"/>
      <point x="405" y="547" type="line"/>
      <point x="485" y="1000" type="line"/>
      <point x="237" y="1000" type="line"/>
    </contour>
  </outline>
</glyph>
<glyph name="Lacute" format="2">
  <advance width="1392"/>
  <unicode hex="0139"/>
  <anchor x="483" y="1550" name="top"/>
  <anchor x="640" y="-150" name="bottom"/>
  <anchor x="102" y="700" name="left"/>
  <anchor x="988" y="1400" name="right"/>
  <anchor x="1030" y="700" name="eldot"/>
  <anchor x="325" y="1485" name="topright"/>
  <outline>
    <contour>
      <point x="83" y="0" type="line"/>
      <point x="1255" y="0" type="line"/>
      <point x="1298" y="244" type="line"/>
      <point x="390" y="244" type="line"/>
      <point x="591" y="1400" type="line"/>
      <point x="327" y="1400" type="line"/>
    </contour>
    <contour>
      <point x="251" y="1485" type="line"/>
      <point x="533" y="1485" type="line"/>
      <point x="921" y="1800" type="line"/>
      <point x="593" y="1800" type="line"/>
    </contour>
  </outline>
</glyph>
<glyph name="lacute" format="2">
  <advance width="608"/>
  <unicode hex="013A"/>
  <anchor x="461" y="1598" name="top"/>
  <anchor x="158" y="-150" name="bottom"/>
  <anchor x="561" y="1448" name="right"/>
  <anchor x="610" y="700" name="eldot"/>
  <outline>
    <contour>
      <point x="61" y="0" type="line"/>
      <point x="309" y="0" type="line"/>
      <point x="562" y="1448" type="line"/>
      <point x="314" y="1448" type="line"/>
    </contour>
    <contour>
      <point x="223" y="1533" type="line"/>
      <point x="468" y="1533" type="line"/>
      <point x="874" y="1896" type="line"/>
      <point x="599" y="1896" type="line"/>
    </contour>
  </outline>
</glyph>
<glyph name="lcaron" format="2">
  <advance width="608"/>
  <unicode hex="013E"/>
  <anchor x="461" y="1598" name="top"/>
  <anchor x="158" y="-150" name="bottom"/>
  <anchor x="561" y="1448" name="right"/>
  <anchor x="610" y="700" name="eldot"/>
  <outline>
    <contour>
      <point x="61" y="0" type="line"/>
      <point x="309" y="0" type="line"/>
      <point x="562" y="1448" type="line"/>
      <point x="314" y="1448" type="line"/>
    </contour>
    <contour>
      <point x="610" y="1110" type="line"/>
      <point x="802" y="1151" type="line"/>
      <point x="913" y="1448" type="line"/>
      <point x="724" y="1448" type="line"/>
    </contour>
  </outline>
</glyph>
<glyph name="ldot" format="2">
  <advance width="608"/>
  <unicode hex="0140"/>
  <anchor x="461" y="1598" name="top"/>
  <anchor x="158" y="-150" name="bottom"/>
  <anchor x="561" y="1448" name="right"/>
  <anchor x="610" y="700" name="eldot"/>
  <outline>
    <contour>
      <point x="61" y="0" type="line"/>
      <point x="309" y="0" type="line"/>
      <point x="562" y="1448" type="line"/>
      <point x="314" y="1448" type="line"/>
    </contour>
    <contour>
      <point x="484" y="670" type="line" smooth="yes"/>
      <point x="472.681" y="603.595"/>
      <point x="492.595" y="580"/>
      <point x="559" y="580" type="qcurve" smooth="yes"/>
      <point x="619" y="580" type="line" smooth="yes"/>
      <point x="685.405" y="580"/>
      <point x="712.681" y="603.595"/>
      <point x="724" y="670" type="qcurve" smooth="yes"/>
      <point x="735" y="732" type="line" smooth="yes"/>
      <point x="746.319" y="796.896"/>
      <point x="727.405" y="820"/>
      <point x="661" y="820" type="qcurve" smooth="yes"/>
      <point x="601" y="820" type="line" smooth="yes"/>
      <point x="534.595" y="820"/>
      <point x="506.319" y="796.896"/>
      <point x="495" y="732" type="qcurve" smooth="yes"/>
    </contour>
  </outline>
</glyph>
<glyph name="Nacute" format="2">
  <advance width="1830"/>
  <unicode hex="0143"/>
  <anchor x="1066" y="1550" name="top"/>
  <anchor x="769" y="-150" name="bottom"/>
  <anchor x="908" y="1485" name="topright"/>
  <outline>
    <contour>
      <point x="83" y="0" type="line"/>
      <point x="327" y="0" type="line"/>
      <point x="498" y="980" type="line"/>
      <point x="1309" y="0" type="line"/>
      <point x="1513" y="0" type="line"/>
      <point x="1757" y="1400" type="line"/>
      <point x="1513" y="1400" type="line"/>
      <point x="1342" y="421" type="line"/>
      <point x="531" y="1400" type="line"/>
      <point x="327" y="1400" type="line"/>
    </contour>
    <contour>
      <point x="834" y="1485" type="line"/>
      <point x="1116" y="1485" type="line"/>
      <point x="1504" y="1800" type="line"/>
      <point x="1176" y="1800" type="line"/>
    </contour>
  </outline>
</glyph>
<glyph name="Ncaron" format="2">
  <advance width="1830"/>
  <unicode hex="0147"/>
  <anchor x="1124" y="1880" name="top"/>
  <anchor x="769" y="-150" name="bottom"/>
  <anchor x="677" y="1700" name="topright"/>
  <outline>
    <contour>
      <point x="83" y="0" type="line"/>
      <point x="327" y="0" type="line"/>
      <point x="498" y="980" type="line"/>
      <point x="1309" y="0" type="line"/>
      <point x="1513" y="0" type="line"/>
      <point x="1757" y="1400" type="line"/>
      <point x="1513" y="1400" type="line"/>
      <point x="1342" y="421" type="line"/>
      <point x="531" y="1400" type="line"/>
      <point x="327" y="1400" type="line"/>
    </contour>
    <contour>
      <point x="1518" y="1800" type="line"/>
      <point x="1250" y="1800" type="line"/>
      <point x="1065" y="1608" type="line"/>
      <point x="929" y="1800" type="line"/>
      <point x="695" y="1800" type="line"/>
      <point x="942" y="1485" type="line"/>
      <point x="1159" y="1485" type="line"/>
    </contour>
  </outline>
</glyph>
<glyph name="obreve" format="2">
  <advance width="1396"/>
  <unicode hex="014F"/>
  <anchor x="842" y="1510" name="top"/>
  <anchor x="551" y="-150" name="bottom"/>
  <anchor x="1263" y="804" name="horn"/>
  <anchor x="675" y="0" name="ogonek"/>
  <outline>
    <contour>
      <point x="70" y="204" type="line" smooth="yes"/>
      <point x="49.6258" y="87.7916"/>
      <point x="149.154" y="-10"/>
      <point x="288" y="-10" type="qcurve" smooth="yes"/>
      <point x="868" y="-10" type="line" smooth="yes"/>
      <point x="1008.36" y="-10"/>
      <point x="1141.63" y="87.7916"/>
      <point x="1162" y="204" type="qcurve" smooth="yes"/>
      <point x="1267" y="806" type="line" smooth="yes"/>
      <point x="1285.87" y="914.662"/>
      <point x="1184.09" y="1010"/>
      <point x="1046" y="1010" type="qcurve" smooth="yes"/>
      <point x="466" y="1010" type="line" smooth="yes"/>
      <point x="328.663" y="1010"/>
      <point x="193.865" y="914.662"/>
      <point x="175" y="806" type="qcurve" smooth="yes"/>
    </contour>
    <contour>
      <point x="319" y="214" type="qcurve"/>
      <point x="419" y="786" type="line"/>
      <point x="419" y="786"/>
      <point x="419" y="786"/>
      <point x="419" y="786" type="qcurve"/>
      <point x="1015" y="786" type="line"/>
      <point x="1015" y="786"/>
      <point x="1015" y="786"/>
      <point x="1015" y="786" type="qcurve"/>
      <point x="915" y="214" type="line"/>
      <point x="915" y="214"/>
      <point x="915" y="214"/>
      <point x="915" y="214" type="qcurve"/>
      <point x="319" y="214" type="line"/>
      <point x="319" y="214"/>
      <point x="319" y="214"/>
    </contour>
    <contour>
      <point x="787" y="1103" type="qcurve" smooth="yes"/>
      <point x="872.125" y="1103"/>
      <point x="983.188" y="1130.31"/>
      <point x="1054.81" y="1199.69"/>
      <point x="1096.88" y="1318.5"/>
      <point x="1113" y="1410" type="qcurve"/>
      <point x="958" y="1410" type="line"/>
      <point x="949.75" y="1363.5"/>
      <point x="928.062" y="1304.38"/>
      <point x="892.438" y="1270.62"/>
      <point x="838.5" y="1258"/>
      <point x="798" y="1258" type="qcurve" smooth="yes"/>
      <point x="756.375" y="1258"/>
      <point x="706.031" y="1270.62"/>
      <point x="682.219" y="1304.38"/>
      <point x="681.75" y="1363.5"/>
      <point x="690" y="1410" type="qcurve"/>
      <point x="535" y="1410" type="line"/>
      <point x="518.875" y="1318.5"/>
      <point x="529.469" y="1199.69"/>
      <point x="589.281" y="1130.31"/>
      <point x="701.5" y="1103"/>
    </contour>
  </outline>
</glyph>
<glyph name="ohungarumlaut" format="2">
  <advance width="1396"/>
  <unicode hex="0151"/>
  <anchor x="778" y="1150" name="top"/>
  <anchor x="551" y="-150" name="bottom"/>
  <anchor x="1263" y="804" name="horn"/>
  <anchor x="675" y="0" name="ogonek"/>
  <outline>
    <contour>
      <point x="70" y="204" type="line" smooth="yes"/>
      <point x="49.6258" y="87.7916"/>
      <point x="149.154" y="-10"/>
      <point x="288" y="-10" type="qcurve" smooth="yes"/>
      <point x="868" y="-10" type="line" smooth="yes"/>
      <point x="1008.36" y="-10"/>
      <point x="1141.63" y="87.7916"/>
      <point x="1162" y="204" type="qcurve" smooth="yes"/>
      <point x="1267" y="806" type="line" smooth="yes"/>
      <point x="1285.87" y="914.662"/>
      <point x="1184.09" y="1010"/>
      <point x="1046" y="1010" type="qcurve" smooth="yes"/>
      <point x="466" y="1010" type="line" smooth="yes"/>
      <point x="328.663" y="1010"/>
      <point x="193.865" y="914.662"/>
      <point x="175" y="806" type="qcurve" smooth="yes"/>
    </contour>
    <contour>
      <point x="319" y="214" type="qcurve"/>
      <point x="419" y="786" type="line"/>
      <point x="419" y="786"/>
      <point x="419" y="786"/>
      <point x="419" y="786" type="qcurve"/>
      <point x="1015" y="786" type="line"/>
      <point x="1015" y="786"/>
      <point x="1015" y="786"/>
      <point x="1015" y="786" type="qcurve"/>
      <point x="915" y="214" type="line"/>
      <point x="915" y="214"/>
      <point x="915" y="214"/>
      <point x="915" y="214" type="qcurve"/>
      <point x="319" y="214" type="line"/>
      <point x="319" y="214"/>
      <point x="319" y="214"/>
    </contour>
    <contour>
      <point x="429.396" y="1085" type="line"/>
      <point x="649.896" y="1085" type="line"/>
      <point x="1021.68" y="1448" type="line"/>
      <point x="774.185" y="1448" type="line"/>
    </contour>
    <contour>
      <point x="839.396" y="1085" type="line"/>
      <point x="1059.9" y="1085" type="line"/>
      <point x="1431.68" y="1448" type="line"/>
      <point x="1184.18" y="1448" type="line"/>
    </contour>
  </outline>
</glyph>
<glyph name="Sacute" format="2">
  <advance width="1591"/>
  <unicode hex="015A"/>
  <anchor x="945" y="1564" name="top"/>
  <anchor x="642" y="-164" name="bottom"/>
  <anchor x="787" y="1499" name="topright"/>
  <outline>
    <contour>
      <point x="65" y="364" type="line"/>
      <point x="49" y="272" type="line" smooth="yes"/>
      <point x="33.625" y="183.5"/>
      <point x="61.4062" y="72"/>
      <point x="138.844" y="9"/>
      <point x="261.5" y="-14"/>
      <point x="341" y="-14" type="qcurve" smooth="yes"/>
      <point x="997" y="-14" type="line" smooth="yes"/>
      <point x="1157.5" y="-14"/>
      <point x="1360.25" y="95"/>
      <point x="1391" y="272" type="qcurve" smooth="yes"/>
      <point x="1441" y="556" type="line" smooth="yes"/>
      <point x="1456" y="642.25"/>
      <point x="1424.31" y="749.438"/>
      <point x="1343.69" y="809.062"/>
      <point x="1220.5" y="830"/>
      <point x="1144" y="830" type="qcurve" smooth="yes"/>
      <point x="428" y="830" type="line"/>
      <point x="428" y="830"/>
      <point x="428" y="830"/>
      <point x="428" y="830" type="qcurve"/>
      <point x="488" y="1170" type="line"/>
      <point x="488" y="1170"/>
      <point x="488" y="1170"/>
      <point x="488" y="1170" type="qcurve"/>
      <point x="1276" y="1170" type="line"/>
      <point x="1276" y="1170"/>
      <point x="1276" y="1170"/>
      <point x="1276" y="1170" type="qcurve"/>
      <point x="1244" y="990" type="line"/>
      <point x="1505" y="1040" type="line"/>
      <point x="1523" y="1140" type="line" smooth="yes"/>
      <point x="1537.62" y="1225.5"/>
      <point x="1505.84" y="1332.5"/>
      <point x="1425.41" y="1392.5"/>
      <point x="1302.5" y="1414"/>
      <point x="1226" y="1414" type="qcurve" smooth="yes"/>
      <point x="620" y="1414" type="line" smooth="yes"/>
      <point x="544.25" y="1414"/>
      <point x="414.719" y="1392.5"/>
      <point x="314.031" y="1332.5"/>
      <point x="245.625" y="1225.5"/>
      <point x="231" y="1140" type="qcurve" smooth="yes"/>
      <point x="184" y="874" type="line" smooth="yes"/>
      <point x="168.625" y="785.5"/>
      <point x="196.406" y="673.375"/>
      <point x="273.844" y="609.625"/>
      <point x="396.5" y="586"/>
      <point x="476" y="586" type="qcurve" smooth="yes"/>
      <point x="1194" y="586" type="line"/>
      <point x="1194" y="586"/>
      <point x="1194" y="586"/>
      <point x="1194" y="586" type="qcurve"/>
      <point x="1132" y="230" type="line"/>
      <point x="1132" y="230"/>
      <point x="1132" y="230"/>
      <point x="1132" y="230" type="qcurve"/>
      <point x="294" y="230" type="line"/>
      <point x="294" y="230"/>
      <point x="294" y="230"/>
      <point x="294" y="230" type="qcurve"/>
      <point x="326" y="416" type="line"/>
    </contour>
    <contour>
      <point x="713" y="1499" type="line"/>
      <point x="995" y="1499" type="line"/>
      <point x="1383" y="1814" type="line"/>
      <point x="1055" y="1814" type="line"/>
    </contour>
  </outline>
</glyph>
<glyph name="uni0163" format="2">
  <advance width="864"/>
  <unicode hex="0163"/>
  <anchor x="493" y="1394" name="top"/>
  <anchor x="354" y="-160" name="bottom"/>
  <anchor x="618" y="1400" name="right"/>
  <outline>
    <contour>
      <point x="380" y="-10" type="qcurve" smooth="yes"/>
      <point x="622" y="-10" type="line"/>
      <point x="700" y="194" type="line"/>
      <point x="408" y="194" type="line"/>
      <point x="408" y="194"/>
      <point x="408" y="194"/>
      <point x="408" y="194" type="qcurve"/>
      <point x="513" y="796" type="line"/>
      <point x="815" y="796" type="line"/>
      <point x="851" y="1000" type="line"/>
      <point x="549" y="1000" type="line"/>
      <point x="591" y="1244" type="line"/>
      <point x="343" y="1244" type="line"/>
      <point x="301" y="1000" type="line"/>
      <point x="129" y="1000" type="line"/>
      <point x="93" y="796" type="line"/>
      <point x="265" y="796" type="line"/>
      <point x="162" y="204" type="line" smooth="yes"/>
      <point x="141.626" y="87.7916"/>
      <point x="241.154" y="-10"/>
    </contour>
    <contour>
      <point x="293" y="-448" type="qcurve" smooth="yes"/>
      <point x="338.75" y="-448"/>
      <point x="416.406" y="-429.719"/>
      <point x="475.844" y="-392.031"/>
      <point x="514.875" y="-334.375"/>
      <point x="522" y="-295" type="qcurve" smooth="yes"/>
      <point x="529.5" y="-252.25"/>
      <point x="514.594" y="-186.531"/>
      <point x="471.656" y="-141.719"/>
      <point x="401.625" y="-118.375"/>
      <point x="354" y="-118" type="qcurve"/>
      <point x="423" y="-10" type="line"/>
      <point x="337" y="-10" type="line"/>
      <point x="193" y="-235" type="line"/>
      <point x="218.656" y="-227.454"/>
      <point x="263.362" y="-220"/>
      <point x="286" y="-220" type="qcurve" smooth="yes"/>
      <point x="321.466" y="-220"/>
      <point x="356.282" y="-248.816"/>
      <point x="351" y="-279" type="qcurve" smooth="yes"/>
      <point x="345.718" y="-308.429"/>
      <point x="300.466" y="-341"/>
      <point x="265" y="-341" type="qcurve" smooth="yes"/>
      <point x="243.117" y="-341"/>
      <point x="200.564" y="-329.546"/>
      <point x="190" y="-322" type="qcurve"/>
      <point x="133" y="-398" type="line"/>
      <point x="162.429" y="-422.147"/>
      <point x="240.178" y="-448"/>
    </contour>
  </outline>
</glyph>
<glyph name="Tcaron" format="2">
  <advance width="1418"/>
  <unicode hex="0164"/>
  <anchor x="920" y="1880" name="top"/>
  <anchor x="565" y="-150" name="bottom"/>
  <anchor x="473" y="1700" name="topright"/>
  <outline>
    <contour>
      <point x="459" y="0" type="line"/>
      <point x="723" y="0" type="line"/>
      <point x="925" y="1156" type="line"/>
      <point x="1481" y="1156" type="line"/>
      <point x="1523" y="1400" type="line"/>
      <point x="147" y="1400" type="line"/>
      <point x="105" y="1156" type="line"/>
      <point x="661" y="1156" type="line"/>
    </contour>
    <contour>
      <point x="1314" y="1800" type="line"/>
      <point x="1046" y="1800" type="line"/>
      <point x="861" y="1608" type="line"/>
      <point x="725" y="1800" type="line"/>
      <point x="491" y="1800" type="line"/>
      <point x="738" y="1485" type="line"/>
      <point x="955" y="1485" type="line"/>
    </contour>
  </outline>
</glyph>
<glyph name="Tbar" format="2">
  <advance width="1418"/>
  <unicode hex="0166"/>
  <anchor x="862" y="1550" name="top"/>
  <anchor x="565" y="-150" name="bottom"/>
  <outline>
    <contour>
      <point x="459" y="0" type="line"/>
      <point x="723" y="0" type="line"/>
      <point x="829" y="608" type="line"/>
      <point x="972" y="608" type="line"/>
      <point x="1011" y="832" type="line"/>
      <point x="868" y="832" type="line"/>
      <point x="925" y="1156" type="line"/>
      <point x="1481" y="1156" type="line"/>
      <point x="1523" y="1400" type="line"/>
      <point x="147" y="1400" type="line"/>
      <point x="105" y="1156" type="line"/>
      <point x="661" y="1156" type="line"/>
      <point x="604" y="832" type="line"/>
      <point x="461" y="832" type="line"/>
      <point x="422" y="608" type="line"/>
      <point x="565" y="608" type="line"/>
    </contour>
  </outline>
</glyph>
<glyph name="utilde" format="2">
  <advance width="1363"/>
  <unicode hex="0169"/>
  <anchor x="819" y="1465" name="top"/>
  <anchor x="534" y="-160" name="bottom"/>
  <anchor x="660" y="0" name="ogonek"/>
  <anchor x="1253" y="1000" name="horn"/>
  <outline>
    <contour>
      <point x="80" y="194" type="line" smooth="yes"/>
      <point x="58.1166" y="67.2272"/>
      <point x="173.301" y="-10"/>
      <point x="288" y="-10" type="qcurve" smooth="yes"/>
      <point x="830" y="-10" type="line" smooth="yes"/>
      <point x="944.699" y="-10"/>
      <point x="1090.12" y="67.2272"/>
      <point x="1112" y="194" type="qcurve" smooth="yes"/>
      <point x="1253" y="1000" type="line"/>
      <point x="1005" y="1000" type="line"/>
      <point x="867" y="214" type="line"/>
      <point x="867" y="214"/>
      <point x="867" y="214"/>
      <point x="867" y="214" type="qcurve"/>
      <point x="331" y="214" type="line"/>
      <point x="331" y="214"/>
      <point x="331" y="214"/>
      <point x="331" y="214" type="qcurve"/>
      <point x="469" y="1000" type="line"/>
      <point x="221" y="1000" type="line"/>
    </contour>
    <contour>
      <point x="365" y="1159" type="qcurve"/>
      <point x="530" y="1131" type="line"/>
      <point x="549.62" y="1183.82"/>
      <point x="609.325" y="1220"/>
      <point x="638" y="1220" type="qcurve" smooth="yes"/>
      <point x="668.75" y="1220"/>
      <point x="729.031" y="1191.88"/>
      <point x="795.219" y="1158.12"/>
      <point x="870.875" y="1130"/>
      <point x="917" y="1130" type="qcurve" smooth="yes"/>
      <point x="985.25" y="1130"/>
      <point x="1149.5" y="1226.5"/>
      <point x="1202" y="1372" type="qcurve"/>
      <point x="1037" y="1400" type="line"/>
      <point x="1017.38" y="1347.18"/>
      <point x="957.675" y="1311"/>
      <point x="929" y="1311" type="qcurve" smooth="yes"/>
      <point x="898.25" y="1311"/>
      <point x="837.969" y="1338.81"/>
      <point x="771.781" y="1372.19"/>
      <point x="696.125" y="1400"/>
      <point x="650" y="1400" type="qcurve" smooth="yes"/>
      <point x="581.75" y="1400"/>
      <point x="416.75" y="1303"/>
    </contour>
  </outline>
</glyph>
<glyph name="umacron" format="2">
  <advance width="1363"/>
  <unicode hex="016B"/>
  <anchor x="815" y="1445" name="top"/>
  <anchor x="534" y="-160" name="bottom"/>
  <anchor x="660" y="0" name="ogonek"/>
  <anchor x="1253" y="1000" name="horn"/>
  <outline>
    <contour>
      <point x="80" y="194" type="line" smooth="yes"/>
      <point x="58.1166" y="67.2272"/>
      <point x="173.301" y="-10"/>
      <point x="288" y="-10" type="qcurve" smooth="yes"/>
      <point x="830" y="-10" type="line" smooth="yes"/>
      <point x="944.699" y="-10"/>
      <point x="1090.12" y="67.2272"/>
      <point x="1112" y="194" type="qcurve" smooth="yes"/>
      <point x="1253" y="1000" type="line"/>
      <point x="1005" y="1000" type="line"/>
      <point x="867" y="214" type="line"/>
      <point x="867" y="214"/>
      <point x="867" y="214"/>
      <point x="867" y="214" type="qcurve"/>
      <point x="331" y="214" type="line"/>
      <point x="331" y="214"/>
      <point x="331" y="214"/>
      <point x="331" y="214" type="qcurve"/>
      <point x="469" y="1000" type="line"/>
      <point x="221" y="1000" type="line"/>
    </contour>
    <contour>
      <point x="434" y="1185" type="line"/>
      <point x="1104" y="1185" type="line"/>
      <point x="1132" y="1345" type="line"/>
      <point x="462" y="1345" type="line"/>
    </contour>
  </outline>
</glyph>
<glyph name="Uring" format="2">
  <advance width="1696"/>
  <unicode hex="016E"/>
  <anchor x="1074" y="1974" name="top"/>
  <anchor x="702" y="-150" name="bottom"/>
  <anchor x="826" y="0" name="ogonek"/>
  <anchor x="1635" y="1400" name="horn"/>
  <outline>
    <contour>
      <point x="312" y="1400" type="line"/>
      <point x="115" y="272" type="line" smooth="yes"/>
      <point x="99.625" y="183.5"/>
      <point x="127.719" y="72"/>
      <point x="205.531" y="9"/>
      <point x="328.5" y="-14"/>
      <point x="408" y="-14" type="qcurve" smooth="yes"/>
      <point x="1048" y="-14" type="line" smooth="yes"/>
      <point x="1208.5" y="-14"/>
      <point x="1410.25" y="95"/>
      <point x="1441" y="272" type="qcurve" smooth="yes"/>
      <point x="1638" y="1400" type="line"/>
      <point x="1374" y="1400" type="line"/>
      <point x="1172" y="240" type="line"/>
      <point x="1172" y="240"/>
      <point x="1172" y="240"/>
      <point x="1172" y="240" type="qcurve"/>
      <point x="374" y="240" type="line"/>
      <point x="374" y="240"/>
      <point x="374" y="240"/>
      <point x="374" y="240" type="qcurve"/>
      <point x="576" y="1400" type="line"/>
    </contour>
    <contour>
      <point x="985" y="1472" type="qcurve" smooth="yes"/>
      <point x="1052.5" y="1472"/>
      <point x="1138.44" y="1487.53"/>
      <point x="1192.06" y="1531.22"/>
      <point x="1221.75" y="1609.38"/>
      <point x="1233" y="1672" type="qcurve" smooth="yes"/>
      <point x="1243.88" y="1734.62"/>
      <point x="1241.91" y="1812.47"/>
      <point x="1203.84" y="1855.78"/>
      <point x="1123.5" y="1871"/>
      <point x="1056" y="1871" type="qcurve" smooth="yes"/>
      <point x="988.5" y="1871"/>
      <point x="902.594" y="1855.78"/>
      <point x="849.156" y="1812.47"/>
      <point x="819.875" y="1734.62"/>
      <point x="809" y="1672" type="qcurve" smooth="yes"/>
      <point x="797.75" y="1609.38"/>
      <point x="799.312" y="1531.22"/>
      <point x="837.188" y="1487.53"/>
      <point x="917.5" y="1472"/>
    </contour>
    <contour>
      <point x="1007" y="1596" type="qcurve" smooth="yes"/>
      <point x="957.951" y="1596"/>
      <point x="941.454" y="1630.5"/>
      <point x="949" y="1672" type="qcurve" smooth="yes"/>
      <point x="955.75" y="1712.5"/>
      <point x="985.25" y="1747"/>
      <point x="1034" y="1747" type="qcurve" smooth="yes"/>
      <point x="1082.29" y="1747"/>
      <point x="1099.79" y="1712.75"/>
      <point x="1093" y="1672" type="qcurve" smooth="yes"/>
      <point x="1085.45" y="1630.5"/>
      <point x="1055.29" y="1596"/>
    </contour>
  </outline>
</glyph>
<glyph name="uring" format="2">
  <advance width="1363"/>
  <unicode hex="016F"/>
  <anchor x="837" y="1574" name="top"/>
  <anchor x="534" y="-160" name="bottom"/>
  <anchor x="660" y="0" name="ogonek"/>
  <anchor x="1253" y="1000" name="horn"/>
  <outline>
    <contour>
      <point x="80" y="194" type="line" smooth="yes"/>
      <point x="58.1166" y="67.2272"/>
      <point x="173.301" y="-10"/>
      <point x="288" y="-10" type="qcurve" smooth="yes"/>
      <point x="830" y="-10" type="line" smooth="yes"/>
      <point x="944.699" y="-10"/>
      <point x="1090.12" y="67.2272"/>
      <point x="1112" y="194" type="qcurve" smooth="yes"/>
      <point x="1253" y="1000" type="line"/>
      <point x="1005" y="1000" type="line"/>
      <point x="867" y="214" type="line"/>
      <point x="867" y="214"/>
      <point x="867" y="214"/>
      <point x="867" y="214" type="qcurve"/>
      <point x="331" y="214" type="line"/>
      <point x="331" y="214"/>
      <point x="331" y="214"/>
      <point x="331" y="214" type="qcurve"/>
      <point x="469" y="1000" type="line"/>
      <point x="221" y="1000" type="line"/>
    </contour>
    <contour>
      <point x="750" y="1079" type="qcurve" smooth="yes"/>
      <point x="813.375" y="1079"/>
      <point x="894.125" y="1093.59"/>
      <point x="944.375" y="1134.66"/>
      <point x="971.875" y="1208.12"/>
      <point x="982" y="1267" type="qcurve" smooth="yes"/>
      <point x="992.5" y="1325.88"/>
      <point x="990.781" y="1399.03"/>
      <point x="954.969" y="1439.72"/>
      <point x="879.375" y="1454"/>
      <point x="816" y="1454" type="qcurve" smooth="yes"/>
      <point x="752.25" y="1454"/>
      <point x="671.688" y="1439.72"/>
      <point x="621.812" y="1399.03"/>
      <point x="594.5" y="1325.88"/>
      <point x="584" y="1267" type="qcurve" smooth="yes"/>
      <point x="573.875" y="1208.12"/>
      <point x="575.406" y="1134.66"/>
      <point x="610.844" y="1093.59"/>
      <point x="686.25" y="1079"/>
    </contour>
    <contour>
      <point x="770" y="1191" type="qcurve" smooth="yes"/>
      <point x="720.951" y="1191"/>
      <point x="703.454" y="1225.5"/>
      <point x="711" y="1267" type="qcurve" smooth="yes"/>
      <point x="718.546" y="1307.75"/>
      <point x="746.951" y="1342"/>
      <point x="796" y="1342" type="qcurve" smooth="yes"/>
      <point x="844.294" y="1342"/>
      <point x="862.546" y="1307.75"/>
      <point x="855" y="1267" type="qcurve" smooth="yes"/>
      <point x="847.454" y="1225.5"/>
      <point x="818.294" y="1191"/>
    </contour>
  </outline>
</glyph>
<glyph name="Uogonek" format="2">
  <advance width="1696"/>
  <unicode hex="0172"/>
  <anchor x="999" y="1550" name="top"/>
  <anchor x="702" y="-150" name="bottom"/>
  <anchor x="826" y="0" name="ogonek"/>
  <anchor x="1635" y="1400" name="horn"/>
  <outline>
    <contour>
      <point x="312" y="1400" type="line"/>
      <point x="115" y="272" type="line" smooth="yes"/>
      <point x="99.625" y="183.5"/>
      <point x="127.719" y="72"/>
      <point x="205.531" y="9"/>
      <point x="328.5" y="-14"/>
      <point x="408" y="-14" type="qcurve" smooth="yes"/>
      <point x="1048" y="-14" type="line" smooth="yes"/>
      <point x="1208.5" y="-14"/>
      <point x="1410.25" y="95"/>
      <point x="1441" y="272" type="qcurve" smooth="yes"/>
      <point x="1638" y="1400" type="line"/>
      <point x="1374" y="1400" type="line"/>
      <point x="1172" y="240" type="line"/>
      <point x="1172" y="240"/>
      <point x="1172" y="240"/>
      <point x="1172" y="240" type="qcurve"/>
      <point x="374" y="240" type="line"/>
      <point x="374" y="240"/>
      <point x="374" y="240"/>
      <point x="374" y="240" type="qcurve"/>
      <point x="576" y="1400" type="line"/>
    </contour>
    <contour>
      <point x="628.342" y="-439" type="qcurve" smooth="yes"/>
      <point x="678.672" y="-439"/>
      <point x="751.233" y="-418.62"/>
      <point x="795" y="-399" type="qcurve"/>
      <point x="866" y="-209" type="line"/>
      <point x="835.061" y="-224.092"/>
      <point x="773.683" y="-239"/>
      <point x="745.034" y="-239" type="qcurve" smooth="yes"/>
      <point x="690.677" y="-239"/>
      <point x="634.482" y="-188.788"/>
      <point x="642.112" y="-145.085" type="qcurve" smooth="yes"/>
      <point x="651.083" y="-93.708"/>
      <point x="753.558" y="-12.0736"/>
      <point x="826" y="0" type="qcurve"/>
      <point x="630" y="0" type="line"/>
      <point x="533.411" y="-36.9754"/>
      <point x="408.047" y="-175.329"/>
      <point x="398.966" y="-253.217" type="qcurve" smooth="yes"/>
      <point x="388.427" y="-343.605"/>
      <point x="519.452" y="-439"/>
    </contour>
  </outline>
</glyph>
<glyph name="Wcircumflex" format="2">
  <advance width="1975"/>
  <unicode hex="0174"/>
  <anchor x="987.5" y="-150" name="bottom"/>
  <anchor x="1199" y="1550" name="top"/>
  <anchor x="1559" y="1585" name="topright"/>
  <outline>
    <contour>
      <point x="355" y="0" type="line"/>
      <point x="558" y="0" type="line"/>
      <point x="1020" y="901" type="line"/>
      <point x="1180" y="0" type="line"/>
      <point x="1377" y="0" type="line"/>
      <point x="2101" y="1400" type="line"/>
      <point x="1839" y="1400" type="line"/>
      <point x="1371" y="476" type="line"/>
      <point x="1207" y="1400" type="line"/>
      <point x="1025" y="1400" type="line"/>
      <point x="556" y="476" type="line"/>
      <point x="422" y="1400" type="line"/>
      <point x="127" y="1400" type="line"/>
    </contour>
    <contour>
      <point x="718" y="1485" type="line"/>
      <point x="986" y="1485" type="line"/>
      <point x="1171" y="1677" type="line"/>
      <point x="1307" y="1485" type="line"/>
      <point x="1541" y="1485" type="line"/>
      <point x="1294" y="1800" type="line"/>
      <point x="1077" y="1800" type="line"/>
    </contour>
  </outline>
</glyph>
<glyph name="ycircumflex" format="2">
  <advance width="1183"/>
  <unicode hex="0177"/>
  <anchor x="744" y="1548" name="top"/>
  <anchor x="763" y="-190" name="bottom"/>
  <anchor x="1079" y="1267" name="topright"/>
  <outline>
    <contour>
      <point x="-112" y="-428" type="line"/>
      <point x="109" y="-428" type="line" smooth="yes"/>
      <point x="165.25" y="-428"/>
      <point x="248.062" y="-412.938"/>
      <point x="314.438" y="-376.562"/>
      <point x="371" y="-315.75"/>
      <point x="401" y="-270" type="qcurve" smooth="yes"/>
      <point x="1232" y="1000" type="line"/>
      <point x="958" y="1000" type="line"/>
      <point x="538" y="343" type="line"/>
      <point x="338" y="1000" type="line"/>
      <point x="66" y="1000" type="line"/>
      <point x="364" y="83" type="line"/>
      <point x="181" y="-204" type="line"/>
      <point x="181" y="-204"/>
      <point x="181" y="-204"/>
      <point x="181" y="-204" type="qcurve"/>
      <point x="-119" y="-204" type="line"/>
    </contour>
    <contour>
      <point x="280" y="1085" type="line"/>
      <point x="517" y="1085" type="line"/>
      <point x="713" y="1305" type="line"/>
      <point x="838" y="1085" type="line"/>
      <point x="1047" y="1085" type="line"/>
      <point x="809" y="1448" type="line"/>
      <point x="648" y="1448" type="line"/>
    </contour>
  </outline>
</glyph>
<glyph name="Zacute" format="2">
  <advance width="1430"/>
  <unicode hex="0179"/>
  <anchor x="899" y="1550" name="top"/>
  <anchor x="588" y="-150" name="bottom"/>
  <anchor x="741" y="1485" name="topright"/>
  <outline>
    <contour>
      <point x="-49" y="0" type="line"/>
      <point x="1225" y="0" type="line"/>
      <point x="1267" y="240" type="line"/>
      <point x="407" y="240" type="line"/>
      <point x="411" y="231" type="line"/>
      <point x="1446" y="1278" type="line"/>
      <point x="1467" y="1400" type="line"/>
      <point x="279" y="1400" type="line"/>
      <point x="237" y="1160" type="line"/>
      <point x="1011" y="1160" type="line"/>
      <point x="1007" y="1169" type="line"/>
      <point x="-28" y="122" type="line"/>
    </contour>
    <contour>
      <point x="667" y="1485" type="line"/>
      <point x="949" y="1485" type="line"/>
      <point x="1337" y="1800" type="line"/>
      <point x="1009" y="1800" type="line"/>
    </contour>
  </outline>
</glyph>
<glyph name="zacute" format="2">
  <advance width="1136"/>
  <unicode hex="017A"/>
  <anchor x="646" y="1150" name="top"/>
  <anchor x="419" y="-150" name="bottom"/>
  <outline>
    <contour>
      <point x="-38" y="0" type="line"/>
      <point x="938" y="0" type="line"/>
      <point x="975" y="209" type="line"/>
      <point x="374" y="209" type="line"/>
      <point x="374" y="189" type="line"/>
      <point x="1091" y="912" type="line"/>
      <point x="1107" y="1000" type="line"/>
      <point x="197" y="1000" type="line"/>
      <point x="160" y="791" type="line"/>
      <point x="695" y="791" type="line"/>
      <point x="687" y="805" type="line"/>
      <point x="-23" y="88" type="line"/>
    </contour>
    <contour>
      <point x="408" y="1085" type="line"/>
      <point x="653" y="1085" type="line"/>
      <point x="1059" y="1448" type="line"/>
      <point x="784" y="1448" type="line"/>
    </contour>
  </outline>
</glyph>
<glyph name="uni0186" format="2">
  <advance width="1610"/>
  <unicode hex="0186"/>
  <anchor x="942" y="1564" name="top"/>
  <anchor x="636" y="-150" name="bottom"/>
  <outline>
    <contour>
      <point x="349" y="-14" type="qcurve" smooth="yes"/>
      <point x="975" y="-14" type="line" smooth="yes"/>
      <point x="1140.26" y="-14"/>
      <point x="1339.08" y="114.289"/>
      <point x="1367" y="272" type="qcurve" smooth="yes"/>
      <point x="1519" y="1140" type="line" smooth="yes"/>
      <point x="1542.39" y="1275.07"/>
      <point x="1377.43" y="1414"/>
      <point x="1225" y="1414" type="qcurve" smooth="yes"/>
      <point x="607" y="1414" type="line" smooth="yes"/>
      <point x="443.252" y="1414"/>
      <point x="242.166" y="1294.69"/>
      <point x="215" y="1140" type="qcurve" smooth="yes"/>
      <point x="181" y="944" type="line"/>
      <point x="436" y="896" type="line"/>
      <point x="484" y="1170" type="line"/>
      <point x="484" y="1170"/>
      <point x="484" y="1170"/>
      <point x="484" y="1170" type="qcurve"/>
      <point x="1260" y="1170" type="line"/>
      <point x="1260" y="1170"/>
      <point x="1260" y="1170"/>
      <point x="1260" y="1170" type="qcurve"/>
      <point x="1096" y="230" type="line"/>
      <point x="1096" y="230"/>
      <point x="1096" y="230"/>
      <point x="1096" y="230" type="qcurve"/>
      <point x="312" y="230" type="line"/>
      <point x="312" y="230"/>
      <point x="312" y="230"/>
      <point x="312" y="230" type="qcurve"/>
      <point x="364" y="530" type="line"/>
      <point x="91" y="478" type="line"/>
      <point x="55" y="272" type="line" smooth="yes"/>
      <point x="30.8528" y="132.399"/>
      <point x="194.307" y="-14"/>
    </contour>
  </outline>
</glyph>
<glyph name="uni0198" format="2">
  <advance width="1668"/>
  <unicode hex="0198"/>
  <anchor x="989" y="1550" name="top"/>
  <anchor x="792" y="-150" name="bottom"/>
  <outline>
    <contour>
      <point x="1335" y="1144" type="line"/>
      <point x="1335" y="1144"/>
      <point x="1335" y="1144"/>
      <point x="1335" y="1144" type="qcurve"/>
      <point x="1574" y="1144" type="line"/>
      <point x="1667" y="1386" type="line"/>
      <point x="1453" y="1386" type="line" smooth="yes"/>
      <point x="1372.26" y="1386"/>
      <point x="1215.93" y="1323.07"/>
      <point x="1145" y="1271" type="qcurve" smooth="yes"/>
      <point x="416" y="737" type="line"/>
      <point x="479" y="740" type="line"/>
      <point x="591" y="1400" type="line"/>
      <point x="327" y="1400" type="line"/>
      <point x="83" y="0" type="line"/>
      <point x="347" y="0" type="line"/>
      <point x="471" y="735" type="line"/>
      <point x="395" y="735" type="line"/>
      <point x="1165" y="0" type="line"/>
      <point x="1548" y="0" type="line"/>
      <point x="761" y="743" type="line"/>
      <point x="758" y="727" type="line"/>
    </contour>
  </outline>
</glyph>
<glyph name="Ohorn" format="2">
  <advance width="1973"/>
  <unicode hex="01A0"/>
  <anchor x="1045" y="1564" name="top"/>
  <anchor x="746" y="-164" name="bottom"/>
  <anchor x="1704" y="1140" name="horn"/>
  <anchor x="870" y="0" name="ogonek"/>
  <outline>
    <contour>
      <point x="252" y="1140" type="qcurve" smooth="yes"/>
      <point x="100" y="272" type="line" smooth="yes"/>
      <point x="69.816" y="95.4236"/>
      <point x="231.516" y="-14"/>
      <point x="393" y="-14" type="qcurve" smooth="yes"/>
      <point x="1159" y="-14" type="line" smooth="yes"/>
      <point x="1320.48" y="-14"/>
      <point x="1521.06" y="93.9144"/>
      <point x="1552" y="272" type="qcurve" smooth="yes"/>
      <point x="1704" y="1140" type="line" smooth="yes"/>
      <point x="1734" y="1311"/>
      <point x="1559.5" y="1414"/>
      <point x="1408" y="1414" type="qcurve" smooth="yes"/>
      <point x="642" y="1414" type="line" smooth="yes"/>
      <point x="490.5" y="1414"/>
      <point x="282" y="1311"/>
    </contour>
    <contour>
      <point x="521" y="1170" type="line"/>
      <point x="521" y="1170"/>
      <point x="521" y="1170"/>
      <point x="521" y="1170" type="qcurve"/>
      <point x="1445" y="1170" type="line"/>
      <point x="1445" y="1170"/>
      <point x="1445" y="1170"/>
      <point x="1445" y="1170" type="qcurve"/>
      <point x="1281" y="230" type="line"/>
      <point x="1281" y="230"/>
      <point x="1281" y="230"/>
      <point x="1281" y="230" type="qcurve"/>
      <point x="357" y="230" type="line"/>
      <point x="357" y="230"/>
      <point x="357" y="230"/>
      <point x="357" y="230" type="qcurve"/>
    </contour>
    <contour>
      <point x="1676" y="983" type="line"/>
      <point x="1777.25" y="983"/>
      <point x="1918.25" y="1019.41"/>
      <point x="2012.75" y="1098.34"/>
      <point x="2068.25" y="1222.88"/>
      <point x="2084" y="1311" type="qcurve" smooth="yes"/>
      <point x="2090.79" y="1350.99"/>
      <point x="2097.77" y="1457.88"/>
      <point x="2094" y="1519" type="qcurve"/>
      <point x="1885" y="1482" type="line"/>
      <point x="1887.26" y="1433.71"/>
      <point x="1884.04" y="1354.96"/>
      <point x="1878" y="1321" type="qcurve" smooth="yes"/>
      <point x="1860.64" y="1224.41"/>
      <point x="1777.95" y="1140"/>
      <point x="1704" y="1140" type="qcurve"/>
    </contour>
  </outline>
</glyph>
<glyph name="uni01C9" format="2">
  <advance width="1215"/>
  <unicode hex="01C9"/>
  <anchor x="992" y="1150" name="top"/>
  <anchor x="158" y="-150" name="bottom"/>
  <anchor x="561" y="1448" name="right"/>
  <anchor x="610" y="700" name="eldot"/>
  <outline>
    <contour>
      <point x="61" y="0" type="line"/>
      <point x="309" y="0" type="line"/>
      <point x="562" y="1448" type="line"/>
      <point x="314" y="1448" type="line"/>
    </contour>
    <contour>
      <point x="169" y="-204" type="line"/>
      <point x="180" y="-428" type="line"/>
      <point x="526" y="-428" type="line" smooth="yes"/>
      <point x="610.75" y="-428"/>
      <point x="731.469" y="-420.062"/>
      <point x="815.281" y="-372.438"/>
      <point x="868.125" y="-269.25"/>
      <point x="885" y="-174" type="qcurve" smooth="yes"/>
      <point x="1090" y="1000" type="line"/>
      <point x="842" y="1000" type="line"/>
      <point x="631" y="-204" type="line"/>
      <point x="631" y="-204"/>
      <point x="631" y="-204"/>
      <point x="631" y="-204" type="qcurve"/>
    </contour>
    <contour>
      <point x="873" y="1230" type="line" smooth="yes"/>
      <point x="860.926" y="1163.6"/>
      <point x="880.595" y="1140"/>
      <point x="947" y="1140" type="qcurve" smooth="yes"/>
      <point x="1031" y="1140" type="line" smooth="yes"/>
      <point x="1097.4" y="1140"/>
      <point x="1124.93" y="1163.6"/>
      <point x="1137" y="1230" type="qcurve" smooth="yes"/>
      <point x="1151" y="1312" type="line" smooth="yes"/>
      <point x="1162.32" y="1376.9"/>
      <point x="1142.4" y="1400"/>
      <point x="1076" y="1400" type="qcurve" smooth="yes"/>
      <point x="992" y="1400" type="line" smooth="yes"/>
      <point x="925.595" y="1400"/>
      <point x="898.319" y="1376.9"/>
      <point x="887" y="1312" type="qcurve" smooth="yes"/>
    </contour>
  </outline>
</glyph>
<glyph name="uni01CA" format="2">
  <advance width="3331"/>
  <unicode hex="01CA"/>
  <anchor x="3171" y="1578" name="top"/>
  <anchor x="2394" y="-150" name="bottom"/>
  <outline>
    <contour>
      <point x="83" y="0" type="line"/>
      <point x="327" y="0" type="line"/>
      <point x="498" y="980" type="line"/>
      <point x="1309" y="0" type="line"/>
      <point x="1513" y="0" type="line"/>
      <point x="1757" y="1400" type="line"/>
      <point x="1513" y="1400" type="line"/>
      <point x="1342" y="421" type="line"/>
      <point x="531" y="1400" type="line"/>
      <point x="327" y="1400" type="line"/>
    </contour>
    <contour>
      <point x="3270" y="1400" type="line"/>
      <point x="3006" y="1400" type="line"/>
      <point x="2802" y="230" type="line"/>
      <point x="2802" y="230"/>
      <point x="2802" y="230"/>
      <point x="2802" y="230" type="qcurve"/>
      <point x="2116" y="230" type="line"/>
      <point x="2116" y="230"/>
      <point x="2116" y="230"/>
      <point x="2116" y="230" type="qcurve"/>
      <point x="2188" y="644" type="line"/>
      <point x="1915" y="588" type="line"/>
      <point x="1857" y="260" type="line" smooth="yes"/>
      <point x="1831.5" y="113"/>
      <point x="1969.5" y="-14"/>
      <point x="2154" y="-14" type="qcurve" smooth="yes"/>
      <point x="2682" y="-14" type="line" smooth="yes"/>
      <point x="2865" y="-14"/>
      <point x="3045.5" y="113"/>
      <point x="3071" y="260" type="qcurve" smooth="yes"/>
    </contour>
  </outline>
</glyph>
<glyph name="uni01CC" format="2">
  <advance width="1984"/>
  <unicode hex="01CC"/>
  <anchor x="1761" y="1150" name="top"/>
  <anchor x="549" y="-150" name="bottom"/>
  <outline>
    <contour>
      <point x="60" y="0" type="line"/>
      <point x="308" y="0" type="line"/>
      <point x="445" y="786" type="line"/>
      <point x="981" y="786" type="line"/>
      <point x="981" y="786"/>
      <point x="981" y="786"/>
      <point x="981" y="786" type="qcurve"/>
      <point x="844" y="0" type="line"/>
      <point x="1092" y="0" type="line"/>
      <point x="1225" y="760" type="line" smooth="yes"/>
      <point x="1248.25" y="893.5"/>
      <point x="1119.5" y="1010"/>
      <point x="950" y="1010" type="qcurve" smooth="yes"/>
      <point x="766" y="1010" type="line" smooth="yes"/>
      <point x="648.282" y="1010"/>
      <point x="505.239" y="957.313"/>
      <point x="466" y="906" type="qcurve"/>
      <point x="483" y="1000" type="line"/>
      <point x="235" y="1000" type="line"/>
    </contour>
    <contour>
      <point x="938" y="-204" type="line"/>
      <point x="949" y="-428" type="line"/>
      <point x="1295" y="-428" type="line" smooth="yes"/>
      <point x="1379.75" y="-428"/>
      <point x="1500.47" y="-420.062"/>
      <point x="1584.28" y="-372.438"/>
      <point x="1637.12" y="-269.25"/>
      <point x="1654" y="-174" type="qcurve" smooth="yes"/>
      <point x="1859" y="1000" type="line"/>
      <point x="1611" y="1000" type="line"/>
      <point x="1400" y="-204" type="line"/>
      <point x="1400" y="-204"/>
      <point x="1400" y="-204"/>
      <point x="1400" y="-204" type="qcurve"/>
    </contour>
    <contour>
      <point x="1642" y="1230" type="line" smooth="yes"/>
      <point x="1629.93" y="1163.6"/>
      <point x="1649.6" y="1140"/>
      <point x="1716" y="1140" type="qcurve" smooth="yes"/>
      <point x="1800" y="1140" type="line" smooth="yes"/>
      <point x="1866.4" y="1140"/>
      <point x="1893.93" y="1163.6"/>
      <point x="1906" y="1230" type="qcurve" smooth="yes"/>
      <point x="1920" y="1312" type="line" smooth="yes"/>
      <point x="1931.32" y="1376.9"/>
      <point x="1911.4" y="1400"/>
      <point x="1845" y="1400" type="qcurve" smooth="yes"/>
      <point x="1761" y="1400" type="line" smooth="yes"/>
      <point x="1694.6" y="1400"/>
      <point x="1667.32" y="1376.9"/>
      <point x="1656" y="1312" type="qcurve" smooth="yes"/>
    </contour>
  </outline>
  <guideline angle="0" x="0" y="988"/>
  <guideline angle="0" x="0" y="870"/>
</glyph>
<glyph name="uni01EA" format="2">
  <advance width="1792"/>
  <unicode hex="01EA"/>
  <anchor x="1042" y="1564" name="top"/>
  <anchor x="743" y="-164" name="bottom"/>
  <anchor x="1701" y="1140" name="horn"/>
  <anchor x="867" y="0" name="ogonek"/>
  <outline>
    <contour>
      <point x="252" y="1140" type="qcurve" smooth="yes"/>
      <point x="100" y="272" type="line" smooth="yes"/>
      <point x="69.816" y="95.4236"/>
      <point x="231.516" y="-14"/>
      <point x="393" y="-14" type="qcurve" smooth="yes"/>
      <point x="1159" y="-14" type="line" smooth="yes"/>
      <point x="1320.48" y="-14"/>
      <point x="1521.06" y="93.9144"/>
      <point x="1552" y="272" type="qcurve" smooth="yes"/>
      <point x="1704" y="1140" type="line" smooth="yes"/>
      <point x="1734" y="1311"/>
      <point x="1559.5" y="1414"/>
      <point x="1408" y="1414" type="qcurve" smooth="yes"/>
      <point x="642" y="1414" type="line" smooth="yes"/>
      <point x="490.5" y="1414"/>
      <point x="282" y="1311"/>
    </contour>
    <contour>
      <point x="521" y="1170" type="line"/>
      <point x="521" y="1170"/>
      <point x="521" y="1170"/>
      <point x="521" y="1170" type="qcurve"/>
      <point x="1445" y="1170" type="line"/>
      <point x="1445" y="1170"/>
      <point x="1445" y="1170"/>
      <point x="1445" y="1170" type="qcurve"/>
      <point x="1281" y="230" type="line"/>
      <point x="1281" y="230"/>
      <point x="1281" y="230"/>
      <point x="1281" y="230" type="qcurve"/>
      <point x="357" y="230" type="line"/>
      <point x="357" y="230"/>
      <point x="357" y="230"/>
      <point x="357" y="230" type="qcurve"/>
    </contour>
    <contour>
      <point x="669.342" y="-439" type="qcurve" smooth="yes"/>
      <point x="719.672" y="-439"/>
      <point x="792.233" y="-418.62"/>
      <point x="836" y="-399" type="qcurve"/>
      <point x="907" y="-209" type="line"/>
      <point x="876.061" y="-224.092"/>
      <point x="814.683" y="-239"/>
      <point x="786.034" y="-239" type="qcurve" smooth="yes"/>
      <point x="731.677" y="-239"/>
      <point x="675.482" y="-188.788"/>
      <point x="683.112" y="-145.085" type="qcurve" smooth="yes"/>
      <point x="692.083" y="-93.708"/>
      <point x="794.558" y="-12.0736"/>
      <point x="867" y="0" type="qcurve"/>
      <point x="671" y="0" type="line"/>
      <point x="574.411" y="-36.9754"/>
      <point x="449.047" y="-175.329"/>
      <point x="439.966" y="-253.217" type="qcurve" smooth="yes"/>
      <point x="429.427" y="-343.605"/>
      <point x="560.452" y="-439"/>
    </contour>
  </outline>
</glyph>
<glyph name="uni01F8" format="2">
  <advance width="1833"/>
  <unicode hex="01F8"/>
  <anchor x="1066" y="1550" name="top"/>
  <anchor x="769" y="-150" name="bottom"/>
  <anchor x="1202" y="1485" name="topright"/>
  <outline>
    <contour>
      <point x="83" y="0" type="line"/>
      <point x="327" y="0" type="line"/>
      <point x="498" y="980" type="line"/>
      <point x="1309" y="0" type="line"/>
      <point x="1513" y="0" type="line"/>
      <point x="1757" y="1400" type="line"/>
      <point x="1513" y="1400" type="line"/>
      <point x="1342" y="421" type="line"/>
      <point x="531" y="1400" type="line"/>
      <point x="327" y="1400" type="line"/>
    </contour>
    <contour>
      <point x="994" y="1485" type="line"/>
      <point x="1222" y="1485" type="line"/>
      <point x="991" y="1800" type="line"/>
      <point x="717" y="1800" type="line"/>
    </contour>
  </outline>
</glyph>
<glyph name="AEacute" format="2">
  <advance width="2532"/>
  <unicode hex="01FC"/>
  <anchor x="1565" y="1550" name="top"/>
  <anchor x="1078" y="-150" name="bottom"/>
  <outline>
    <contour>
      <point x="-120" y="0" type="line"/>
      <point x="215" y="0" type="line"/>
      <point x="466" y="326" type="line"/>
      <point x="1101" y="326" type="line"/>
      <point x="1044" y="0" type="line"/>
      <point x="2302" y="0" type="line"/>
      <point x="2345" y="244" type="line"/>
      <point x="1351" y="244" type="line"/>
      <point x="1412" y="596" type="line"/>
      <point x="2000" y="596" type="line"/>
      <point x="2043" y="840" type="line"/>
      <point x="1455" y="840" type="line"/>
      <point x="1510" y="1156" type="line"/>
      <point x="2484" y="1156" type="line"/>
      <point x="2526" y="1400" type="line"/>
      <point x="968" y="1400" type="line"/>
    </contour>
    <contour>
      <point x="650" y="566" type="line"/>
      <point x="1104" y="1156" type="line"/>
      <point x="1246" y="1156" type="line"/>
      <point x="1143" y="566" type="line"/>
    </contour>
    <contour>
      <point x="1327" y="1485" type="line"/>
      <point x="1572" y="1485" type="line"/>
      <point x="1978" y="1848" type="line"/>
      <point x="1703" y="1848" type="line"/>
    </contour>
  </outline>
</glyph>
<glyph name="uni0208" format="2">
  <advance width="664"/>
  <unicode hex="0208"/>
  <anchor x="483" y="1550" name="top"/>
  <anchor x="186" y="-150" name="bottom"/>
  <anchor x="276" y="0" name="ogonek"/>
  <anchor x="329.779" y="1485" name="topright"/>
  <outline>
    <contour>
      <point x="83" y="0" type="line"/>
      <point x="347" y="0" type="line"/>
      <point x="591" y="1400" type="line"/>
      <point x="327" y="1400" type="line"/>
    </contour>
    <contour>
      <point x="903.379" y="1485" type="line"/>
      <point x="706.68" y="1800" type="line"/>
      <point x="411.48" y="1800" type="line"/>
      <point x="649.579" y="1485" type="line"/>
    </contour>
    <contour>
      <point x="396.379" y="1485" type="line"/>
      <point x="199.68" y="1800" type="line"/>
      <point x="-95.52" y="1800" type="line"/>
      <point x="142.579" y="1485" type="line"/>
    </contour>
  </outline>
</glyph>
<glyph name="uni020D" format="2">
  <advance width="1396"/>
  <unicode hex="020D"/>
  <anchor x="778" y="1150" name="top"/>
  <anchor x="551" y="-150" name="bottom"/>
  <anchor x="1263" y="804" name="horn"/>
  <anchor x="675" y="0" name="ogonek"/>
  <outline>
    <contour>
      <point x="70" y="204" type="line" smooth="yes"/>
      <point x="49.6258" y="87.7916"/>
      <point x="149.154" y="-10"/>
      <point x="288" y="-10" type="qcurve" smooth="yes"/>
      <point x="868" y="-10" type="line" smooth="yes"/>
      <point x="1008.36" y="-10"/>
      <point x="1141.63" y="87.7916"/>
      <point x="1162" y="204" type="qcurve" smooth="yes"/>
      <point x="1267" y="806" type="line" smooth="yes"/>
      <point x="1285.87" y="914.662"/>
      <point x="1184.09" y="1010"/>
      <point x="1046" y="1010" type="qcurve" smooth="yes"/>
      <point x="466" y="1010" type="line" smooth="yes"/>
      <point x="328.663" y="1010"/>
      <point x="193.865" y="914.662"/>
      <point x="175" y="806" type="qcurve" smooth="yes"/>
    </contour>
    <contour>
      <point x="319" y="214" type="qcurve"/>
      <point x="419" y="786" type="line"/>
      <point x="419" y="786"/>
      <point x="419" y="786"/>
      <point x="419" y="786" type="qcurve"/>
      <point x="1015" y="786" type="line"/>
      <point x="1015" y="786"/>
      <point x="1015" y="786"/>
      <point x="1015" y="786" type="qcurve"/>
      <point x="915" y="214" type="line"/>
      <point x="915" y="214"/>
      <point x="915" y="214"/>
      <point x="915" y="214" type="qcurve"/>
      <point x="319" y="214" type="line"/>
      <point x="319" y="214"/>
      <point x="319" y="214"/>
    </contour>
    <contour>
      <point x="1096.28" y="1085" type="line"/>
      <point x="879.525" y="1448" type="line"/>
      <point x="632.025" y="1448" type="line"/>
      <point x="875.783" y="1085" type="line"/>
    </contour>
    <contour>
      <point x="686.283" y="1085" type="line"/>
      <point x="469.525" y="1448" type="line"/>
      <point x="222.025" y="1448" type="line"/>
      <point x="465.783" y="1085" type="line"/>
    </contour>
  </outline>
</glyph>
<glyph name="uni020E" format="2">
  <advance width="1792"/>
  <unicode hex="020E"/>
  <anchor x="1042" y="1564" name="top"/>
  <anchor x="743" y="-164" name="bottom"/>
  <anchor x="1701" y="1140" name="horn"/>
  <anchor x="867" y="0" name="ogonek"/>
  <outline>
    <contour>
      <point x="252" y="1140" type="qcurve" smooth="yes"/>
      <point x="100" y="272" type="line" smooth="yes"/>
      <point x="69.816" y="95.4236"/>
      <point x="231.516" y="-14"/>
      <point x="393" y="-14" type="qcurve" smooth="yes"/>
      <point x="1159" y="-14" type="line" smooth="yes"/>
      <point x="1320.48" y="-14"/>
      <point x="1521.06" y="93.9144"/>
      <point x="1552" y="272" type="qcurve" smooth="yes"/>
      <point x="1704" y="1140" type="line" smooth="yes"/>
      <point x="1734" y="1311"/>
      <point x="1559.5" y="1414"/>
      <point x="1408" y="1414" type="qcurve" smooth="yes"/>
      <point x="642" y="1414" type="line" smooth="yes"/>
      <point x="490.5" y="1414"/>
      <point x="282" y="1311"/>
    </contour>
    <contour>
      <point x="521" y="1170" type="line"/>
      <point x="521" y="1170"/>
      <point x="521" y="1170"/>
      <point x="521" y="1170" type="qcurve"/>
      <point x="1445" y="1170" type="line"/>
      <point x="1445" y="1170"/>
      <point x="1445" y="1170"/>
      <point x="1445" y="1170" type="qcurve"/>
      <point x="1281" y="230" type="line"/>
      <point x="1281" y="230"/>
      <point x="1281" y="230"/>
      <point x="1281" y="230" type="qcurve"/>
      <point x="357" y="230" type="line"/>
      <point x="357" y="230"/>
      <point x="357" y="230"/>
      <point x="357" y="230" type="qcurve"/>
    </contour>
    <contour>
      <point x="1101.97" y="1814" type="qcurve" smooth="yes"/>
      <point x="1013.47" y="1814"/>
      <point x="882.067" y="1785.03"/>
      <point x="789.172" y="1716.22"/>
      <point x="731.244" y="1602.12"/>
      <point x="716.22" y="1517" type="qcurve"/>
      <point x="885.22" y="1517" type="line"/>
      <point x="892.093" y="1555.62"/>
      <point x="917.513" y="1605.28"/>
      <point x="958.569" y="1633.97"/>
      <point x="1017.24" y="1645"/>
      <point x="1057.37" y="1645" type="qcurve" smooth="yes"/>
      <point x="1096.37" y="1645"/>
      <point x="1150.6" y="1633.97"/>
      <point x="1181.73" y="1605.28"/>
      <point x="1190.09" y="1555.62"/>
      <point x="1183.22" y="1517" type="qcurve"/>
      <point x="1352.22" y="1517" type="line"/>
      <point x="1367.24" y="1602.12"/>
      <point x="1358.89" y="1716.22"/>
      <point x="1301.6" y="1785.03"/>
      <point x="1190.1" y="1814"/>
    </contour>
  </outline>
</glyph>
<glyph name="uni020F" format="2">
  <advance width="1396"/>
  <unicode hex="020F"/>
  <anchor x="778" y="1150" name="top"/>
  <anchor x="551" y="-150" name="bottom"/>
  <anchor x="1263" y="804" name="horn"/>
  <anchor x="675" y="0" name="ogonek"/>
  <outline>
    <contour>
      <point x="70" y="204" type="line" smooth="yes"/>
      <point x="49.6258" y="87.7916"/>
      <point x="149.154" y="-10"/>
      <point x="288" y="-10" type="qcurve" smooth="yes"/>
      <point x="868" y="-10" type="line" smooth="yes"/>
      <point x="1008.36" y="-10"/>
      <point x="1141.63" y="87.7916"/>
      <point x="1162" y="204" type="qcurve" smooth="yes"/>
      <point x="1267" y="806" type="line" smooth="yes"/>
      <point x="1285.87" y="914.662"/>
      <point x="1184.09" y="1010"/>
      <point x="1046" y="1010" type="qcurve" smooth="yes"/>
      <point x="466" y="1010" type="line" smooth="yes"/>
      <point x="328.663" y="1010"/>
      <point x="193.865" y="914.662"/>
      <point x="175" y="806" type="qcurve" smooth="yes"/>
    </contour>
    <contour>
      <point x="319" y="214" type="qcurve"/>
      <point x="419" y="786" type="line"/>
      <point x="419" y="786"/>
      <point x="419" y="786"/>
      <point x="419" y="786" type="qcurve"/>
      <point x="1015" y="786" type="line"/>
      <point x="1015" y="786"/>
      <point x="1015" y="786"/>
      <point x="1015" y="786" type="qcurve"/>
      <point x="915" y="214" type="line"/>
      <point x="915" y="214"/>
      <point x="915" y="214"/>
      <point x="915" y="214" type="qcurve"/>
      <point x="319" y="214" type="line"/>
      <point x="319" y="214"/>
      <point x="319" y="214"/>
    </contour>
    <contour>
      <point x="841.972" y="1410" type="qcurve" smooth="yes"/>
      <point x="756.472" y="1410"/>
      <point x="634.62" y="1382.69"/>
      <point x="550.339" y="1313.31"/>
      <point x="497.84" y="1194.5"/>
      <point x="481.693" y="1103" type="qcurve"/>
      <point x="636.693" y="1103" type="line"/>
      <point x="644.844" y="1149.5"/>
      <point x="666.166" y="1208.62"/>
      <point x="701.882" y="1242.38"/>
      <point x="756.678" y="1255"/>
      <point x="798.303" y="1255" type="qcurve" smooth="yes"/>
      <point x="838.803" y="1255"/>
      <point x="888.288" y="1242.38"/>
      <point x="912.009" y="1208.62"/>
      <point x="912.844" y="1149.5"/>
      <point x="904.693" y="1103" type="qcurve"/>
      <point x="1059.69" y="1103" type="line"/>
      <point x="1075.84" y="1194.5"/>
      <point x="1075.68" y="1313.31"/>
      <point x="1028.53" y="1382.69"/>
      <point x="927.097" y="1410"/>
    </contour>
  </outline>
</glyph>
<glyph name="uni0211" format="2">
  <advance width="1142"/>
  <unicode hex="0211"/>
  <anchor x="712" y="1160" name="top"/>
  <anchor x="157" y="-150" name="bottom"/>
  <anchor x="47" y="505" name="left"/>
  <outline>
    <contour>
      <point x="62" y="0" type="line"/>
      <point x="310" y="0" type="line"/>
      <point x="447" y="786" type="line"/>
      <point x="853" y="786" type="line"/>
      <point x="853" y="786"/>
      <point x="853" y="786"/>
      <point x="853" y="786" type="qcurve"/>
      <point x="830" y="654" type="line"/>
      <point x="1086" y="701" type="line"/>
      <point x="1097" y="760" type="line" smooth="yes"/>
      <point x="1108.62" y="826.75"/>
      <point x="1089.16" y="921.562"/>
      <point x="1022.59" y="981.938"/>
      <point x="906.75" y="1010"/>
      <point x="822" y="1010" type="qcurve" smooth="yes"/>
      <point x="768" y="1010" type="line" smooth="yes"/>
      <point x="650.282" y="1010"/>
      <point x="507.239" y="957.313"/>
      <point x="468" y="906" type="qcurve"/>
      <point x="485" y="1000" type="line"/>
      <point x="237" y="1000" type="line"/>
    </contour>
    <contour>
      <point x="1030.28" y="1095" type="line"/>
      <point x="813.525" y="1458" type="line"/>
      <point x="566.025" y="1458" type="line"/>
      <point x="809.783" y="1095" type="line"/>
    </contour>
    <contour>
      <point x="620.283" y="1095" type="line"/>
      <point x="403.525" y="1458" type="line"/>
      <point x="156.025" y="1458" type="line"/>
      <point x="399.783" y="1095" type="line"/>
    </contour>
  </outline>
  <guideline angle="0" x="0" y="988"/>
  <guideline angle="0" x="0" y="870"/>
</glyph>
<glyph name="uni0213" format="2">
  <advance width="1142"/>
  <unicode hex="0213"/>
  <anchor x="712" y="1160" name="top"/>
  <anchor x="157" y="-150" name="bottom"/>
  <anchor x="47" y="505" name="left"/>
  <outline>
    <contour>
      <point x="62" y="0" type="line"/>
      <point x="310" y="0" type="line"/>
      <point x="447" y="786" type="line"/>
      <point x="853" y="786" type="line"/>
      <point x="853" y="786"/>
      <point x="853" y="786"/>
      <point x="853" y="786" type="qcurve"/>
      <point x="830" y="654" type="line"/>
      <point x="1086" y="701" type="line"/>
      <point x="1097" y="760" type="line" smooth="yes"/>
      <point x="1108.62" y="826.75"/>
      <point x="1089.16" y="921.562"/>
      <point x="1022.59" y="981.938"/>
      <point x="906.75" y="1010"/>
      <point x="822" y="1010" type="qcurve" smooth="yes"/>
      <point x="768" y="1010" type="line" smooth="yes"/>
      <point x="650.282" y="1010"/>
      <point x="507.239" y="957.313"/>
      <point x="468" y="906" type="qcurve"/>
      <point x="485" y="1000" type="line"/>
      <point x="237" y="1000" type="line"/>
    </contour>
    <contour>
      <point x="775.972" y="1420" type="qcurve" smooth="yes"/>
      <point x="690.472" y="1420"/>
      <point x="568.62" y="1392.69"/>
      <point x="484.339" y="1323.31"/>
      <point x="431.84" y="1204.5"/>
      <point x="415.693" y="1113" type="qcurve"/>
      <point x="570.693" y="1113" type="line"/>
      <point x="578.844" y="1159.5"/>
      <point x="600.166" y="1218.62"/>
      <point x="635.882" y="1252.38"/>
      <point x="690.678" y="1265"/>
      <point x="732.303" y="1265" type="qcurve" smooth="yes"/>
      <point x="772.803" y="1265"/>
      <point x="822.288" y="1252.38"/>
      <point x="846.009" y="1218.62"/>
      <point x="846.844" y="1159.5"/>
      <point x="838.693" y="1113" type="qcurve"/>
      <point x="993.693" y="1113" type="line"/>
      <point x="1009.84" y="1204.5"/>
      <point x="1009.68" y="1323.31"/>
      <point x="962.526" y="1392.69"/>
      <point x="861.097" y="1420"/>
    </contour>
  </outline>
  <guideline angle="0" x="0" y="988"/>
  <guideline angle="0" x="0" y="870"/>
</glyph>
<glyph name="uni0216" format="2">
  <advance width="1696"/>
  <unicode hex="0216"/>
  <anchor x="999" y="1550" name="top"/>
  <anchor x="702" y="-150" name="bottom"/>
  <anchor x="826" y="0" name="ogonek"/>
  <anchor x="1635" y="1400" name="horn"/>
  <outline>
    <contour>
      <point x="312" y="1400" type="line"/>
      <point x="115" y="272" type="line" smooth="yes"/>
      <point x="99.625" y="183.5"/>
      <point x="127.719" y="72"/>
      <point x="205.531" y="9"/>
      <point x="328.5" y="-14"/>
      <point x="408" y="-14" type="qcurve" smooth="yes"/>
      <point x="1048" y="-14" type="line" smooth="yes"/>
      <point x="1208.5" y="-14"/>
      <point x="1410.25" y="95"/>
      <point x="1441" y="272" type="qcurve" smooth="yes"/>
      <point x="1638" y="1400" type="line"/>
      <point x="1374" y="1400" type="line"/>
      <point x="1172" y="240" type="line"/>
      <point x="1172" y="240"/>
      <point x="1172" y="240"/>
      <point x="1172" y="240" type="qcurve"/>
      <point x="374" y="240" type="line"/>
      <point x="374" y="240"/>
      <point x="374" y="240"/>
      <point x="374" y="240" type="qcurve"/>
      <point x="576" y="1400" type="line"/>
    </contour>
    <contour>
      <point x="1058.97" y="1800" type="qcurve" smooth="yes"/>
      <point x="970.472" y="1800"/>
      <point x="839.067" y="1771.03"/>
      <point x="746.172" y="1702.22"/>
      <point x="688.244" y="1588.12"/>
      <point x="673.22" y="1503" type="qcurve"/>
      <point x="842.22" y="1503" type="line"/>
      <point x="849.093" y="1541.62"/>
      <point x="874.513" y="1591.28"/>
      <point x="915.569" y="1619.97"/>
      <point x="974.241" y="1631"/>
      <point x="1014.37" y="1631" type="qcurve" smooth="yes"/>
      <point x="1053.37" y="1631"/>
      <point x="1107.6" y="1619.97"/>
      <point x="1138.73" y="1591.28"/>
      <point x="1147.09" y="1541.62"/>
      <point x="1140.22" y="1503" type="qcurve"/>
      <point x="1309.22" y="1503" type="line"/>
      <point x="1324.24" y="1588.12"/>
      <point x="1315.89" y="1702.22"/>
      <point x="1258.6" y="1771.03"/>
      <point x="1147.1" y="1800"/>
    </contour>
  </outline>
</glyph>
<glyph name="uni0217" format="2">
  <advance width="1363"/>
  <unicode hex="0217"/>
  <anchor x="763" y="1150" name="top"/>
  <anchor x="534" y="-160" name="bottom"/>
  <anchor x="660" y="0" name="ogonek"/>
  <anchor x="1253" y="1000" name="horn"/>
  <outline>
    <contour>
      <point x="80" y="194" type="line" smooth="yes"/>
      <point x="58.1166" y="67.2272"/>
      <point x="173.301" y="-10"/>
      <point x="288" y="-10" type="qcurve" smooth="yes"/>
      <point x="830" y="-10" type="line" smooth="yes"/>
      <point x="944.699" y="-10"/>
      <point x="1090.12" y="67.2272"/>
      <point x="1112" y="194" type="qcurve" smooth="yes"/>
      <point x="1253" y="1000" type="line"/>
      <point x="1005" y="1000" type="line"/>
      <point x="867" y="214" type="line"/>
      <point x="867" y="214"/>
      <point x="867" y="214"/>
      <point x="867" y="214" type="qcurve"/>
      <point x="331" y="214" type="line"/>
      <point x="331" y="214"/>
      <point x="331" y="214"/>
      <point x="331" y="214" type="qcurve"/>
      <point x="469" y="1000" type="line"/>
      <point x="221" y="1000" type="line"/>
    </contour>
    <contour>
      <point x="826.972" y="1410" type="qcurve" smooth="yes"/>
      <point x="741.472" y="1410"/>
      <point x="619.62" y="1382.69"/>
      <point x="535.339" y="1313.31"/>
      <point x="482.84" y="1194.5"/>
      <point x="466.693" y="1103" type="qcurve"/>
      <point x="621.693" y="1103" type="line"/>
      <point x="629.844" y="1149.5"/>
      <point x="651.166" y="1208.62"/>
      <point x="686.882" y="1242.38"/>
      <point x="741.678" y="1255"/>
      <point x="783.303" y="1255" type="qcurve" smooth="yes"/>
      <point x="823.803" y="1255"/>
      <point x="873.288" y="1242.38"/>
      <point x="897.009" y="1208.62"/>
      <point x="897.844" y="1149.5"/>
      <point x="889.693" y="1103" type="qcurve"/>
      <point x="1044.69" y="1103" type="line"/>
      <point x="1060.84" y="1194.5"/>
      <point x="1060.68" y="1313.31"/>
      <point x="1013.53" y="1382.69"/>
      <point x="912.097" y="1410"/>
    </contour>
  </outline>
</glyph>
<glyph name="uni0219" format="2">
  <advance width="1277"/>
  <unicode hex="0219"/>
  <anchor x="720" y="1150" name="top"/>
  <anchor x="493" y="-150" name="bottom"/>
  <outline>
    <contour>
      <point x="68" y="252" type="line"/>
      <point x="57" y="194" type="line" smooth="yes"/>
      <point x="35.1166" y="67.2272"/>
      <point x="151.301" y="-10"/>
      <point x="266" y="-10" type="qcurve" smooth="yes"/>
      <point x="770" y="-10" type="line" smooth="yes"/>
      <point x="886.208" y="-10"/>
      <point x="1029.12" y="67.2272"/>
      <point x="1051" y="194" type="qcurve" smooth="yes"/>
      <point x="1090" y="414" type="line" smooth="yes"/>
      <point x="1111.88" y="539.264"/>
      <point x="988.172" y="610"/>
      <point x="878" y="610" type="qcurve" smooth="yes"/>
      <point x="372" y="610" type="line"/>
      <point x="372" y="610"/>
      <point x="372" y="610"/>
      <point x="372" y="610" type="qcurve"/>
      <point x="406" y="806" type="line"/>
      <point x="406" y="806"/>
      <point x="406" y="806"/>
      <point x="406" y="806" type="qcurve"/>
      <point x="924" y="806" type="line"/>
      <point x="924" y="806"/>
      <point x="924" y="806"/>
      <point x="924" y="806" type="qcurve"/>
      <point x="909" y="716" type="line"/>
      <point x="1136" y="760" type="line"/>
      <point x="1146" y="814" type="line" smooth="yes"/>
      <point x="1167.13" y="936.245"/>
      <point x="1044.17" y="1010"/>
      <point x="934" y="1010" type="qcurve" smooth="yes"/>
      <point x="466" y="1010" type="line" smooth="yes"/>
      <point x="358" y="1010"/>
      <point x="209" y="935.5"/>
      <point x="188" y="814" type="qcurve" smooth="yes"/>
      <point x="151" y="606" type="line" smooth="yes"/>
      <point x="129.117" y="479.227"/>
      <point x="244.301" y="400"/>
      <point x="359" y="400" type="qcurve" smooth="yes"/>
      <point x="867" y="400" type="line"/>
      <point x="867" y="400"/>
      <point x="867" y="400"/>
      <point x="867" y="400" type="qcurve"/>
      <point x="831" y="194" type="line"/>
      <point x="831" y="194"/>
      <point x="831" y="194"/>
      <point x="831" y="194" type="qcurve"/>
      <point x="277" y="194" type="line"/>
      <point x="277" y="194"/>
      <point x="277" y="194"/>
      <point x="277" y="194" type="qcurve"/>
      <point x="296" y="298" type="line"/>
    </contour>
    <contour>
      <point x="375" y="-605" type="line"/>
      <point x="564" y="-358" type="line" smooth="yes"/>
      <point x="573.81" y="-345.172"/>
      <point x="586.718" y="-303.184"/>
      <point x="592" y="-273" type="qcurve" smooth="yes"/>
      <point x="601" y="-219" type="line" smooth="yes"/>
      <point x="613.828" y="-150.331"/>
      <point x="593.914" y="-126"/>
      <point x="526" y="-126" type="qcurve" smooth="yes"/>
      <point x="467" y="-126" type="line" smooth="yes"/>
      <point x="399.841" y="-126"/>
      <point x="371.828" y="-150.331"/>
      <point x="359" y="-219" type="qcurve"/>
      <point x="350" y="-273" type="line" smooth="yes"/>
      <point x="337.926" y="-342.423"/>
      <point x="356.841" y="-367"/>
      <point x="424" y="-367" type="qcurve" smooth="yes"/>
      <point x="446" y="-367" type="line"/>
      <point x="309" y="-580" type="line"/>
    </contour>
  </outline>
</glyph>
<glyph name="uni022A" format="2">
  <advance width="1795"/>
  <unicode hex="022A"/>
  <anchor x="1149" y="2154" name="top"/>
  <anchor x="746" y="-164" name="bottom"/>
  <anchor x="1704" y="1140" name="horn"/>
  <anchor x="870" y="0" name="ogonek"/>
  <outline>
    <contour>
      <point x="252" y="1140" type="qcurve" smooth="yes"/>
      <point x="100" y="272" type="line" smooth="yes"/>
      <point x="69.816" y="95.4236"/>
      <point x="231.516" y="-14"/>
      <point x="393" y="-14" type="qcurve" smooth="yes"/>
      <point x="1159" y="-14" type="line" smooth="yes"/>
      <point x="1320.48" y="-14"/>
      <point x="1521.06" y="93.9144"/>
      <point x="1552" y="272" type="qcurve" smooth="yes"/>
      <point x="1704" y="1140" type="line" smooth="yes"/>
      <point x="1734" y="1311"/>
      <point x="1559.5" y="1414"/>
      <point x="1408" y="1414" type="qcurve" smooth="yes"/>
      <point x="642" y="1414" type="line" smooth="yes"/>
      <point x="490.5" y="1414"/>
      <point x="282" y="1311"/>
    </contour>
    <contour>
      <point x="521" y="1170" type="line"/>
      <point x="521" y="1170"/>
      <point x="521" y="1170"/>
      <point x="521" y="1170" type="qcurve"/>
      <point x="1445" y="1170" type="line"/>
      <point x="1445" y="1170"/>
      <point x="1445" y="1170"/>
      <point x="1445" y="1170" type="qcurve"/>
      <point x="1281" y="230" type="line"/>
      <point x="1281" y="230"/>
      <point x="1281" y="230"/>
      <point x="1281" y="230" type="qcurve"/>
      <point x="357" y="230" type="line"/>
      <point x="357" y="230"/>
      <point x="357" y="230"/>
      <point x="357" y="230" type="qcurve"/>
    </contour>
    <contour>
      <point x="800" y="1534" type="qcurve" smooth="yes"/>
      <point x="870" y="1534" type="line" smooth="yes"/>
      <point x="936.405" y="1534"/>
      <point x="963.926" y="1557.6"/>
      <point x="976" y="1624" type="qcurve" smooth="yes"/>
      <point x="988" y="1696" type="line" smooth="yes"/>
      <point x="999.319" y="1760.9"/>
      <point x="980.405" y="1784"/>
      <point x="914" y="1784" type="qcurve" smooth="yes"/>
      <point x="844" y="1784" type="line" smooth="yes"/>
      <point x="777.595" y="1784"/>
      <point x="749.319" y="1760.9"/>
      <point x="738" y="1696" type="qcurve" smooth="yes"/>
      <point x="726" y="1624" type="line" smooth="yes"/>
      <point x="713.926" y="1557.6"/>
      <point x="733.595" y="1534"/>
    </contour>
    <contour>
      <point x="1210" y="1534" type="qcurve" smooth="yes"/>
      <point x="1280" y="1534" type="line" smooth="yes"/>
      <point x="1346.4" y="1534"/>
      <point x="1373.93" y="1557.6"/>
      <point x="1386" y="1624" type="qcurve" smooth="yes"/>
      <point x="1398" y="1696" type="line" smooth="yes"/>
      <point x="1409.32" y="1760.9"/>
      <point x="1390.4" y="1784"/>
      <point x="1324" y="1784" type="qcurve" smooth="yes"/>
      <point x="1254" y="1784" type="line" smooth="yes"/>
      <point x="1187.6" y="1784"/>
      <point x="1159.32" y="1760.9"/>
      <point x="1148" y="1696" type="qcurve" smooth="yes"/>
      <point x="1136" y="1624" type="line" smooth="yes"/>
      <point x="1123.93" y="1557.6"/>
      <point x="1143.6" y="1534"/>
    </contour>
    <contour>
      <point x="767" y="1884" type="line"/>
      <point x="1437" y="1884" type="line"/>
      <point x="1466" y="2054" type="line"/>
      <point x="796" y="2054" type="line"/>
    </contour>
  </outline>
</glyph>
<glyph name="uni022D" format="2">
  <advance width="1396"/>
  <unicode hex="022D"/>
  <anchor x="886" y="1760" name="top"/>
  <anchor x="551" y="-150" name="bottom"/>
  <anchor x="1263" y="804" name="horn"/>
  <anchor x="675" y="0" name="ogonek"/>
  <outline>
    <contour>
      <point x="70" y="204" type="line" smooth="yes"/>
      <point x="49.6258" y="87.7916"/>
      <point x="149.154" y="-10"/>
      <point x="288" y="-10" type="qcurve" smooth="yes"/>
      <point x="868" y="-10" type="line" smooth="yes"/>
      <point x="1008.36" y="-10"/>
      <point x="1141.63" y="87.7916"/>
      <point x="1162" y="204" type="qcurve" smooth="yes"/>
      <point x="1267" y="806" type="line" smooth="yes"/>
      <point x="1285.87" y="914.662"/>
      <point x="1184.09" y="1010"/>
      <point x="1046" y="1010" type="qcurve" smooth="yes"/>
      <point x="466" y="1010" type="line" smooth="yes"/>
      <point x="328.663" y="1010"/>
      <point x="193.865" y="914.662"/>
      <point x="175" y="806" type="qcurve" smooth="yes"/>
    </contour>
    <contour>
      <point x="319" y="214" type="qcurve"/>
      <point x="419" y="786" type="line"/>
      <point x="419" y="786"/>
      <point x="419" y="786"/>
      <point x="419" y="786" type="qcurve"/>
      <point x="1015" y="786" type="line"/>
      <point x="1015" y="786"/>
      <point x="1015" y="786"/>
      <point x="1015" y="786" type="qcurve"/>
      <point x="915" y="214" type="line"/>
      <point x="915" y="214"/>
      <point x="915" y="214"/>
      <point x="915" y="214" type="qcurve"/>
      <point x="319" y="214" type="line"/>
      <point x="319" y="214"/>
      <point x="319" y="214"/>
    </contour>
    <contour>
      <point x="380" y="1159" type="qcurve"/>
      <point x="545" y="1131" type="line"/>
      <point x="564.62" y="1183.82"/>
      <point x="624.325" y="1220"/>
      <point x="653" y="1220" type="qcurve" smooth="yes"/>
      <point x="683.75" y="1220"/>
      <point x="744.031" y="1191.88"/>
      <point x="810.219" y="1158.12"/>
      <point x="885.875" y="1130"/>
      <point x="932" y="1130" type="qcurve" smooth="yes"/>
      <point x="1000.25" y="1130"/>
      <point x="1164.5" y="1226.5"/>
      <point x="1217" y="1372" type="qcurve"/>
      <point x="1052" y="1400" type="line"/>
      <point x="1032.38" y="1347.18"/>
      <point x="972.675" y="1311"/>
      <point x="944" y="1311" type="qcurve" smooth="yes"/>
      <point x="913.25" y="1311"/>
      <point x="852.969" y="1338.81"/>
      <point x="786.781" y="1372.19"/>
      <point x="711.125" y="1400"/>
      <point x="665" y="1400" type="qcurve" smooth="yes"/>
      <point x="596.75" y="1400"/>
      <point x="431.75" y="1303"/>
    </contour>
    <contour>
      <point x="505" y="1500" type="line"/>
      <point x="1175" y="1500" type="line"/>
      <point x="1203" y="1660" type="line"/>
      <point x="533" y="1660" type="line"/>
    </contour>
  </outline>
</glyph>
<glyph name="dotaccent" format="2">
  <advance width="281"/>
  <unicode hex="02D9"/>
  <outline>
    <contour>
      <point x="194" y="1152" type="qcurve" smooth="yes"/>
      <point x="254" y="1152" type="line" smooth="yes"/>
      <point x="320.405" y="1152"/>
      <point x="347.681" y="1175.1"/>
      <point x="359" y="1240" type="qcurve" smooth="yes"/>
      <point x="370" y="1302" type="line" smooth="yes"/>
      <point x="381.319" y="1366.9"/>
      <point x="362.405" y="1390"/>
      <point x="296" y="1390" type="qcurve" smooth="yes"/>
      <point x="236" y="1390" type="line" smooth="yes"/>
      <point x="169.595" y="1390"/>
      <point x="141.319" y="1366.9"/>
      <point x="130" y="1302" type="qcurve" smooth="yes"/>
      <point x="119" y="1240" type="line" smooth="yes"/>
      <point x="107.681" y="1175.1"/>
      <point x="127.595" y="1152"/>
    </contour>
  </outline>
</glyph>
<glyph name="hungarumlaut" format="2">
  <advance width="1202"/>
  <unicode hex="02DD"/>
  <outline>
    <contour>
      <point x="100" y="1085" type="line"/>
      <point x="321" y="1085" type="line"/>
      <point x="692" y="1448" type="line"/>
      <point x="445" y="1448" type="line"/>
    </contour>
    <contour>
      <point x="510" y="1085" type="line"/>
      <point x="731" y="1085" type="line"/>
      <point x="1102" y="1448" type="line"/>
      <point x="855" y="1448" type="line"/>
    </contour>
  </outline>
</glyph>
<glyph name="acutecomb" format="2">
  <unicode hex="0301"/>
  <anchor x="75" y="1150" name="_top"/>
  <anchor x="-93" y="1085" name="_topright"/>
  <outline>
    <contour>
      <point x="-163" y="1085" type="line"/>
      <point x="82" y="1085" type="line"/>
      <point x="488" y="1448" type="line"/>
      <point x="213" y="1448" type="line"/>
    </contour>
  </outline>
</glyph>
<glyph name="uni0302" format="2">
  <unicode hex="0302"/>
  <anchor x="75" y="1150" name="_top"/>
  <anchor x="154" y="1598" name="_bottom"/>
  <anchor x="480" y="1267" name="topright"/>
  <anchor x="145" y="1548" name="top"/>
  <outline>
    <contour>
      <point x="-319" y="1085" type="line"/>
      <point x="-82" y="1085" type="line"/>
      <point x="114" y="1305" type="line"/>
      <point x="239" y="1085" type="line"/>
      <point x="448" y="1085" type="line"/>
      <point x="210" y="1448" type="line"/>
      <point x="49" y="1448" type="line"/>
    </contour>
  </outline>
</glyph>
<glyph name="uni0307" format="2">
  <unicode hex="0307"/>
  <anchor x="80" y="1150" name="_top"/>
  <anchor x="153" y="1550" name="_bottom"/>
  <anchor x="139" y="1470" name="top"/>
  <outline>
    <contour>
      <point x="51" y="1152" type="qcurve" smooth="yes"/>
      <point x="111" y="1152" type="line" smooth="yes"/>
      <point x="177.405" y="1152"/>
      <point x="204.681" y="1175.1"/>
      <point x="216" y="1240" type="qcurve" smooth="yes"/>
      <point x="227" y="1302" type="line" smooth="yes"/>
      <point x="238.319" y="1366.9"/>
      <point x="219.405" y="1390"/>
      <point x="153" y="1390" type="qcurve" smooth="yes"/>
      <point x="93" y="1390" type="line" smooth="yes"/>
      <point x="26.5952" y="1390"/>
      <point x="-1.681" y="1366.9"/>
      <point x="-13" y="1302" type="qcurve" smooth="yes"/>
      <point x="-24" y="1240" type="line" smooth="yes"/>
      <point x="-35.319" y="1175.1"/>
      <point x="-15.4048" y="1152"/>
    </contour>
  </outline>
</glyph>
<glyph name="uni030A" format="2">
  <unicode hex="030A"/>
  <anchor x="75" y="1150" name="_top"/>
  <anchor x="149" y="1574" name="top"/>
  <outline>
    <contour>
      <point x="62" y="1079" type="qcurve" smooth="yes"/>
      <point x="125.375" y="1079"/>
      <point x="206.125" y="1093.59"/>
      <point x="256.375" y="1134.66"/>
      <point x="283.875" y="1208.12"/>
      <point x="294" y="1267" type="qcurve" smooth="yes"/>
      <point x="304.5" y="1325.88"/>
      <point x="302.781" y="1399.03"/>
      <point x="266.969" y="1439.72"/>
      <point x="191.375" y="1454"/>
      <point x="128" y="1454" type="qcurve" smooth="yes"/>
      <point x="64.25" y="1454"/>
      <point x="-16.3125" y="1439.72"/>
      <point x="-66.1875" y="1399.03"/>
      <point x="-93.5" y="1325.88"/>
      <point x="-104" y="1267" type="qcurve" smooth="yes"/>
      <point x="-114.125" y="1208.12"/>
      <point x="-112.594" y="1134.66"/>
      <point x="-77.1562" y="1093.59"/>
      <point x="-1.75" y="1079"/>
    </contour>
    <contour>
      <point x="82" y="1191" type="qcurve" smooth="yes"/>
      <point x="32.951" y="1191"/>
      <point x="15.454" y="1225.5"/>
      <point x="23" y="1267" type="qcurve" smooth="yes"/>
      <point x="30.546" y="1307.75"/>
      <point x="58.951" y="1342"/>
      <point x="108" y="1342" type="qcurve" smooth="yes"/>
      <point x="156.294" y="1342"/>
      <point x="174.546" y="1307.75"/>
      <point x="167" y="1267" type="qcurve" smooth="yes"/>
      <point x="159.454" y="1225.5"/>
      <point x="130.294" y="1191"/>
    </contour>
  </outline>
</glyph>
<glyph name="uni0312" format="2">
  <unicode hex="0312"/>
  <anchor x="65" y="1150" name="_top"/>
  <anchor x="-92" y="1105" name="_bottom"/>
  <outline>
    <contour>
      <point x="26" y="1560" type="line"/>
      <point x="-163" y="1313" type="line" smooth="yes"/>
      <point x="-172.81" y="1300.17"/>
      <point x="-185.718" y="1258.18"/>
      <point x="-191" y="1228" type="qcurve" smooth="yes"/>
      <point x="-200" y="1174" type="line" smooth="yes"/>
      <point x="-212.828" y="1105.33"/>
      <point x="-192.914" y="1081"/>
      <point x="-125" y="1081" type="qcurve" smooth="yes"/>
      <point x="-66" y="1081" type="line" smooth="yes"/>
      <point x="1.1594" y="1081"/>
      <point x="29.1718" y="1105.33"/>
      <point x="42" y="1174" type="qcurve"/>
      <point x="51" y="1228" type="line" smooth="yes"/>
      <point x="63.0736" y="1297.42"/>
      <point x="44.1594" y="1322"/>
      <point x="-23" y="1322" type="qcurve" smooth="yes"/>
      <point x="-45" y="1322" type="line"/>
      <point x="92" y="1535" type="line"/>
    </contour>
  </outline>
</glyph>
<glyph name="uni0327" format="2">
  <unicode hex="0327"/>
  <anchor x="-26" y="-150" name="_bottom"/>
  <outline>
    <contour>
      <point x="-87" y="-438" type="qcurve" smooth="yes"/>
      <point x="-41.25" y="-438"/>
      <point x="36.4062" y="-419.719"/>
      <point x="95.8438" y="-382.031"/>
      <point x="134.875" y="-324.375"/>
      <point x="142" y="-285" type="qcurve" smooth="yes"/>
      <point x="149.5" y="-242.25"/>
      <point x="134.594" y="-176.531"/>
      <point x="91.6562" y="-131.719"/>
      <point x="21.625" y="-108.375"/>
      <point x="-26" y="-108" type="qcurve"/>
      <point x="43" y="0" type="line"/>
      <point x="-43" y="0" type="line"/>
      <point x="-187" y="-225" type="line"/>
      <point x="-161.344" y="-217.454"/>
      <point x="-116.638" y="-210"/>
      <point x="-94" y="-210" type="qcurve" smooth="yes"/>
      <point x="-58.5338" y="-210"/>
      <point x="-23.7178" y="-238.816"/>
      <point x="-29" y="-269" type="qcurve" smooth="yes"/>
      <point x="-34.2822" y="-298.429"/>
      <point x="-79.5338" y="-331"/>
      <point x="-115" y="-331" type="qcurve" smooth="yes"/>
      <point x="-136.883" y="-331"/>
      <point x="-179.436" y="-319.546"/>
      <point x="-190" y="-312" type="qcurve"/>
      <point x="-247" y="-388" type="line"/>
      <point x="-217.571" y="-412.147"/>
      <point x="-139.822" y="-438"/>
    </contour>
  </outline>
</glyph>
<glyph name="uni0331" format="2">
  <unicode hex="0331"/>
  <anchor x="-132" y="-80" name="_bottom"/>
  <anchor x="-173" y="-310" name="_top"/>
  <anchor x="-121" y="-15" name="top"/>
  <outline>
    <contour>
      <point x="-502" y="-275" type="line"/>
      <point x="168" y="-275" type="line"/>
      <point x="196" y="-115" type="line"/>
      <point x="-474" y="-115" type="line"/>
    </contour>
  </outline>
</glyph>
<glyph name="uni0402" format="2">
  <advance width="1939"/>
  <unicode hex="0402"/>
  <outline>
    <contour>
      <point x="459" y="0" type="line"/>
      <point x="723" y="0" type="line"/>
      <point x="831" y="621" type="line"/>
      <point x="1437" y="621" type="line" smooth="yes"/>
      <point x="1489.82" y="621"/>
      <point x="1536.56" y="581.368"/>
      <point x="1526" y="521" type="qcurve" smooth="yes"/>
      <point x="1495" y="344" type="line" smooth="yes"/>
      <point x="1485.94" y="291.178"/>
      <point x="1424.82" y="244"/>
      <point x="1372" y="244" type="qcurve" smooth="yes"/>
      <point x="1141" y="244" type="line"/>
      <point x="1098" y="0" type="line"/>
      <point x="1355" y="0" type="line" smooth="yes"/>
      <point x="1430.75" y="0"/>
      <point x="1560.94" y="21.5"/>
      <point x="1662.56" y="81.5"/>
      <point x="1732" y="188.5"/>
      <point x="1747" y="274" type="qcurve" smooth="yes"/>
      <point x="1805" y="605" type="line" smooth="yes"/>
      <point x="1816.25" y="670.25"/>
      <point x="1790.31" y="767.812"/>
      <point x="1715.69" y="832.688"/>
      <point x="1592.25" y="865"/>
      <point x="1506" y="865" type="qcurve" smooth="yes"/>
      <point x="874" y="865" type="line"/>
      <point x="925" y="1156" type="line"/>
      <point x="1481" y="1156" type="line"/>
      <point x="1523" y="1400" type="line"/>
      <point x="147" y="1400" type="line"/>
      <point x="105" y="1156" type="line"/>
      <point x="661" y="1156" type="line"/>
    </contour>
  </outline>
  <guideline angle="260.1" color="1,0,0,1" x="660.858" y="1156"/>
</glyph>
<glyph name="uni0407" format="2">
  <advance width="1038"/>
  <unicode hex="0407"/>
  <anchor x="728" y="1860" name="top"/>
  <anchor x="377" y="-150" name="bottom"/>
  <anchor x="467" y="0" name="ogonek"/>
  <outline>
    <contour>
      <point x="274" y="0" type="line"/>
      <point x="538" y="0" type="line"/>
      <point x="782" y="1400" type="line"/>
      <point x="518" y="1400" type="line"/>
    </contour>
    <contour>
      <point x="443" y="1546" type="qcurve" smooth="yes"/>
      <point x="503" y="1546" type="line" smooth="yes"/>
      <point x="569.405" y="1546"/>
      <point x="596.926" y="1569.6"/>
      <point x="609" y="1636" type="qcurve" smooth="yes"/>
      <point x="620" y="1698" type="line" smooth="yes"/>
      <point x="631.319" y="1762.9"/>
      <point x="611.405" y="1786"/>
      <point x="545" y="1786" type="qcurve" smooth="yes"/>
      <point x="485" y="1786" type="line" smooth="yes"/>
      <point x="418.595" y="1786"/>
      <point x="391.319" y="1762.9"/>
      <point x="380" y="1698" type="qcurve" smooth="yes"/>
      <point x="369" y="1636" type="line" smooth="yes"/>
      <point x="356.926" y="1569.6"/>
      <point x="376.595" y="1546"/>
    </contour>
    <contour>
      <point x="843" y="1546" type="qcurve" smooth="yes"/>
      <point x="903" y="1546" type="line" smooth="yes"/>
      <point x="969.405" y="1546"/>
      <point x="996.926" y="1569.6"/>
      <point x="1009" y="1636" type="qcurve" smooth="yes"/>
      <point x="1020" y="1698" type="line" smooth="yes"/>
      <point x="1031.32" y="1762.9"/>
      <point x="1011.4" y="1786"/>
      <point x="945" y="1786" type="qcurve" smooth="yes"/>
      <point x="885" y="1786" type="line" smooth="yes"/>
      <point x="818.595" y="1786"/>
      <point x="791.319" y="1762.9"/>
      <point x="780" y="1698" type="qcurve" smooth="yes"/>
      <point x="769" y="1636" type="line" smooth="yes"/>
      <point x="756.926" y="1569.6"/>
      <point x="776.595" y="1546"/>
    </contour>
  </outline>
</glyph>
<glyph name="uni040C" format="2">
  <advance width="1668"/>
  <unicode hex="040C"/>
  <anchor x="983" y="1550" name="top"/>
  <anchor x="786" y="-150" name="bottom"/>
  <anchor x="825" y="1485" name="topright"/>
  <outline>
    <contour>
      <point x="1645" y="1400" type="line"/>
      <point x="1286" y="1400" type="line"/>
      <point x="421" y="740" type="line"/>
      <point x="479" y="740" type="line"/>
      <point x="591" y="1400" type="line"/>
      <point x="327" y="1400" type="line"/>
      <point x="83" y="0" type="line"/>
      <point x="347" y="0" type="line"/>
      <point x="471" y="735" type="line"/>
      <point x="395" y="735" type="line"/>
      <point x="1165" y="0" type="line"/>
      <point x="1548" y="0" type="line"/>
      <point x="750" y="750" type="line"/>
      <point x="741" y="721" type="line"/>
    </contour>
    <contour>
      <point x="751" y="1485" type="line"/>
      <point x="1033" y="1485" type="line"/>
      <point x="1421" y="1800" type="line"/>
      <point x="1093" y="1800" type="line"/>
    </contour>
  </outline>
</glyph>
<glyph name="uni0415" format="2">
  <advance width="1571"/>
  <unicode hex="0415"/>
  <anchor x="980" y="1550" name="top"/>
  <anchor x="683" y="-150" name="bottom"/>
  <anchor x="1261" y="0" name="ogonek"/>
  <outline>
    <contour>
      <point x="83" y="0" type="line"/>
      <point x="1341" y="0" type="line"/>
      <point x="1384" y="244" type="line"/>
      <point x="390" y="244" type="line"/>
      <point x="451" y="596" type="line"/>
      <point x="1039" y="596" type="line"/>
      <point x="1082" y="840" type="line"/>
      <point x="494" y="840" type="line"/>
      <point x="549" y="1156" type="line"/>
      <point x="1523" y="1156" type="line"/>
      <point x="1565" y="1400" type="line"/>
      <point x="327" y="1400" type="line"/>
    </contour>
  </outline>
  <guideline angle="90" x="-227" y="0"/>
</glyph>
<glyph name="uni0416" format="2">
  <advance width="2234"/>
  <unicode hex="0416"/>
  <anchor x="1268" y="1550" name="top"/>
  <anchor x="971" y="-150" name="bottom"/>
  <outline>
    <contour>
      <point x="-120" y="0" type="line"/>
      <point x="269" y="0" type="line"/>
      <point x="974" y="624" type="line"/>
      <point x="865" y="0" type="line"/>
      <point x="1129" y="0" type="line"/>
      <point x="1238" y="624" type="line"/>
      <point x="1735" y="0" type="line"/>
      <point x="2114" y="0" type="line"/>
      <point x="1522" y="720" type="line"/>
      <point x="2270" y="1400" type="line"/>
      <point x="1931" y="1400" type="line"/>
      <point x="1268" y="799" type="line"/>
      <point x="1373" y="1400" type="line"/>
      <point x="1109" y="1400" type="line"/>
      <point x="1004" y="799" type="line"/>
      <point x="541" y="1400" type="line"/>
      <point x="222" y="1400" type="line"/>
      <point x="734" y="753" type="line"/>
    </contour>
  </outline>
</glyph>
<glyph name="uni0418" format="2">
  <advance width="1821"/>
  <unicode hex="0418"/>
  <anchor x="767" y="-150" name="bottom"/>
  <anchor x="1064" y="1550" name="top"/>
  <outline>
    <contour>
      <point x="83" y="0" type="line"/>
      <point x="287" y="0" type="line"/>
      <point x="1412" y="1000" type="line"/>
      <point x="1237" y="0" type="line"/>
      <point x="1501" y="0" type="line"/>
      <point x="1745" y="1400" type="line"/>
      <point x="1541" y="1400" type="line"/>
      <point x="416" y="393" type="line"/>
      <point x="591" y="1400" type="line"/>
      <point x="327" y="1400" type="line"/>
    </contour>
  </outline>
</glyph>
<glyph name="uni041A" format="2">
  <advance width="1668"/>
  <unicode hex="041A"/>
  <anchor x="983" y="1550" name="top"/>
  <anchor x="786" y="-150" name="bottom"/>
  <outline>
    <contour>
      <point x="1645" y="1400" type="line"/>
      <point x="1286" y="1400" type="line"/>
      <point x="421" y="740" type="line"/>
      <point x="479" y="740" type="line"/>
      <point x="591" y="1400" type="line"/>
      <point x="327" y="1400" type="line"/>
      <point x="83" y="0" type="line"/>
      <point x="347" y="0" type="line"/>
      <point x="471" y="735" type="line"/>
      <point x="395" y="735" type="line"/>
      <point x="1165" y="0" type="line"/>
      <point x="1548" y="0" type="line"/>
      <point x="750" y="750" type="line"/>
      <point x="741" y="721" type="line"/>
    </contour>
  </outline>
</glyph>
<glyph name="uni0423" format="2">
  <advance width="1539"/>
  <unicode hex="0423"/>
  <anchor x="922" y="1550" name="top"/>
  <outline>
    <contour>
      <point x="193" y="0" type="line"/>
      <point x="452" y="0" type="line" smooth="yes"/>
      <point x="534.251" y="0"/>
      <point x="686.423" y="86.313"/>
      <point x="740" y="158" type="qcurve" smooth="yes"/>
      <point x="1665" y="1400" type="line"/>
      <point x="1354" y="1400" type="line"/>
      <point x="788" y="639" type="line"/>
      <point x="447" y="1400" type="line"/>
      <point x="127" y="1400" type="line"/>
      <point x="591" y="374" type="line"/>
      <point x="494" y="244" type="line"/>
      <point x="494" y="244"/>
      <point x="494" y="244"/>
      <point x="494" y="244" type="qcurve"/>
      <point x="185" y="244" type="line"/>
    </contour>
  </outline>
  <guideline angle="90" x="400" y="0"/>
</glyph>
<glyph name="uni0429" format="2">
  <advance width="2386"/>
  <unicode hex="0429"/>
  <outline>
    <contour>
      <point x="83" y="0" type="line"/>
      <point x="2025" y="0" type="line"/>
      <point x="1991" y="-260" type="line"/>
      <point x="2221" y="-260" type="line"/>
      <point x="2309" y="244" type="line"/>
      <point x="2089" y="244" type="line"/>
      <point x="2291" y="1400" type="line"/>
      <point x="2027" y="1400" type="line"/>
      <point x="1845" y="244" type="line"/>
      <point x="1249" y="244" type="line"/>
      <point x="1451" y="1400" type="line"/>
      <point x="1187" y="1400" type="line"/>
      <point x="985" y="244" type="line"/>
      <point x="389" y="244" type="line"/>
      <point x="591" y="1400" type="line"/>
      <point x="327" y="1400" type="line"/>
    </contour>
  </outline>
</glyph>
<glyph name="uni042C" format="2">
  <advance width="1563"/>
  <unicode hex="042C"/>
  <outline>
    <contour>
      <point x="83" y="0" type="line"/>
      <point x="979" y="0" type="line" smooth="yes"/>
      <point x="1054.75" y="0"/>
      <point x="1184.94" y="21.5"/>
      <point x="1286.56" y="81.5"/>
      <point x="1356" y="188.5"/>
      <point x="1371" y="274" type="qcurve" smooth="yes"/>
      <point x="1432" y="622" type="line" smooth="yes"/>
      <point x="1443.25" y="687.25"/>
      <point x="1417.31" y="784.812"/>
      <point x="1342.69" y="849.688"/>
      <point x="1219.25" y="882"/>
      <point x="1133" y="882" type="qcurve" smooth="yes"/>
      <point x="501" y="882" type="line"/>
      <point x="591" y="1400" type="line"/>
      <point x="327" y="1400" type="line"/>
    </contour>
    <contour>
      <point x="390" y="244" type="line"/>
      <point x="458" y="638" type="line"/>
      <point x="1064" y="638" type="line" smooth="yes"/>
      <point x="1116.82" y="638"/>
      <point x="1163.56" y="598.368"/>
      <point x="1153" y="538" type="qcurve" smooth="yes"/>
      <point x="1119" y="344" type="line" smooth="yes"/>
      <point x="1109.94" y="291.178"/>
      <point x="1048.82" y="244"/>
      <point x="996" y="244" type="qcurve" smooth="yes"/>
    </contour>
  </outline>
</glyph>
<glyph name="uni0431" format="2">
  <advance width="1429"/>
  <unicode hex="0431"/>
  <outline>
    <contour>
      <point x="1124" y="1304" type="line"/>
      <point x="1114" y="1249" type="line"/>
      <point x="1114" y="1249"/>
      <point x="1114" y="1249"/>
      <point x="1114" y="1249" type="qcurve"/>
      <point x="611" y="1217" type="line" smooth="yes"/>
      <point x="449.516" y="1206.44"/>
      <point x="221.429" y="1073.79"/>
      <point x="192" y="904" type="qcurve" smooth="yes"/>
      <point x="67" y="190" type="line" smooth="yes"/>
      <point x="48.135" y="81.3376"/>
      <point x="149.154" y="-10"/>
      <point x="288" y="-10" type="qcurve" smooth="yes"/>
      <point x="898" y="-10" type="line" smooth="yes"/>
      <point x="1038.36" y="-10"/>
      <point x="1171.63" y="87.7916"/>
      <point x="1192" y="204" type="qcurve" smooth="yes"/>
      <point x="1271" y="660" type="line" smooth="yes"/>
      <point x="1289.87" y="768.662"/>
      <point x="1188.34" y="864"/>
      <point x="1051" y="864" type="qcurve" smooth="yes"/>
      <point x="635" y="864" type="line" smooth="yes"/>
      <point x="534.638" y="864"/>
      <point x="406.184" y="809.086"/>
      <point x="376" y="754" type="qcurve"/>
      <point x="390" y="834" type="line" smooth="yes"/>
      <point x="402.074" y="905.687"/>
      <point x="505.239" y="983.963"/>
      <point x="589" y="990" type="qcurve" smooth="yes"/>
      <point x="1069" y="1024" type="line" smooth="yes"/>
      <point x="1132" y="1028.5"/>
      <point x="1223.03" y="1056.94"/>
      <point x="1286.22" y="1112.06"/>
      <point x="1325.12" y="1197.5"/>
      <point x="1336" y="1259" type="qcurve" smooth="yes"/>
      <point x="1344" y="1304" type="line"/>
    </contour>
    <contour>
      <point x="319" y="214" type="line"/>
      <point x="319" y="214"/>
      <point x="319" y="214"/>
      <point x="319" y="214" type="qcurve"/>
      <point x="394" y="640" type="line"/>
      <point x="394" y="640"/>
      <point x="394" y="640"/>
      <point x="394" y="640" type="qcurve"/>
      <point x="1020" y="640" type="line"/>
      <point x="1020" y="640"/>
      <point x="1020" y="640"/>
      <point x="1020" y="640" type="qcurve"/>
      <point x="945" y="214" type="line"/>
      <point x="945" y="214"/>
      <point x="945" y="214"/>
      <point x="945" y="214" type="qcurve"/>
    </contour>
  </outline>
</glyph>
<glyph name="uni0433" format="2">
  <advance width="1098"/>
  <unicode hex="0433"/>
  <anchor x="689" y="1150" name="top"/>
  <outline>
    <contour>
      <point x="48" y="0" type="line"/>
      <point x="296" y="0" type="line"/>
      <point x="431" y="776" type="line"/>
      <point x="1063" y="776" type="line"/>
      <point x="1103" y="1000" type="line"/>
      <point x="223" y="1000" type="line"/>
    </contour>
  </outline>
</glyph>
<glyph name="uni0447" format="2">
  <advance width="1351"/>
  <unicode hex="0447"/>
  <anchor x="712" y="1150" name="top"/>
  <outline>
    <contour>
      <point x="817" y="0" type="line"/>
      <point x="1065" y="0" type="line"/>
      <point x="1239" y="1000" type="line"/>
      <point x="991" y="1000" type="line"/>
      <point x="911" y="538" type="line"/>
      <point x="385" y="538" type="line"/>
      <point x="385" y="538"/>
      <point x="385" y="538"/>
      <point x="385" y="538" type="qcurve"/>
      <point x="465" y="1000" type="line"/>
      <point x="217" y="1000" type="line"/>
      <point x="143" y="575" type="line" smooth="yes"/>
      <point x="121.117" y="448.982"/>
      <point x="265.663" y="314"/>
      <point x="403" y="314" type="qcurve" smooth="yes"/>
      <point x="872" y="314" type="line"/>
    </contour>
  </outline>
</glyph>
<glyph name="uni0448" format="2">
  <advance width="2008"/>
  <unicode hex="0448"/>
  <outline>
    <contour>
      <point x="48" y="0" type="line"/>
      <point x="1722" y="0" type="line"/>
      <point x="1897" y="1000" type="line"/>
      <point x="1649" y="1000" type="line"/>
      <point x="1513" y="224" type="line"/>
      <point x="1048" y="224" type="line"/>
      <point x="1184" y="1000" type="line"/>
      <point x="936" y="1000" type="line"/>
      <point x="800" y="224" type="line"/>
      <point x="335" y="224" type="line"/>
      <point x="471" y="1000" type="line"/>
      <point x="223" y="1000" type="line"/>
    </contour>
  </outline>
  <guideline angle="0" color="1,0,0,1" x="0" y="520"/>
</glyph>
<glyph name="uni0449" format="2">
  <advance width="2042"/>
  <unicode hex="0449"/>
  <outline>
    <contour>
      <point x="48" y="0" type="line"/>
      <point x="1709" y="0" type="line"/>
      <point x="1676" y="-260" type="line"/>
      <point x="1900" y="-260" type="line"/>
      <point x="1985" y="224" type="line"/>
      <point x="1762" y="224" type="line"/>
      <point x="1897" y="1000" type="line"/>
      <point x="1649" y="1000" type="line"/>
      <point x="1514" y="224" type="line"/>
      <point x="1049" y="224" type="line"/>
      <point x="1184" y="1000" type="line"/>
      <point x="936" y="1000" type="line"/>
      <point x="801" y="224" type="line"/>
      <point x="336" y="224" type="line"/>
      <point x="471" y="1000" type="line"/>
      <point x="223" y="1000" type="line"/>
    </contour>
  </outline>
  <guideline angle="260.1" color="1,0,0,1" name="align" x="1829" y="224"/>
</glyph>
<glyph name="uni045E" format="2">
  <advance width="1185"/>
  <unicode hex="045E"/>
  <anchor x="739" y="1510" name="top"/>
  <anchor x="764" y="-190" name="bottom"/>
  <outline>
    <contour>
      <point x="-112" y="-428" type="line"/>
      <point x="109" y="-428" type="line" smooth="yes"/>
      <point x="165.25" y="-428"/>
      <point x="248.062" y="-412.938"/>
      <point x="314.438" y="-376.562"/>
      <point x="371" y="-315.75"/>
      <point x="401" y="-270" type="qcurve" smooth="yes"/>
      <point x="1232" y="1000" type="line"/>
      <point x="958" y="1000" type="line"/>
      <point x="538" y="343" type="line"/>
      <point x="338" y="1000" type="line"/>
      <point x="66" y="1000" type="line"/>
      <point x="364" y="83" type="line"/>
      <point x="181" y="-204" type="line"/>
      <point x="181" y="-204"/>
      <point x="181" y="-204"/>
      <point x="181" y="-204" type="qcurve"/>
      <point x="-119" y="-204" type="line"/>
    </contour>
    <contour>
      <point x="684" y="1103" type="qcurve" smooth="yes"/>
      <point x="769.125" y="1103"/>
      <point x="880.188" y="1130.31"/>
      <point x="951.812" y="1199.69"/>
      <point x="993.875" y="1318.5"/>
      <point x="1010" y="1410" type="qcurve"/>
      <point x="855" y="1410" type="line"/>
      <point x="846.75" y="1363.5"/>
      <point x="825.062" y="1304.38"/>
      <point x="789.438" y="1270.62"/>
      <point x="735.5" y="1258"/>
      <point x="695" y="1258" type="qcurve" smooth="yes"/>
      <point x="653.375" y="1258"/>
      <point x="603.031" y="1270.62"/>
      <point x="579.219" y="1304.38"/>
      <point x="578.75" y="1363.5"/>
      <point x="587" y="1410" type="qcurve"/>
      <point x="432" y="1410" type="line"/>
      <point x="415.875" y="1318.5"/>
      <point x="426.469" y="1199.69"/>
      <point x="486.281" y="1130.31"/>
      <point x="598.5" y="1103"/>
    </contour>
  </outline>
</glyph>
<glyph name="uni045F" format="2">
  <advance width="1373"/>
  <unicode hex="045F"/>
  <outline>
    <contour>
      <point x="62" y="0" type="line"/>
      <point x="452" y="0" type="line"/>
      <point x="422" y="-240" type="line"/>
      <point x="642" y="-240" type="line"/>
      <point x="684" y="0" type="line"/>
      <point x="1073" y="0" type="line"/>
      <point x="1248" y="1000" type="line"/>
      <point x="1000" y="1000" type="line"/>
      <point x="864" y="224" type="line"/>
      <point x="349" y="224" type="line"/>
      <point x="485" y="1000" type="line"/>
      <point x="237" y="1000" type="line"/>
    </contour>
  </outline>
  <guideline angle="260.1" color="1,0,0,1" x="568" y="0"/>
</glyph>
<glyph name="uni0494" format="2">
  <advance width="1535"/>
  <unicode hex="0494"/>
  <outline>
    <contour>
      <point x="83" y="0" type="line"/>
      <point x="347" y="0" type="line"/>
      <point x="452" y="601" type="line"/>
      <point x="1069" y="601" type="line" smooth="yes"/>
      <point x="1121.82" y="601"/>
      <point x="1167.56" y="561.368"/>
      <point x="1157" y="501" type="qcurve" smooth="yes"/>
      <point x="1055" y="-84" type="line" smooth="yes"/>
      <point x="1045.94" y="-136.822"/>
      <point x="984.822" y="-184"/>
      <point x="932" y="-184" type="qcurve" smooth="yes"/>
      <point x="415" y="-184" type="line"/>
      <point x="372" y="-428" type="line"/>
      <point x="915" y="-428" type="line" smooth="yes"/>
      <point x="990.75" y="-428"/>
      <point x="1120.94" y="-406.5"/>
      <point x="1222.56" y="-346.5"/>
      <point x="1292" y="-239.5"/>
      <point x="1307" y="-154" type="qcurve" smooth="yes"/>
      <point x="1436" y="585" type="line" smooth="yes"/>
      <point x="1447.25" y="650.25"/>
      <point x="1421.31" y="747.812"/>
      <point x="1346.69" y="812.688"/>
      <point x="1223.25" y="845"/>
      <point x="1137" y="845" type="qcurve" smooth="yes"/>
      <point x="494" y="845" type="line"/>
      <point x="549" y="1156" type="line"/>
      <point x="1422" y="1156" type="line"/>
      <point x="1464" y="1400" type="line"/>
      <point x="327" y="1400" type="line"/>
    </contour>
  </outline>
</glyph>
<glyph name="uni049B" format="2">
  <advance width="1370"/>
  <unicode hex="049B"/>
  <outline>
    <contour>
      <point x="62" y="0" type="line"/>
      <point x="310" y="0" type="line"/>
      <point x="393" y="476" type="line"/>
      <point x="872" y="0" type="line" name="ATT"/>
      <point x="1008" y="0" type="line"/>
      <point x="978" y="-240" type="line"/>
      <point x="1198" y="-240" type="line"/>
      <point x="1279" y="224" type="line"/>
      <point x="1024" y="224" type="line"/>
      <point x="705" y="538" type="line"/>
      <point x="1307" y="1000" type="line"/>
      <point x="987" y="1000" type="line"/>
      <point x="405" y="547" type="line"/>
      <point x="485" y="1000" type="line"/>
      <point x="237" y="1000" type="line"/>
    </contour>
  </outline>
  <guideline angle="260.1" color="1,0,0,1" x="1307" y="1000"/>
  <guideline angle="135.47" color="1,0,0,1" x="1024" y="224"/>
</glyph>
<glyph name="uni049C" format="2">
  <advance width="1647"/>
  <unicode hex="049C"/>
  <outline>
    <contour>
      <point x="83" y="0" type="line"/>
      <point x="347" y="0" type="line"/>
      <point x="451" y="594" type="line"/>
      <point x="524" y="594" type="line"/>
      <point x="469" y="280" type="line"/>
      <point x="713" y="280" type="line"/>
      <point x="859" y="1120" type="line"/>
      <point x="615" y="1120" type="line"/>
      <point x="566" y="838" type="line"/>
      <point x="493" y="838" type="line"/>
      <point x="591" y="1400" type="line"/>
      <point x="327" y="1400" type="line"/>
    </contour>
    <contour>
      <point x="679" y="711" type="line"/>
      <point x="1174" y="0" type="line"/>
      <point x="1527" y="0" type="line"/>
      <point x="1026" y="735" type="line"/>
      <point x="1679" y="1400" type="line"/>
      <point x="1360" y="1400" type="line"/>
    </contour>
  </outline>
</glyph>
<glyph name="uni04A3" format="2">
  <advance width="1488"/>
  <unicode hex="04A3"/>
  <outline>
    <contour>
      <point x="48" y="0" type="line"/>
      <point x="296" y="0" type="line"/>
      <point x="368" y="412" type="line"/>
      <point x="904" y="412" type="line"/>
      <point x="832" y="0" type="line" name="ATT"/>
      <point x="969" y="0" type="line"/>
      <point x="939" y="-240" type="line"/>
      <point x="1159" y="-240" type="line"/>
      <point x="1240" y="224" type="line"/>
      <point x="1119" y="224" type="line"/>
      <point x="1255" y="1000" type="line"/>
      <point x="1007" y="1000" type="line"/>
      <point x="941" y="626" type="line"/>
      <point x="405" y="626" type="line"/>
      <point x="471" y="1000" type="line"/>
      <point x="223" y="1000" type="line"/>
    </contour>
  </outline>
</glyph>
<glyph name="uni04AB" format="2">
  <advance width="1342"/>
  <unicode hex="04AB"/>
  <anchor x="759" y="1150" name="top"/>
  <anchor x="532" y="-150" name="bottom"/>
  <outline>
    <contour>
      <point x="70" y="204" type="line" smooth="yes"/>
      <point x="49.6258" y="87.7916"/>
      <point x="147.644" y="-10"/>
      <point x="288" y="-10" type="qcurve" smooth="yes"/>
      <point x="850" y="-10" type="line" smooth="yes"/>
      <point x="990.356" y="-10"/>
      <point x="1123.63" y="87.7916"/>
      <point x="1144" y="204" type="qcurve" smooth="yes"/>
      <point x="1161" y="306" type="line"/>
      <point x="922" y="358" type="line"/>
      <point x="897" y="214" type="line"/>
      <point x="897" y="214"/>
      <point x="897" y="214"/>
      <point x="897" y="214" type="qcurve"/>
      <point x="319" y="214" type="line"/>
      <point x="319" y="214"/>
      <point x="319" y="214"/>
      <point x="319" y="214" type="qcurve"/>
      <point x="419" y="786" type="line"/>
      <point x="419" y="786"/>
      <point x="419" y="786"/>
      <point x="419" y="786" type="qcurve"/>
      <point x="993" y="786" type="line"/>
      <point x="993" y="786"/>
      <point x="993" y="786"/>
      <point x="993" y="786" type="qcurve"/>
      <point x="970" y="652" type="line"/>
      <point x="1226" y="700" type="line"/>
      <point x="1245" y="806" type="line" smooth="yes"/>
      <point x="1263.87" y="916.172"/>
      <point x="1162.85" y="1010"/>
      <point x="1024" y="1010" type="qcurve" smooth="yes"/>
      <point x="466" y="1010" type="line" smooth="yes"/>
      <point x="328.663" y="1010"/>
      <point x="193.865" y="916.172"/>
      <point x="175" y="806" type="qcurve" smooth="yes"/>
    </contour>
    <contour>
      <point x="529" y="-428" type="qcurve" smooth="yes"/>
      <point x="636.153" y="-428"/>
      <point x="768.736" y="-320.494"/>
      <point x="752.549" y="-229.762" type="qcurve" smooth="yes"/>
      <point x="740.061" y="-159.764"/>
      <point x="622.024" y="-33.957"/>
      <point x="536" y="0" type="qcurve"/>
      <point x="340" y="0" type="line"/>
      <point x="411.687" y="-12.0736"/>
      <point x="514.055" y="-92.7336"/>
      <point x="523.447" y="-144.189" type="qcurve" smooth="yes"/>
      <point x="531.41" y="-187.813"/>
      <point x="475.916" y="-239"/>
      <point x="420.31" y="-239" type="qcurve" smooth="yes"/>
      <point x="391.401" y="-239"/>
      <point x="330.184" y="-224.092"/>
      <point x="300" y="-209" type="qcurve"/>
      <point x="369" y="-388" type="line"/>
      <point x="412.767" y="-407.62"/>
      <point x="483.724" y="-428"/>
    </contour>
  </outline>
</glyph>
<glyph name="uni04B0" format="2">
  <advance width="1567"/>
  <unicode hex="04B0"/>
  <outline>
    <contour>
      <point x="534" y="0" type="line"/>
      <point x="798" y="0" type="line"/>
      <point x="837" y="226" type="line"/>
      <point x="1175" y="226" type="line"/>
      <point x="1215" y="450" type="line"/>
      <point x="877" y="450" type="line"/>
      <point x="905" y="613" type="line"/>
      <point x="1693" y="1400" type="line"/>
      <point x="1360" y="1400" type="line"/>
      <point x="821" y="854" type="line"/>
      <point x="501" y="1400" type="line"/>
      <point x="127" y="1400" type="line"/>
      <point x="641" y="612" type="line"/>
      <point x="613" y="450" type="line"/>
      <point x="275" y="450" type="line"/>
      <point x="235" y="226" type="line"/>
      <point x="573" y="226" type="line"/>
    </contour>
  </outline>
  <guideline angle="260.1" color="1,0,0,1" x="665.858" y="0"/>
</glyph>
<glyph name="uni04BA" format="2">
  <advance width="1755"/>
  <unicode hex="04BA"/>
  <anchor x="735" y="-150" name="top"/>
  <outline>
    <contour>
      <point x="591" y="1400" type="line"/>
      <point x="327" y="1400" type="line"/>
      <point x="83" y="0" type="line"/>
      <point x="347" y="0" type="line"/>
      <point x="460" y="649" type="line"/>
      <point x="1284" y="649" type="line"/>
      <point x="1284" y="649"/>
      <point x="1284" y="649"/>
      <point x="1284" y="649" type="qcurve"/>
      <point x="1171" y="0" type="line"/>
      <point x="1435" y="0" type="line"/>
      <point x="1540" y="603" type="line" smooth="yes"/>
      <point x="1555.38" y="692.25"/>
      <point x="1527.91" y="805.188"/>
      <point x="1450.84" y="869.312"/>
      <point x="1328.5" y="893"/>
      <point x="1249" y="893" type="qcurve" smooth="yes"/>
      <point x="503" y="893" type="line"/>
    </contour>
  </outline>
</glyph>
<glyph name="uni04C1" format="2">
  <advance width="2234"/>
  <unicode hex="04C1"/>
  <anchor x="1332" y="1910" name="top"/>
  <anchor x="971" y="-150" name="bottom"/>
  <outline>
    <contour>
      <point x="-120" y="0" type="line"/>
      <point x="269" y="0" type="line"/>
      <point x="974" y="624" type="line"/>
      <point x="865" y="0" type="line"/>
      <point x="1129" y="0" type="line"/>
      <point x="1238" y="624" type="line"/>
      <point x="1735" y="0" type="line"/>
      <point x="2114" y="0" type="line"/>
      <point x="1522" y="720" type="line"/>
      <point x="2270" y="1400" type="line"/>
      <point x="1931" y="1400" type="line"/>
      <point x="1268" y="799" type="line"/>
      <point x="1373" y="1400" type="line"/>
      <point x="1109" y="1400" type="line"/>
      <point x="1004" y="799" type="line"/>
      <point x="541" y="1400" type="line"/>
      <point x="222" y="1400" type="line"/>
      <point x="734" y="753" type="line"/>
    </contour>
    <contour>
      <point x="1277" y="1503" type="qcurve" smooth="yes"/>
      <point x="1362.12" y="1503"/>
      <point x="1473.19" y="1530.31"/>
      <point x="1544.81" y="1599.69"/>
      <point x="1586.88" y="1718.5"/>
      <point x="1603" y="1810" type="qcurve"/>
      <point x="1448" y="1810" type="line"/>
      <point x="1439.75" y="1763.5"/>
      <point x="1418.06" y="1704.38"/>
      <point x="1382.44" y="1670.62"/>
      <point x="1328.5" y="1658"/>
      <point x="1288" y="1658" type="qcurve" smooth="yes"/>
      <point x="1246.38" y="1658"/>
      <point x="1196.03" y="1670.62"/>
      <point x="1172.22" y="1704.38"/>
      <point x="1171.75" y="1763.5"/>
      <point x="1180" y="1810" type="qcurve"/>
      <point x="1025" y="1810" type="line"/>
      <point x="1008.88" y="1718.5"/>
      <point x="1019.47" y="1599.69"/>
      <point x="1079.28" y="1530.31"/>
      <point x="1191.5" y="1503"/>
    </contour>
  </outline>
</glyph>
<glyph name="uni04CB" format="2">
  <advance width="1735"/>
  <unicode hex="04CB"/>
  <outline>
    <contour>
      <point x="926" y="-260" type="line"/>
      <point x="1156" y="-260" type="line"/>
      <point x="1213" y="0" type="line"/>
      <point x="1415" y="0" type="line" name="ATT"/>
      <point x="1659" y="1400" type="line"/>
      <point x="1395" y="1400" type="line"/>
      <point x="1282" y="751" type="line"/>
      <point x="458" y="751" type="line"/>
      <point x="458" y="751"/>
      <point x="458" y="751"/>
      <point x="458" y="751" type="qcurve"/>
      <point x="571" y="1400" type="line"/>
      <point x="307" y="1400" type="line"/>
      <point x="202" y="797" type="line" smooth="yes"/>
      <point x="186.625" y="707.75"/>
      <point x="214.094" y="594.812"/>
      <point x="291.156" y="530.688"/>
      <point x="413.5" y="507"/>
      <point x="493" y="507" type="qcurve" smooth="yes"/>
      <point x="1239" y="507" type="line"/>
      <point x="1194" y="244" type="line"/>
      <point x="1014" y="244" type="line"/>
    </contour>
  </outline>
</glyph>
<glyph name="uni04CF" format="2">
  <advance width="608"/>
  <unicode hex="04CF"/>
  <anchor x="461" y="1598" name="top"/>
  <anchor x="158" y="-150" name="bottom"/>
  <anchor x="561" y="1448" name="right"/>
  <anchor x="610" y="700" name="eldot"/>
  <outline>
    <contour>
      <point x="61" y="0" type="line"/>
      <point x="309" y="0" type="line"/>
      <point x="562" y="1448" type="line"/>
      <point x="314" y="1448" type="line"/>
    </contour>
  </outline>
</glyph>
<glyph name="uni04D0" format="2">
  <advance width="1654"/>
  <unicode hex="04D0"/>
  <anchor x="1043" y="1910" name="top"/>
  <anchor x="682" y="-150" name="bottom"/>
  <anchor x="1222" y="0" name="ogonek_in"/>
  <outline>
    <contour>
      <point x="-120" y="0" type="line"/>
      <point x="175" y="0" type="line"/>
      <point x="399" y="326" type="line"/>
      <point x="1117" y="326" type="line"/>
      <point x="1227" y="0" type="line"/>
      <point x="1534" y="0" type="line"/>
      <point x="1050" y="1400" type="line"/>
      <point x="842" y="1400" type="line"/>
    </contour>
    <contour>
      <point x="564" y="566" type="line"/>
      <point x="880" y="1025" type="line"/>
      <point x="1036" y="566" type="line"/>
    </contour>
    <contour>
      <point x="988" y="1503" type="qcurve" smooth="yes"/>
      <point x="1073.12" y="1503"/>
      <point x="1184.19" y="1530.31"/>
      <point x="1255.81" y="1599.69"/>
      <point x="1297.88" y="1718.5"/>
      <point x="1314" y="1810" type="qcurve"/>
      <point x="1159" y="1810" type="line"/>
      <point x="1150.75" y="1763.5"/>
      <point x="1129.06" y="1704.38"/>
      <point x="1093.44" y="1670.62"/>
      <point x="1039.5" y="1658"/>
      <point x="999" y="1658" type="qcurve" smooth="yes"/>
      <point x="957.375" y="1658"/>
      <point x="907.031" y="1670.62"/>
      <point x="883.219" y="1704.38"/>
      <point x="882.75" y="1763.5"/>
      <point x="891" y="1810" type="qcurve"/>
      <point x="736" y="1810" type="line"/>
      <point x="719.875" y="1718.5"/>
      <point x="730.469" y="1599.69"/>
      <point x="790.281" y="1530.31"/>
      <point x="902.5" y="1503"/>
    </contour>
  </outline>
</glyph>
<glyph name="uni04D4" format="2">
  <advance width="2532"/>
  <unicode hex="04D4"/>
  <anchor x="1565" y="1550" name="top"/>
  <anchor x="1078" y="-150" name="bottom"/>
  <outline>
    <contour>
      <point x="-120" y="0" type="line"/>
      <point x="215" y="0" type="line"/>
      <point x="466" y="326" type="line"/>
      <point x="1101" y="326" type="line"/>
      <point x="1044" y="0" type="line"/>
      <point x="2302" y="0" type="line"/>
      <point x="2345" y="244" type="line"/>
      <point x="1351" y="244" type="line"/>
      <point x="1412" y="596" type="line"/>
      <point x="2000" y="596" type="line"/>
      <point x="2043" y="840" type="line"/>
      <point x="1455" y="840" type="line"/>
      <point x="1510" y="1156" type="line"/>
      <point x="2484" y="1156" type="line"/>
      <point x="2526" y="1400" type="line"/>
      <point x="968" y="1400" type="line"/>
    </contour>
    <contour>
      <point x="650" y="566" type="line"/>
      <point x="1104" y="1156" type="line"/>
      <point x="1246" y="1156" type="line"/>
      <point x="1143" y="566" type="line"/>
    </contour>
  </outline>
</glyph>
<glyph name="uni04DC" format="2">
  <advance width="2234"/>
  <unicode hex="04DC"/>
  <anchor x="1322" y="1860" name="top"/>
  <anchor x="971" y="-150" name="bottom"/>
  <outline>
    <contour>
      <point x="-120" y="0" type="line"/>
      <point x="269" y="0" type="line"/>
      <point x="974" y="624" type="line"/>
      <point x="865" y="0" type="line"/>
      <point x="1129" y="0" type="line"/>
      <point x="1238" y="624" type="line"/>
      <point x="1735" y="0" type="line"/>
      <point x="2114" y="0" type="line"/>
      <point x="1522" y="720" type="line"/>
      <point x="2270" y="1400" type="line"/>
      <point x="1931" y="1400" type="line"/>
      <point x="1268" y="799" type="line"/>
      <point x="1373" y="1400" type="line"/>
      <point x="1109" y="1400" type="line"/>
      <point x="1004" y="799" type="line"/>
      <point x="541" y="1400" type="line"/>
      <point x="222" y="1400" type="line"/>
      <point x="734" y="753" type="line"/>
    </contour>
    <contour>
      <point x="1037" y="1546" type="qcurve" smooth="yes"/>
      <point x="1097" y="1546" type="line" smooth="yes"/>
      <point x="1163.4" y="1546"/>
      <point x="1190.93" y="1569.6"/>
      <point x="1203" y="1636" type="qcurve" smooth="yes"/>
      <point x="1214" y="1698" type="line" smooth="yes"/>
      <point x="1225.32" y="1762.9"/>
      <point x="1205.4" y="1786"/>
      <point x="1139" y="1786" type="qcurve" smooth="yes"/>
      <point x="1079" y="1786" type="line" smooth="yes"/>
      <point x="1012.6" y="1786"/>
      <point x="985.319" y="1762.9"/>
      <point x="974" y="1698" type="qcurve" smooth="yes"/>
      <point x="963" y="1636" type="line" smooth="yes"/>
      <point x="950.926" y="1569.6"/>
      <point x="970.595" y="1546"/>
    </contour>
    <contour>
      <point x="1437" y="1546" type="qcurve" smooth="yes"/>
      <point x="1497" y="1546" type="line" smooth="yes"/>
      <point x="1563.4" y="1546"/>
      <point x="1590.93" y="1569.6"/>
      <point x="1603" y="1636" type="qcurve" smooth="yes"/>
      <point x="1614" y="1698" type="line" smooth="yes"/>
      <point x="1625.32" y="1762.9"/>
      <point x="1605.4" y="1786"/>
      <point x="1539" y="1786" type="qcurve" smooth="yes"/>
      <point x="1479" y="1786" type="line" smooth="yes"/>
      <point x="1412.6" y="1786"/>
      <point x="1385.32" y="1762.9"/>
      <point x="1374" y="1698" type="qcurve" smooth="yes"/>
      <point x="1363" y="1636" type="line" smooth="yes"/>
      <point x="1350.93" y="1569.6"/>
      <point x="1370.6" y="1546"/>
    </contour>
  </outline>
</glyph>
<glyph name="uni04DD" format="2">
  <advance width="1779"/>
  <unicode hex="04DD"/>
  <anchor x="1025" y="1460" name="top"/>
  <outline>
    <contour>
      <point x="-111" y="0" type="line"/>
      <point x="243" y="0" type="line"/>
      <point x="723" y="442" type="line"/>
      <point x="646" y="0" type="line"/>
      <point x="894" y="0" type="line"/>
      <point x="971" y="443" type="line"/>
      <point x="1298" y="0" type="line"/>
      <point x="1652" y="0" type="line"/>
      <point x="1240" y="542" type="line"/>
      <point x="1741" y="1000" type="line"/>
      <point x="1453" y="1000" type="line"/>
      <point x="994" y="574" type="line"/>
      <point x="1069" y="1000" type="line"/>
      <point x="821" y="1000" type="line"/>
      <point x="746" y="575" type="line"/>
      <point x="438" y="1000" type="line"/>
      <point x="150" y="1000" type="line"/>
      <point x="491" y="542" type="line"/>
    </contour>
    <contour>
      <point x="740" y="1146" type="qcurve" smooth="yes"/>
      <point x="800" y="1146" type="line" smooth="yes"/>
      <point x="866.405" y="1146"/>
      <point x="893.926" y="1169.6"/>
      <point x="906" y="1236" type="qcurve" smooth="yes"/>
      <point x="917" y="1298" type="line" smooth="yes"/>
      <point x="928.319" y="1362.9"/>
      <point x="908.405" y="1386"/>
      <point x="842" y="1386" type="qcurve" smooth="yes"/>
      <point x="782" y="1386" type="line" smooth="yes"/>
      <point x="715.595" y="1386"/>
      <point x="688.319" y="1362.9"/>
      <point x="677" y="1298" type="qcurve" smooth="yes"/>
      <point x="666" y="1236" type="line" smooth="yes"/>
      <point x="653.926" y="1169.6"/>
      <point x="673.595" y="1146"/>
    </contour>
    <contour>
      <point x="1140" y="1146" type="qcurve" smooth="yes"/>
      <point x="1200" y="1146" type="line" smooth="yes"/>
      <point x="1266.4" y="1146"/>
      <point x="1293.93" y="1169.6"/>
      <point x="1306" y="1236" type="qcurve" smooth="yes"/>
      <point x="1317" y="1298" type="line" smooth="yes"/>
      <point x="1328.32" y="1362.9"/>
      <point x="1308.4" y="1386"/>
      <point x="1242" y="1386" type="qcurve" smooth="yes"/>
      <point x="1182" y="1386" type="line" smooth="yes"/>
      <point x="1115.6" y="1386"/>
      <point x="1088.32" y="1362.9"/>
      <point x="1077" y="1298" type="qcurve" smooth="yes"/>
      <point x="1066" y="1236" type="line" smooth="yes"/>
      <point x="1053.93" y="1169.6"/>
      <point x="1073.6" y="1146"/>
    </contour>
  </outline>
</glyph>
<glyph name="uni04DE" format="2">
  <advance width="1496"/>
  <unicode hex="04DE"/>
  <anchor x="969" y="1860" name="top"/>
  <anchor x="731" y="0" name="ogonek"/>
  <outline>
    <contour>
      <point x="78" y="395" type="line"/>
      <point x="55" y="261" type="line" smooth="yes"/>
      <point x="27.8344" y="107.062"/>
      <point x="191.172" y="0"/>
      <point x="327" y="0" type="qcurve" smooth="yes"/>
      <point x="912" y="0" type="line" smooth="yes"/>
      <point x="992.625" y="0"/>
      <point x="1124.53" y="23.0625"/>
      <point x="1225.22" y="90.9375"/>
      <point x="1293.75" y="214.5"/>
      <point x="1311" y="315" type="qcurve" smooth="yes"/>
      <point x="1329" y="421" type="line" smooth="yes"/>
      <point x="1350.88" y="546.264"/>
      <point x="1279.13" y="699.098"/>
      <point x="1175" y="724" type="qcurve"/>
      <point x="1276.87" y="752.675"/>
      <point x="1395.13" y="888.847"/>
      <point x="1414" y="996" type="qcurve" smooth="yes"/>
      <point x="1431" y="1093" type="line" smooth="yes"/>
      <point x="1446.38" y="1180.75"/>
      <point x="1414.69" y="1298.62"/>
      <point x="1334.81" y="1369.88"/>
      <point x="1213.88" y="1400"/>
      <point x="1140" y="1400" type="qcurve" smooth="yes"/>
      <point x="571" y="1400" type="line" smooth="yes"/>
      <point x="500.125" y="1400"/>
      <point x="380.844" y="1386.03"/>
      <point x="288.406" y="1335.22"/>
      <point x="225" y="1236.12"/>
      <point x="210" y="1151" type="qcurve" smooth="yes"/>
      <point x="181" y="988" type="line"/>
      <point x="437" y="940" type="line"/>
      <point x="475" y="1156" type="line"/>
      <point x="475" y="1156"/>
      <point x="475" y="1156"/>
      <point x="475" y="1156" type="qcurve"/>
      <point x="1072" y="1156" type="line" smooth="yes"/>
      <point x="1118.03" y="1156"/>
      <point x="1169.81" y="1112.6"/>
      <point x="1160" y="1056" type="qcurve" smooth="yes"/>
      <point x="1139" y="935" type="line" smooth="yes"/>
      <point x="1129.19" y="876.141"/>
      <point x="1068.82" y="835"/>
      <point x="1016" y="835" type="qcurve" smooth="yes"/>
      <point x="625" y="835" type="line"/>
      <point x="583" y="598" type="line"/>
      <point x="990" y="598" type="line" smooth="yes"/>
      <point x="1042.82" y="598"/>
      <point x="1089.56" y="556.859"/>
      <point x="1079" y="498" type="qcurve" smooth="yes"/>
      <point x="1052" y="344" type="line" smooth="yes"/>
      <point x="1040.68" y="280.614"/>
      <point x="979.558" y="244"/>
      <point x="929" y="244" type="qcurve" smooth="yes"/>
      <point x="316" y="244" type="line"/>
      <point x="316" y="244"/>
      <point x="316" y="244"/>
      <point x="316" y="244" type="qcurve"/>
      <point x="350" y="442" type="line"/>
    </contour>
    <contour>
      <point x="684" y="1546" type="qcurve" smooth="yes"/>
      <point x="744" y="1546" type="line" smooth="yes"/>
      <point x="810.405" y="1546"/>
      <point x="837.926" y="1569.6"/>
      <point x="850" y="1636" type="qcurve" smooth="yes"/>
      <point x="861" y="1698" type="line" smooth="yes"/>
      <point x="872.319" y="1762.9"/>
      <point x="852.405" y="1786"/>
      <point x="786" y="1786" type="qcurve" smooth="yes"/>
      <point x="726" y="1786" type="line" smooth="yes"/>
      <point x="659.595" y="1786"/>
      <point x="632.319" y="1762.9"/>
      <point x="621" y="1698" type="qcurve" smooth="yes"/>
      <point x="610" y="1636" type="line" smooth="yes"/>
      <point x="597.926" y="1569.6"/>
      <point x="617.595" y="1546"/>
    </contour>
    <contour>
      <point x="1084" y="1546" type="qcurve" smooth="yes"/>
      <point x="1144" y="1546" type="line" smooth="yes"/>
      <point x="1210.4" y="1546"/>
      <point x="1237.93" y="1569.6"/>
      <point x="1250" y="1636" type="qcurve" smooth="yes"/>
      <point x="1261" y="1698" type="line" smooth="yes"/>
      <point x="1272.32" y="1762.9"/>
      <point x="1252.4" y="1786"/>
      <point x="1186" y="1786" type="qcurve" smooth="yes"/>
      <point x="1126" y="1786" type="line" smooth="yes"/>
      <point x="1059.6" y="1786"/>
      <point x="1032.32" y="1762.9"/>
      <point x="1021" y="1698" type="qcurve" smooth="yes"/>
      <point x="1010" y="1636" type="line" smooth="yes"/>
      <point x="997.926" y="1569.6"/>
      <point x="1017.6" y="1546"/>
    </contour>
  </outline>
</glyph>
<glyph name="uni04E6" format="2">
  <advance width="1795"/>
  <unicode hex="04E6"/>
  <anchor x="1096" y="1874" name="top"/>
  <anchor x="743" y="-164" name="bottom"/>
  <anchor x="1701" y="1140" name="horn"/>
  <anchor x="867" y="0" name="ogonek"/>
  <outline>
    <contour>
      <point x="252" y="1140" type="qcurve" smooth="yes"/>
      <point x="100" y="272" type="line" smooth="yes"/>
      <point x="69.816" y="95.4236"/>
      <point x="231.516" y="-14"/>
      <point x="393" y="-14" type="qcurve" smooth="yes"/>
      <point x="1159" y="-14" type="line" smooth="yes"/>
      <point x="1320.48" y="-14"/>
      <point x="1521.06" y="93.9144"/>
      <point x="1552" y="272" type="qcurve" smooth="yes"/>
      <point x="1704" y="1140" type="line" smooth="yes"/>
      <point x="1734" y="1311"/>
      <point x="1559.5" y="1414"/>
      <point x="1408" y="1414" type="qcurve" smooth="yes"/>
      <point x="642" y="1414" type="line" smooth="yes"/>
      <point x="490.5" y="1414"/>
      <point x="282" y="1311"/>
    </contour>
    <contour>
      <point x="521" y="1170" type="line"/>
      <point x="521" y="1170"/>
      <point x="521" y="1170"/>
      <point x="521" y="1170" type="qcurve"/>
      <point x="1445" y="1170" type="line"/>
      <point x="1445" y="1170"/>
      <point x="1445" y="1170"/>
      <point x="1445" y="1170" type="qcurve"/>
      <point x="1281" y="230" type="line"/>
      <point x="1281" y="230"/>
      <point x="1281" y="230"/>
      <point x="1281" y="230" type="qcurve"/>
      <point x="357" y="230" type="line"/>
      <point x="357" y="230"/>
      <point x="357" y="230"/>
      <point x="357" y="230" type="qcurve"/>
    </contour>
    <contour>
      <point x="811" y="1560" type="qcurve" smooth="yes"/>
      <point x="871" y="1560" type="line" smooth="yes"/>
      <point x="937.405" y="1560"/>
      <point x="964.926" y="1583.6"/>
      <point x="977" y="1650" type="qcurve" smooth="yes"/>
      <point x="988" y="1712" type="line" smooth="yes"/>
      <point x="999.319" y="1776.9"/>
      <point x="979.405" y="1800"/>
      <point x="913" y="1800" type="qcurve" smooth="yes"/>
      <point x="853" y="1800" type="line" smooth="yes"/>
      <point x="786.595" y="1800"/>
      <point x="759.319" y="1776.9"/>
      <point x="748" y="1712" type="qcurve" smooth="yes"/>
      <point x="737" y="1650" type="line" smooth="yes"/>
      <point x="724.926" y="1583.6"/>
      <point x="744.595" y="1560"/>
    </contour>
    <contour>
      <point x="1211" y="1560" type="qcurve" smooth="yes"/>
      <point x="1271" y="1560" type="line" smooth="yes"/>
      <point x="1337.4" y="1560"/>
      <point x="1364.93" y="1583.6"/>
      <point x="1377" y="1650" type="qcurve" smooth="yes"/>
      <point x="1388" y="1712" type="line" smooth="yes"/>
      <point x="1399.32" y="1776.9"/>
      <point x="1379.4" y="1800"/>
      <point x="1313" y="1800" type="qcurve" smooth="yes"/>
      <point x="1253" y="1800" type="line" smooth="yes"/>
      <point x="1186.6" y="1800"/>
      <point x="1159.32" y="1776.9"/>
      <point x="1148" y="1712" type="qcurve" smooth="yes"/>
      <point x="1137" y="1650" type="line" smooth="yes"/>
      <point x="1124.93" y="1583.6"/>
      <point x="1144.6" y="1560"/>
    </contour>
  </outline>
</glyph>
<glyph name="uni04F6" format="2">
  <advance width="1359"/>
  <unicode hex="04F6"/>
  <outline>
    <contour>
      <point x="83" y="0" type="line" name="ATT"/>
      <point x="285" y="0" type="line"/>
      <point x="252" y="-260" type="line"/>
      <point x="482" y="-260" type="line"/>
      <point x="570" y="244" type="line"/>
      <point x="390" y="244" type="line"/>
      <point x="549" y="1156" type="line"/>
      <point x="1422" y="1156" type="line"/>
      <point x="1464" y="1400" type="line"/>
      <point x="327" y="1400" type="line"/>
    </contour>
  </outline>
</glyph>
<glyph name="wgrave" format="2">
  <advance width="1621"/>
  <unicode hex="1E81"/>
  <anchor x="909" y="1150" name="top"/>
  <anchor x="671" y="-150" name="bottom"/>
  <outline>
    <contour>
      <point x="249" y="0" type="line"/>
      <point x="482" y="0" type="line"/>
      <point x="805" y="631" type="line"/>
      <point x="914" y="0" type="line"/>
      <point x="1134" y="0" type="line"/>
      <point x="1670" y="1000" type="line"/>
      <point x="1433" y="1000" type="line"/>
      <point x="1089" y="334" type="line"/>
      <point x="973" y="1000" type="line"/>
      <point x="772" y="1000" type="line"/>
      <point x="428" y="328" type="line"/>
      <point x="312" y="1000" type="line"/>
      <point x="66" y="1000" type="line"/>
    </contour>
    <contour>
      <point x="889" y="1085" type="line"/>
      <point x="1092" y="1085" type="line"/>
      <point x="844" y="1448" type="line"/>
      <point x="611" y="1448" type="line"/>
    </contour>
  </outline>
</glyph>
<glyph name="Germandbls" format="2">
  <advance width="1715"/>
  <unicode hex="1E9E"/>
  <outline>
    <contour>
      <point x="68" y="0" type="line"/>
      <point x="332" y="0" type="line"/>
      <point x="536" y="1170" type="line"/>
      <point x="536" y="1170"/>
      <point x="536" y="1170"/>
      <point x="536" y="1170" type="qcurve"/>
      <point x="1273" y="1170" type="line"/>
      <point x="1273" y="1170"/>
      <point x="1273" y="1170"/>
      <point x="1273" y="1170" type="qcurve"/>
      <point x="908" y="704" type="line"/>
      <point x="881" y="550" type="line"/>
      <point x="1347" y="550" type="line"/>
      <point x="1347" y="550"/>
      <point x="1347" y="550"/>
      <point x="1347" y="550" type="qcurve"/>
      <point x="1291" y="230" type="line"/>
      <point x="1291" y="230"/>
      <point x="1291" y="230"/>
      <point x="1291" y="230" type="qcurve"/>
      <point x="624" y="230" type="line"/>
      <point x="582" y="-14" type="line"/>
      <point x="1169" y="-14" type="line" smooth="yes"/>
      <point x="1330.48" y="-14"/>
      <point x="1531.06" y="93.9144"/>
      <point x="1562" y="272" type="qcurve" smooth="yes"/>
      <point x="1606" y="520" type="line" smooth="yes"/>
      <point x="1621" y="605.5"/>
      <point x="1589.06" y="712.5"/>
      <point x="1508.44" y="772.5"/>
      <point x="1385.75" y="794"/>
      <point x="1310" y="794" type="qcurve" smooth="yes"/>
      <point x="1282" y="794" type="line"/>
      <point x="1677" y="1297" type="line"/>
      <point x="1649.08" y="1367.93"/>
      <point x="1495.91" y="1414"/>
      <point x="1388" y="1414" type="qcurve" smooth="yes"/>
      <point x="657" y="1414" type="line" smooth="yes"/>
      <point x="505.5" y="1414"/>
      <point x="297" y="1311"/>
      <point x="267" y="1140" type="qcurve" smooth="yes"/>
    </contour>
  </outline>
</glyph>
<glyph name="uni1EA0" format="2">
  <advance width="1654"/>
  <unicode hex="1EA0"/>
  <anchor x="979" y="1550" name="top"/>
  <anchor x="682" y="-150" name="bottom"/>
  <anchor x="1222" y="0" name="ogonek_in"/>
  <outline>
    <contour>
      <point x="-120" y="0" type="line"/>
      <point x="175" y="0" type="line"/>
      <point x="399" y="326" type="line"/>
      <point x="1117" y="326" type="line"/>
      <point x="1227" y="0" type="line"/>
      <point x="1534" y="0" type="line"/>
      <point x="1050" y="1400" type="line"/>
      <point x="842" y="1400" type="line"/>
    </contour>
    <contour>
      <point x="564" y="566" type="line"/>
      <point x="880" y="1025" type="line"/>
      <point x="1036" y="566" type="line"/>
    </contour>
    <contour>
      <point x="605" y="-360" type="qcurve" smooth="yes"/>
      <point x="669" y="-360" type="line" smooth="yes"/>
      <point x="739.178" y="-360"/>
      <point x="768.172" y="-334.932"/>
      <point x="781" y="-264" type="qcurve" smooth="yes"/>
      <point x="793" y="-198" type="line" smooth="yes"/>
      <point x="805.074" y="-127.822"/>
      <point x="784.178" y="-103"/>
      <point x="714" y="-103" type="qcurve" smooth="yes"/>
      <point x="650" y="-103" type="line" smooth="yes"/>
      <point x="579.822" y="-103"/>
      <point x="551.074" y="-127.822"/>
      <point x="539" y="-198" type="qcurve" smooth="yes"/>
      <point x="527" y="-264" type="line" smooth="yes"/>
      <point x="514.172" y="-334.932"/>
      <point x="534.822" y="-360"/>
    </contour>
  </outline>
  <guideline angle="0" x="0" y="-100"/>
</glyph>
<glyph name="uni1EA4" format="2">
  <advance width="1654"/>
  <unicode hex="1EA4"/>
  <anchor x="979" y="1550" name="top"/>
  <anchor x="682" y="-150" name="bottom"/>
  <anchor x="1222" y="0" name="ogonek_in"/>
  <outline>
    <contour>
      <point x="-120" y="0" type="line"/>
      <point x="175" y="0" type="line"/>
      <point x="399" y="326" type="line"/>
      <point x="1117" y="326" type="line"/>
      <point x="1227" y="0" type="line"/>
      <point x="1534" y="0" type="line"/>
      <point x="1050" y="1400" type="line"/>
      <point x="842" y="1400" type="line"/>
    </contour>
    <contour>
      <point x="564" y="566" type="line"/>
      <point x="880" y="1025" type="line"/>
      <point x="1036" y="566" type="line"/>
    </contour>
    <contour>
      <point x="589" y="1485" type="line"/>
      <point x="809" y="1485" type="line"/>
      <point x="976" y="1638" type="line"/>
      <point x="1070" y="1485" type="line"/>
      <point x="1296" y="1485" type="line"/>
      <point x="1078" y="1800" type="line"/>
      <point x="937" y="1800" type="line"/>
    </contour>
    <contour>
      <point x="1268" y="1667" type="line"/>
      <point x="1463" y="1667" type="line"/>
      <point x="1719" y="1900" type="line"/>
      <point x="1494" y="1900" type="line"/>
    </contour>
  </outline>
</glyph>
<glyph name="uni1EBE" format="2">
  <advance width="1568"/>
  <unicode hex="1EBE"/>
  <anchor x="980" y="1550" name="top"/>
  <anchor x="683" y="-150" name="bottom"/>
  <anchor x="1261" y="0" name="ogonek"/>
  <outline>
    <contour>
      <point x="83" y="0" type="line"/>
      <point x="1341" y="0" type="line"/>
      <point x="1384" y="244" type="line"/>
      <point x="390" y="244" type="line"/>
      <point x="451" y="596" type="line"/>
      <point x="1039" y="596" type="line"/>
      <point x="1082" y="840" type="line"/>
      <point x="494" y="840" type="line"/>
      <point x="549" y="1156" type="line"/>
      <point x="1523" y="1156" type="line"/>
      <point x="1565" y="1400" type="line"/>
      <point x="327" y="1400" type="line"/>
    </contour>
    <contour>
      <point x="590" y="1485" type="line"/>
      <point x="810" y="1485" type="line"/>
      <point x="977" y="1638" type="line"/>
      <point x="1071" y="1485" type="line"/>
      <point x="1297" y="1485" type="line"/>
      <point x="1079" y="1800" type="line"/>
      <point x="938" y="1800" type="line"/>
    </contour>
    <contour>
      <point x="1269" y="1667" type="line"/>
      <point x="1464" y="1667" type="line"/>
      <point x="1720" y="1900" type="line"/>
      <point x="1495" y="1900" type="line"/>
    </contour>
  </outline>
  <guideline angle="90" x="-227" y="0"/>
</glyph>
